M48
;DRILL file {KiCad 4.0.4-stable} date Saturday, 15 October 2016 'PMt' 14:40:56
;FORMAT={-:-/ absolute / inch / decimal}
FMAT,2
INCH,TZ
T1C0.008
T2C0.012
T3C0.014
T4C0.016
T5C0.020
T6C0.031
T7C0.035
T8C0.039
T9C0.055
T10C0.062
T11C0.130
T12C0.024
T13C0.039
T14C0.047
T15C0.130
%
G90
G05
M72
T1
X3.3472Y-3.6709
X3.3472Y-3.7181
X3.3945Y-3.6709
X3.3945Y-3.7181
T2
X3.0449Y-4.2878
X3.0449Y-4.3193
X3.0449Y-4.3508
X3.0449Y-4.3823
X3.0764Y-4.2878
X3.0764Y-4.3193
X3.0764Y-4.3508
X3.0764Y-4.3823
X3.1079Y-4.2878
X3.1079Y-4.3193
X3.1079Y-4.3508
X3.1079Y-4.3823
T3
X1.8819Y-3.9291
X1.8819Y-3.9744
X1.8819Y-4.0197
X1.9272Y-3.9291
X1.9272Y-3.9744
X1.9272Y-4.0197
X1.9724Y-3.9291
X1.9724Y-3.9744
X1.9724Y-4.0197
X2.9224Y-2.652
X2.9224Y-2.6992
X2.9697Y-2.652
X2.9697Y-2.6992
T4
X1.737Y-4.0921
X1.752Y-4.2969
X1.8437Y-3.8846
X1.976Y-4.7331
X1.9823Y-4.8299
X1.9921Y-4.6417
X1.9969Y-4.0547
X2.0028Y-4.4835
X2.0205Y-4.0925
X2.0343Y-4.0299
X2.0457Y-2.1866
X2.052Y-4.8252
X2.0591Y-4.0575
X2.0732Y-4.0299
X2.1315Y-4.0728
X2.1831Y-2.876
X2.187Y-2.5925
X2.2228Y-4.772
X2.2421Y-3.4213
X2.2535Y-4.6075
X2.2917Y-4.422
X2.3051Y-2.4252
X2.3228Y-2.2094
X2.3287Y-2.9724
X2.3587Y-4.8327
X2.4291Y-3.3839
X2.4665Y-2.9724
X2.6028Y-2.2276
X2.6043Y-3.0079
X2.6134Y-4.8311
X2.6772Y-2.5
X2.7894Y-3.0512
X2.815Y-2.9213
X2.8213Y-4.2547
X2.8701Y-4.5295
X2.8705Y-2.2453
X2.8854Y-4.8228
X2.8874Y-4.1409
X2.8906Y-4.1059
X2.9193Y-4.5295
X2.928Y-4.1106
X2.9283Y-3.9925
X2.9587Y-3.0276
X2.9819Y-2.9642
X3.0059Y-4.5063
X3.0217Y-2.376
X3.0303Y-3.7697
X3.0787Y-2.9949
X3.0866Y-3.4969
X3.1555Y-2.4429
X3.1642Y-4.8228
X3.2386Y-4.2736
X3.2567Y-2.6701
X3.2575Y-3.8835
X3.2594Y-2.7886
X3.2709Y-4.3055
X3.2799Y-3.4508
X3.2823Y-3.5476
X3.2992Y-4.389
X3.3028Y-3.8835
X3.3051Y-2.6681
X3.3091Y-3.8024
X3.3209Y-3.8382
X3.3252Y-3.2866
X3.3295Y-3.6059
X3.3315Y-3.0827
X3.3543Y-3.7846
X3.3657Y-2.7378
X3.3701Y-3.6039
X3.3925Y-2.6772
X3.4157Y-3.2236
X3.4319Y-3.6079
X3.4354Y-3.5602
X3.4433Y-4.8004
X3.4441Y-4.3941
X3.4732Y-3.2638
X3.485Y-2.8504
X3.485Y-2.9252
X3.4909Y-4.5874
X3.5209Y-3.422
X3.528Y-4.5874
X3.5295Y-4.4563
X3.5343Y-4.502
X3.5343Y-4.5535
X3.5717Y-3.4689
X3.6031Y-3.063
X3.65Y-3.3677
X3.6598Y-3.415
X3.7075Y-3.4114
X3.7303Y-2.5807
X3.7303Y-2.6217
X3.7528Y-2.6598
X3.7646Y-3.2126
X3.7665Y-3.0945
X3.7685Y-3.0157
X3.7697Y-2.5791
X3.7854Y-4.776
X3.7969Y-3.5689
X3.8067Y-2.4622
X3.815Y-2.5799
X3.8272Y-3.8878
X3.8315Y-3.6988
X3.8343Y-3.0925
X3.837Y-4.9728
X3.837Y-5.0217
X3.837Y-5.0713
X3.837Y-5.1173
X3.8484Y-2.4587
X3.8559Y-2.5795
X3.8748Y-2.8465
X3.8933Y-2.4602
X3.8972Y-2.5791
X3.9268Y-2.6102
X3.9327Y-4.6488
X3.9331Y-4.6921
X3.9406Y-2.4602
X3.9535Y-4.7272
X3.9555Y-2.5799
X3.976Y-4.9154
X3.9906Y-2.4594
X3.9957Y-4.728
X3.9988Y-2.5799
X4.0169Y-3.3114
X4.0181Y-3.5878
X4.0189Y-2.6669
X4.0362Y-4.7299
X4.0795Y-4.728
X4.1161Y-2.6701
X4.1173Y-2.8272
X4.1228Y-4.7276
X4.2016Y-3.6039
X4.2173Y-2.8307
X4.2469Y-2.6941
X4.2567Y-3.5669
X4.2606Y-2.7362
X4.3323Y-3.3815
X4.3591Y-2.6772
X4.3594Y-2.9228
X4.3724Y-3.3795
X4.3799Y-3.2823
X4.3827Y-3.2035
X4.3866Y-3.0839
X4.3878Y-3.1445
X4.3909Y-3.026
X4.4177Y-3.1744
X4.4185Y-3.0547
X4.4185Y-3.239
X4.4193Y-3.2807
X4.4197Y-3.1138
X4.4201Y-2.9972
X4.4472Y-2.9646
X4.4772Y-2.9366
X4.5083Y-2.8551
X4.5169Y-3.2004
X4.5173Y-3.0551
X4.5173Y-3.1587
X4.5173Y-3.2437
X4.5173Y-3.2858
X4.5177Y-3.1181
X4.5602Y-3.0559
X4.5602Y-3.1165
X4.5709Y-3.0173
X4.5961Y-2.8161
X4.6043Y-2.9886
X4.6331Y-2.9201
X4.6425Y-2.9587
X4.6583Y-2.8665
T5
X3.0709Y-3.7008
X3.3689Y-3.9051
T6
X1.7228Y-4.4126
X1.7228Y-4.4913
X1.7228Y-4.6882
X1.7228Y-4.7669
X1.8453Y-4.2031
X1.9398Y-4.2031
T7
X1.9055Y-2.6628
X1.9055Y-2.7428
X1.9055Y-2.8228
X1.9055Y-2.9028
X1.9755Y-2.6228
X1.9755Y-2.7028
X1.9755Y-2.7828
X1.9755Y-2.8628
T8
X1.9833Y-1.9291
X2.0423Y-4.9803
X2.0719Y-2.126
X2.1309Y-5.1772
X2.2589Y-1.9291
X2.3179Y-4.9803
X2.3474Y-2.126
X2.4065Y-5.1772
X2.5344Y-1.9291
X2.5935Y-4.9803
X2.623Y-2.126
X2.6821Y-5.1772
X2.81Y-1.9291
X2.8691Y-4.9803
X2.8986Y-2.126
X2.9577Y-5.1772
X3.0856Y-1.9291
X3.1447Y-4.9803
X3.1742Y-2.126
X3.2333Y-5.1772
X3.3612Y-1.9291
X3.4203Y-4.9803
X3.4498Y-2.126
X3.5089Y-5.1772
X3.6368Y-1.9291
X3.6959Y-4.9803
X3.7254Y-2.126
X3.7844Y-5.1772
X3.9124Y-1.9291
X3.9715Y-4.9803
X4.001Y-2.126
X4.06Y-5.1772
X4.188Y-1.9291
X4.247Y-4.9803
X4.2766Y-2.126
X4.3356Y-5.1772
X4.4636Y-1.9291
X4.5226Y-4.9803
X4.5522Y-2.126
X4.6112Y-5.1772
X4.9803Y-2.3278
X4.9803Y-2.6033
X4.9803Y-2.8789
X4.9803Y-3.1545
X4.9803Y-3.4301
X4.9803Y-3.7057
X4.9803Y-3.9813
X4.9803Y-4.2569
X4.9803Y-4.5325
X4.9803Y-4.8081
X5.1772Y-2.2392
X5.1772Y-2.5148
X5.1772Y-2.7904
X5.1772Y-3.0659
X5.1772Y-3.3415
X5.1772Y-3.6171
X5.1772Y-3.8927
X5.1772Y-4.1683
X5.1772Y-4.4439
X5.1772Y-4.7195
T9
X1.7307Y-3.4091
X1.7307Y-3.6256
T10
X1.9405Y-2.4428
X1.9405Y-3.0828
T11
X1.8055Y-2.5128
X1.8055Y-3.0128
T12
X1.6732Y-1.7717
X1.6732Y-5.315
X1.7008Y-1.7008
X1.7008Y-1.8425
X1.7008Y-5.2441
X1.7008Y-5.3858
X1.7717Y-1.6732
X1.7717Y-1.8701
X1.7717Y-5.2165
X1.7717Y-5.4134
X1.8425Y-1.7008
X1.8425Y-1.8425
X1.8425Y-5.2441
X1.8425Y-5.3858
X1.8701Y-1.7717
X1.8701Y-5.315
X5.2165Y-1.7717
X5.2165Y-5.315
X5.2441Y-1.7008
X5.2441Y-1.8425
X5.2441Y-5.2441
X5.2441Y-5.3858
X5.315Y-1.6732
X5.315Y-1.8701
X5.315Y-5.2165
X5.315Y-5.4134
X5.3858Y-1.7008
X5.3858Y-1.8425
X5.3858Y-5.2441
X5.3858Y-5.3858
X5.4134Y-1.7717
X5.4134Y-5.315
T13
X4.3417Y-2.637
X4.3417Y-2.717
X4.5417Y-2.677
T14
X1.6559Y-4.3535
X1.6559Y-4.6291
T15
X1.7717Y-1.7717
X1.7717Y-5.315
X5.315Y-1.7717
X5.315Y-5.315
T0
M30
