G04 #@! TF.FileFunction,Copper,L2,Bot,Signal*
%FSLAX46Y46*%
G04 Gerber Fmt 4.6, Leading zero omitted, Abs format (unit mm)*
G04 Created by KiCad (PCBNEW 4.0.4-stable) date Saturday, 15 October 2016 'PMt' 14:40:54*
%MOMM*%
%LPD*%
G01*
G04 APERTURE LIST*
%ADD10C,0.100000*%
%ADD11C,0.500000*%
%ADD12C,0.300000*%
%ADD13C,2.000000*%
%ADD14R,2.500000X2.500000*%
%ADD15C,2.500000*%
%ADD16C,0.750000*%
%ADD17C,1.600000*%
%ADD18O,1.800000X1.200000*%
%ADD19C,3.300000*%
%ADD20C,1.200000*%
%ADD21C,0.800000*%
%ADD22C,0.250000*%
%ADD23C,0.500000*%
%ADD24C,2.000000*%
%ADD25C,1.000000*%
%ADD26C,0.254000*%
G04 APERTURE END LIST*
D10*
D11*
X74230000Y-67360000D03*
X74230000Y-68560000D03*
X75430000Y-67360000D03*
X75430000Y-68560000D03*
D12*
X86220000Y-94440000D03*
X86220000Y-93240000D03*
X85020000Y-94440000D03*
X85020000Y-93240000D03*
D11*
X50100000Y-99800000D03*
X48950000Y-99800000D03*
X47800000Y-99800000D03*
X50100000Y-100950000D03*
X48950000Y-100950000D03*
X47800000Y-100950000D03*
X50100000Y-102100000D03*
X48950000Y-102100000D03*
X47800000Y-102100000D03*
D13*
X51875000Y-126500000D03*
X54125000Y-131500000D03*
X58875000Y-126500000D03*
X61125000Y-131500000D03*
X65875000Y-126500000D03*
X68125000Y-131500000D03*
X72875000Y-126500000D03*
X75125000Y-131500000D03*
X79875000Y-126500000D03*
X82125000Y-131500000D03*
X86875000Y-126500000D03*
X89125000Y-131500000D03*
X93875000Y-126500000D03*
X96125000Y-131500000D03*
X100875000Y-126500000D03*
X103125000Y-131500000D03*
X107875000Y-126500000D03*
X110125000Y-131500000D03*
X114875000Y-126500000D03*
X117125000Y-131500000D03*
X126500000Y-122125000D03*
X131500000Y-119875000D03*
X126500000Y-115125000D03*
X131500000Y-112875000D03*
X126500000Y-108125000D03*
X131500000Y-105875000D03*
X126500000Y-101125000D03*
X131500000Y-98875000D03*
X126500000Y-94125000D03*
X131500000Y-91875000D03*
X126500000Y-87125000D03*
X131500000Y-84875000D03*
X126500000Y-80125000D03*
X131500000Y-77875000D03*
X126500000Y-73125000D03*
X131500000Y-70875000D03*
X126500000Y-66125000D03*
X131500000Y-63875000D03*
X126500000Y-59125000D03*
X131500000Y-56875000D03*
X115625000Y-54000000D03*
X113375000Y-49000000D03*
X108625000Y-54000000D03*
X106375000Y-49000000D03*
X101625000Y-54000000D03*
X99375000Y-49000000D03*
X94625000Y-54000000D03*
X92375000Y-49000000D03*
X87625000Y-54000000D03*
X85375000Y-49000000D03*
X80625000Y-54000000D03*
X78375000Y-49000000D03*
X73625000Y-54000000D03*
X71375000Y-49000000D03*
X66625000Y-54000000D03*
X64375000Y-49000000D03*
X59625000Y-54000000D03*
X57375000Y-49000000D03*
X52625000Y-54000000D03*
X50375000Y-49000000D03*
D14*
X43960000Y-92090000D03*
D15*
X43960000Y-86590000D03*
D16*
X85570000Y-99190000D03*
X78000000Y-94000000D03*
D11*
X77340000Y-108910000D03*
X77340000Y-109710000D03*
X77340000Y-110510000D03*
X77340000Y-111310000D03*
X78140000Y-108910000D03*
X78140000Y-109710000D03*
X78140000Y-110510000D03*
X78140000Y-111310000D03*
X78940000Y-108910000D03*
X78940000Y-109710000D03*
X78940000Y-110510000D03*
X78940000Y-111310000D03*
D17*
X43760000Y-112080000D03*
X43760000Y-114080000D03*
X43760000Y-119080000D03*
X43760000Y-121080000D03*
D13*
X49289000Y-62048000D03*
D18*
X50178000Y-66620000D03*
X50178000Y-68652000D03*
X50178000Y-70684000D03*
X50178000Y-72716000D03*
X48400000Y-69668000D03*
X48400000Y-71700000D03*
X48400000Y-67636000D03*
X48400000Y-73732000D03*
D19*
X45860000Y-76526000D03*
X45860000Y-63826000D03*
D13*
X49289000Y-78304000D03*
D20*
X49270000Y-106760000D03*
X46870000Y-106760000D03*
D21*
X58550000Y-61600000D03*
X76750000Y-60350000D03*
X75150000Y-76900000D03*
X68000000Y-63500000D03*
X72900000Y-115050000D03*
X83310000Y-87650000D03*
X78400000Y-88820000D03*
X95320000Y-67560000D03*
X76970000Y-95750000D03*
X74380000Y-101410000D03*
X56460000Y-121210000D03*
X97210000Y-98750000D03*
X107870000Y-68430000D03*
X102080000Y-67740000D03*
X114510000Y-72520000D03*
X94170000Y-86650000D03*
X82720000Y-67820000D03*
X87260000Y-90430000D03*
X82740000Y-98640000D03*
X83370000Y-90110000D03*
X84570000Y-91590000D03*
X83890000Y-98640000D03*
X84350000Y-97490000D03*
X84050000Y-96580000D03*
X73340000Y-105180000D03*
X73420000Y-104290000D03*
X74370000Y-104410000D03*
X88670000Y-116520000D03*
X89610000Y-116520000D03*
X89770000Y-115660000D03*
X89770000Y-114350000D03*
X89650000Y-113190000D03*
X76350000Y-114460000D03*
X83080000Y-109360000D03*
X82260000Y-108550000D03*
X75740000Y-75290000D03*
X44500000Y-109140000D03*
X50190000Y-120220000D03*
X50870000Y-113880000D03*
X50600000Y-117900000D03*
X57240000Y-117030000D03*
X58210000Y-112320000D03*
X44120000Y-103940000D03*
X46830000Y-98670000D03*
X54140000Y-103450000D03*
X52660000Y-102360000D03*
X51670000Y-102360000D03*
X51320000Y-103950000D03*
X52300000Y-103060000D03*
X50720000Y-102990000D03*
X71500000Y-74200000D03*
X110720000Y-68000000D03*
X108120000Y-90600000D03*
X98420000Y-72300000D03*
X95720000Y-76600000D03*
X88520000Y-72400000D03*
X88520000Y-74300000D03*
X88220000Y-82900000D03*
X95620000Y-81600000D03*
X91520000Y-77800000D03*
X84620000Y-78300000D03*
X97390000Y-78550000D03*
X95670000Y-78600000D03*
X108220000Y-69500000D03*
X107120000Y-71900000D03*
X80150000Y-62050000D03*
X97320000Y-93950000D03*
X106720000Y-91540000D03*
X96440000Y-90650000D03*
X92960000Y-86740000D03*
X90720000Y-88110000D03*
X85490000Y-69540000D03*
X86170000Y-68000000D03*
X83950000Y-67770000D03*
X82790000Y-70830000D03*
X78200000Y-76070000D03*
X85600000Y-91540000D03*
X85200000Y-96130000D03*
X87170000Y-91640000D03*
X61700000Y-85950000D03*
X55550000Y-65850000D03*
X56950000Y-86900000D03*
X55450000Y-73050000D03*
X97460000Y-129980000D03*
X97460000Y-128810000D03*
X97460000Y-127550000D03*
X97460000Y-126310000D03*
X83800000Y-111480000D03*
X87480000Y-111610000D03*
X86760000Y-81880000D03*
X84460000Y-83480000D03*
X92710000Y-85540000D03*
X89430000Y-86920000D03*
X118320000Y-72810000D03*
X116740000Y-71530000D03*
X70850000Y-77500000D03*
X59150000Y-75500000D03*
X62650000Y-75500000D03*
X66150000Y-76400000D03*
X74150000Y-115050000D03*
X71660000Y-108070000D03*
X104580000Y-71810000D03*
X104550000Y-67820000D03*
X102030000Y-84110000D03*
X102060000Y-91130000D03*
X100990000Y-124850000D03*
X50350000Y-122680000D03*
X104720000Y-120080000D03*
X52120000Y-122560000D03*
X103620000Y-120090000D03*
X59910000Y-122750000D03*
X102520000Y-120140000D03*
X66380000Y-122710000D03*
X101490000Y-120090000D03*
X73290000Y-122500000D03*
X100420000Y-120070000D03*
X80370000Y-122500000D03*
X99900000Y-119180000D03*
X87460000Y-121930000D03*
X99890000Y-118080000D03*
X96150000Y-121310000D03*
X110040000Y-85890000D03*
X111250000Y-83370000D03*
X111060000Y-85840000D03*
X112250000Y-83330000D03*
X112230000Y-82270000D03*
X114740000Y-83460000D03*
X111320000Y-81370000D03*
X114740000Y-82390000D03*
X112210000Y-80630000D03*
X114730000Y-81290000D03*
X111450000Y-79870000D03*
X114740000Y-80230000D03*
X112260000Y-79090000D03*
X114750000Y-79200000D03*
X115830000Y-79160000D03*
X111420000Y-78330000D03*
X114740000Y-77600000D03*
X112230000Y-77590000D03*
X115830000Y-77620000D03*
X111530000Y-76860000D03*
X116100000Y-76640000D03*
X112270000Y-76130000D03*
X116950000Y-75910000D03*
X112960000Y-75300000D03*
X117920000Y-75150000D03*
X113720000Y-74590000D03*
X117680000Y-74170000D03*
X110730000Y-74240000D03*
X101570000Y-65530000D03*
X101360000Y-62470000D03*
X100470000Y-65530000D03*
X100090000Y-62490000D03*
X99740000Y-66300000D03*
X98890000Y-62490000D03*
X98990000Y-65510000D03*
X97750000Y-62450000D03*
X97940000Y-65520000D03*
X96690000Y-62540000D03*
X94750000Y-66590000D03*
X72910000Y-57030000D03*
X94750000Y-65550000D03*
X66110000Y-56580000D03*
X95750000Y-65510000D03*
X59000000Y-56120000D03*
X96900000Y-65530000D03*
X51960000Y-55540000D03*
D22*
X113220000Y-68000000D02*
X114510000Y-69290000D01*
X114510000Y-69290000D02*
X114510000Y-72520000D01*
X110720000Y-68000000D02*
X113220000Y-68000000D01*
X83370000Y-90110000D02*
X83370000Y-90390000D01*
X83370000Y-90390000D02*
X84570000Y-91590000D01*
X95670000Y-78600000D02*
X97340000Y-78600000D01*
X97340000Y-78600000D02*
X97390000Y-78550000D01*
X107120000Y-71900000D02*
X108220000Y-70800000D01*
X108220000Y-70800000D02*
X108220000Y-69500000D01*
D23*
X79870000Y-63690000D02*
X79870000Y-62330000D01*
X79870000Y-62330000D02*
X80150000Y-62050000D01*
D22*
X85200000Y-96130000D02*
X85550000Y-96480000D01*
X85550000Y-96480000D02*
X85550000Y-99170000D01*
X85550000Y-99170000D02*
X85570000Y-99190000D01*
X97720000Y-91930000D02*
X97720000Y-93550000D01*
X97720000Y-93550000D02*
X97320000Y-93950000D01*
X106330000Y-91930000D02*
X97720000Y-91930000D01*
X97720000Y-91930000D02*
X96440000Y-90650000D01*
X106720000Y-91540000D02*
X106330000Y-91930000D01*
X90720000Y-88110000D02*
X91590000Y-88110000D01*
X91590000Y-88110000D02*
X92960000Y-86740000D01*
X85030000Y-67770000D02*
X85940000Y-67770000D01*
X83950000Y-67770000D02*
X85030000Y-67770000D01*
X85030000Y-67770000D02*
X85030000Y-69080000D01*
X85030000Y-69080000D02*
X85490000Y-69540000D01*
X85940000Y-67770000D02*
X86170000Y-68000000D01*
D23*
X79870000Y-63690000D02*
X83950000Y-67770000D01*
D22*
X78430000Y-76070000D02*
X82790000Y-71710000D01*
X82790000Y-71710000D02*
X82790000Y-70830000D01*
X78200000Y-76070000D02*
X78430000Y-76070000D01*
X85600000Y-91540000D02*
X85700000Y-91640000D01*
X85700000Y-91640000D02*
X87170000Y-91640000D01*
D23*
X55550000Y-65850000D02*
X55550000Y-71450000D01*
X55550000Y-71450000D02*
X56450000Y-72350000D01*
X56450000Y-84650000D02*
X57750000Y-85950000D01*
X57750000Y-85950000D02*
X61700000Y-85950000D01*
X56450000Y-72350000D02*
X56450000Y-84650000D01*
X55450000Y-82900000D02*
X55450000Y-85400000D01*
X55450000Y-85400000D02*
X56950000Y-86900000D01*
X55450000Y-73050000D02*
X55450000Y-82900000D01*
D24*
X93875000Y-126500000D02*
X95830000Y-126500000D01*
X95830000Y-126500000D02*
X97740000Y-126500000D01*
D25*
X96020000Y-126310000D02*
X95830000Y-126500000D01*
X97460000Y-126310000D02*
X96020000Y-126310000D01*
X97460000Y-127550000D02*
X97460000Y-128810000D01*
X97460000Y-126310000D02*
X97460000Y-127550000D01*
X97460000Y-128810000D02*
X97460000Y-129980000D01*
D24*
X97740000Y-126500000D02*
X100875000Y-126500000D01*
X79875000Y-126500000D02*
X86875000Y-126500000D01*
X72875000Y-126500000D02*
X79875000Y-126500000D01*
X65875000Y-126500000D02*
X72875000Y-126500000D01*
X58875000Y-126500000D02*
X65875000Y-126500000D01*
X51875000Y-126500000D02*
X58875000Y-126500000D01*
X107875000Y-126500000D02*
X114875000Y-126500000D01*
X100875000Y-126500000D02*
X107875000Y-126500000D01*
X86875000Y-126500000D02*
X93875000Y-126500000D01*
X114875000Y-126500000D02*
X122125000Y-126500000D01*
X122125000Y-126500000D02*
X126500000Y-122125000D01*
X126500000Y-115125000D02*
X126500000Y-122125000D01*
X126500000Y-108125000D02*
X126500000Y-115125000D01*
X126500000Y-101125000D02*
X126500000Y-108125000D01*
X126500000Y-94125000D02*
X126500000Y-101125000D01*
X126500000Y-87125000D02*
X126500000Y-94125000D01*
X126500000Y-80125000D02*
X126500000Y-87125000D01*
X126500000Y-73125000D02*
X126500000Y-80125000D01*
X126500000Y-66125000D02*
X126500000Y-73125000D01*
X126500000Y-59125000D02*
X126500000Y-66125000D01*
X115625000Y-54000000D02*
X121375000Y-54000000D01*
X121375000Y-54000000D02*
X126500000Y-59125000D01*
X108625000Y-54000000D02*
X115625000Y-54000000D01*
X101625000Y-54000000D02*
X108625000Y-54000000D01*
X94625000Y-54000000D02*
X101625000Y-54000000D01*
X87625000Y-54000000D02*
X94625000Y-54000000D01*
X80625000Y-54000000D02*
X87625000Y-54000000D01*
X73625000Y-54000000D02*
X80625000Y-54000000D01*
X66625000Y-54000000D02*
X73625000Y-54000000D01*
X59625000Y-54000000D02*
X66625000Y-54000000D01*
X52625000Y-54000000D02*
X59625000Y-54000000D01*
D22*
X87480000Y-111610000D02*
X83930000Y-111610000D01*
X83930000Y-111610000D02*
X83800000Y-111480000D01*
X84460000Y-83480000D02*
X85160000Y-83480000D01*
X85160000Y-83480000D02*
X86760000Y-81880000D01*
X89430000Y-86920000D02*
X91330000Y-86920000D01*
X91330000Y-86920000D02*
X92710000Y-85540000D01*
X118320000Y-72810000D02*
X118020000Y-72810000D01*
X118020000Y-72810000D02*
X116740000Y-71530000D01*
D24*
X52470000Y-65229000D02*
X52470000Y-75123000D01*
X52470000Y-75123000D02*
X49289000Y-78304000D01*
X49289000Y-62048000D02*
X52470000Y-65229000D01*
D23*
X70850000Y-77500000D02*
X67250000Y-77500000D01*
X67250000Y-77500000D02*
X66150000Y-76400000D01*
X62650000Y-75500000D02*
X65250000Y-75500000D01*
X65250000Y-75500000D02*
X66150000Y-76400000D01*
X59150000Y-75500000D02*
X62650000Y-75500000D01*
D22*
X71660000Y-110860000D02*
X71660000Y-112560000D01*
X71660000Y-112560000D02*
X74150000Y-115050000D01*
X71660000Y-110860000D02*
X71660000Y-108070000D01*
X104550000Y-67820000D02*
X104550000Y-71780000D01*
X104550000Y-71780000D02*
X104580000Y-71810000D01*
X102030000Y-84110000D02*
X102030000Y-84450000D01*
X102060000Y-91130000D02*
X102060000Y-84480000D01*
X92450000Y-125140000D02*
X100700000Y-125140000D01*
X100700000Y-125140000D02*
X100990000Y-124850000D01*
X60280000Y-125140000D02*
X92450000Y-125140000D01*
X52810000Y-125140000D02*
X60280000Y-125140000D01*
X50350000Y-122680000D02*
X52810000Y-125140000D01*
X92430000Y-124680000D02*
X100120000Y-124680000D01*
X100120000Y-124680000D02*
X104720000Y-120080000D01*
X58390000Y-124680000D02*
X92430000Y-124680000D01*
X53110000Y-124680000D02*
X58390000Y-124680000D01*
X52140000Y-123710000D02*
X53110000Y-124680000D01*
X52140000Y-122580000D02*
X52140000Y-123710000D01*
X52120000Y-122560000D02*
X52140000Y-122580000D01*
X92500000Y-124200000D02*
X99510000Y-124200000D01*
X99510000Y-124200000D02*
X103620000Y-120090000D01*
X60440000Y-124200000D02*
X92500000Y-124200000D01*
X59930000Y-123690000D02*
X60440000Y-124200000D01*
X59930000Y-122770000D02*
X59930000Y-123690000D01*
X59910000Y-122750000D02*
X59930000Y-122770000D01*
X92490000Y-123720000D02*
X98940000Y-123720000D01*
X98940000Y-123720000D02*
X102520000Y-120140000D01*
X66710000Y-123720000D02*
X92490000Y-123720000D01*
X66340000Y-123350000D02*
X66710000Y-123720000D01*
X66340000Y-122750000D02*
X66340000Y-123350000D01*
X66380000Y-122710000D02*
X66340000Y-122750000D01*
X92540000Y-123240000D02*
X98340000Y-123240000D01*
X98340000Y-123240000D02*
X101490000Y-120090000D01*
X73650000Y-123240000D02*
X92540000Y-123240000D01*
X73280000Y-122870000D02*
X73650000Y-123240000D01*
X73280000Y-122510000D02*
X73280000Y-122870000D01*
X73290000Y-122500000D02*
X73280000Y-122510000D01*
X97430000Y-122750000D02*
X97740000Y-122750000D01*
X97740000Y-122750000D02*
X100420000Y-120070000D01*
X92480000Y-122750000D02*
X97430000Y-122750000D01*
X80620000Y-122750000D02*
X92480000Y-122750000D01*
X80370000Y-122500000D02*
X80620000Y-122750000D01*
X99400000Y-120040000D02*
X99900000Y-119540000D01*
X99900000Y-119540000D02*
X99900000Y-119180000D01*
X92540000Y-122280000D02*
X97160000Y-122280000D01*
X97160000Y-122280000D02*
X99400000Y-120040000D01*
X87810000Y-122280000D02*
X92540000Y-122280000D01*
X87460000Y-121930000D02*
X87810000Y-122280000D01*
X99100000Y-119430000D02*
X99100000Y-118870000D01*
X99100000Y-118870000D02*
X99890000Y-118080000D01*
X97220000Y-121310000D02*
X99100000Y-119430000D01*
X96150000Y-121310000D02*
X97220000Y-121310000D01*
X111250000Y-83370000D02*
X110040000Y-84580000D01*
X110040000Y-84580000D02*
X110040000Y-85890000D01*
X112250000Y-83520000D02*
X111060000Y-84710000D01*
X111060000Y-84710000D02*
X111060000Y-85840000D01*
X112250000Y-83330000D02*
X112250000Y-83520000D01*
X114740000Y-83460000D02*
X113550000Y-82270000D01*
X113550000Y-82270000D02*
X112230000Y-82270000D01*
X114740000Y-82390000D02*
X113720000Y-81370000D01*
X113720000Y-81370000D02*
X111320000Y-81370000D01*
X114730000Y-81290000D02*
X114070000Y-80630000D01*
X114070000Y-80630000D02*
X112210000Y-80630000D01*
X114360000Y-79850000D02*
X111470000Y-79850000D01*
X111470000Y-79850000D02*
X111450000Y-79870000D01*
X114740000Y-80230000D02*
X114360000Y-79850000D01*
X114750000Y-79200000D02*
X114640000Y-79090000D01*
X114640000Y-79090000D02*
X112260000Y-79090000D01*
X115120000Y-78330000D02*
X115830000Y-79040000D01*
X115830000Y-79040000D02*
X115830000Y-79160000D01*
X111420000Y-78330000D02*
X115120000Y-78330000D01*
X112230000Y-77590000D02*
X114730000Y-77590000D01*
X114730000Y-77590000D02*
X114740000Y-77600000D01*
X115240000Y-76860000D02*
X115830000Y-77450000D01*
X115830000Y-77450000D02*
X115830000Y-77620000D01*
X111530000Y-76860000D02*
X115240000Y-76860000D01*
X112480000Y-76340000D02*
X115800000Y-76340000D01*
X115800000Y-76340000D02*
X116100000Y-76640000D01*
X112270000Y-76130000D02*
X112480000Y-76340000D01*
X113430000Y-75770000D02*
X116810000Y-75770000D01*
X116810000Y-75770000D02*
X116950000Y-75910000D01*
X112960000Y-75300000D02*
X113430000Y-75770000D01*
X114270000Y-75140000D02*
X117910000Y-75140000D01*
X117910000Y-75140000D02*
X117920000Y-75150000D01*
X113720000Y-74590000D02*
X114270000Y-75140000D01*
X114790000Y-74580000D02*
X117270000Y-74580000D01*
X117270000Y-74580000D02*
X117680000Y-74170000D01*
X114020000Y-73810000D02*
X114790000Y-74580000D01*
X113270000Y-73810000D02*
X114020000Y-73810000D01*
X112840000Y-74240000D02*
X113270000Y-73810000D01*
X110730000Y-74240000D02*
X112840000Y-74240000D01*
X101360000Y-62470000D02*
X101570000Y-62680000D01*
X101570000Y-62680000D02*
X101570000Y-65530000D01*
X100090000Y-62490000D02*
X100470000Y-62870000D01*
X100470000Y-62870000D02*
X100470000Y-65530000D01*
X98890000Y-62490000D02*
X99740000Y-63340000D01*
X99740000Y-63340000D02*
X99740000Y-66300000D01*
X97750000Y-62450000D02*
X98990000Y-63690000D01*
X98990000Y-63690000D02*
X98990000Y-65510000D01*
X96690000Y-62540000D02*
X97940000Y-63790000D01*
X97940000Y-63790000D02*
X97940000Y-65520000D01*
X94750000Y-66590000D02*
X94570000Y-66590000D01*
X93970000Y-65990000D02*
X93970000Y-57800000D01*
X94570000Y-66590000D02*
X93970000Y-65990000D01*
X73200000Y-56740000D02*
X92910000Y-56740000D01*
X93970000Y-57800000D02*
X92910000Y-56740000D01*
X72910000Y-57030000D02*
X73200000Y-56740000D01*
X94550000Y-65350000D02*
X94550000Y-57620000D01*
X94750000Y-65550000D02*
X94550000Y-65350000D01*
X66420000Y-56270000D02*
X93200000Y-56270000D01*
X94550000Y-57620000D02*
X93200000Y-56270000D01*
X66110000Y-56580000D02*
X66420000Y-56270000D01*
X95750000Y-65510000D02*
X95130000Y-64890000D01*
X95130000Y-64890000D02*
X95130000Y-57390000D01*
X95130000Y-57390000D02*
X93530000Y-55790000D01*
X93530000Y-55790000D02*
X59330000Y-55790000D01*
X59330000Y-55790000D02*
X59300000Y-55820000D01*
X59300000Y-55820000D02*
X59000000Y-56120000D01*
X52170000Y-55330000D02*
X93920000Y-55330000D01*
X95700000Y-64300000D02*
X95700000Y-57110000D01*
X95700000Y-57110000D02*
X93920000Y-55330000D01*
X96900000Y-65500000D02*
X95700000Y-64300000D01*
X96900000Y-65530000D02*
X96900000Y-65500000D01*
X51960000Y-55540000D02*
X52170000Y-55330000D01*
D26*
G36*
X50925180Y-55333223D02*
X50924821Y-55744971D01*
X51082058Y-56125515D01*
X51372954Y-56416919D01*
X51753223Y-56574820D01*
X52164971Y-56575179D01*
X52545515Y-56417942D01*
X52836919Y-56127046D01*
X52852302Y-56090000D01*
X57965026Y-56090000D01*
X57964821Y-56324971D01*
X58122058Y-56705515D01*
X58412954Y-56996919D01*
X58793223Y-57154820D01*
X59204971Y-57155179D01*
X59585515Y-56997942D01*
X59876919Y-56707046D01*
X59942130Y-56550000D01*
X65075026Y-56550000D01*
X65074821Y-56784971D01*
X65232058Y-57165515D01*
X65522954Y-57456919D01*
X65903223Y-57614820D01*
X66314971Y-57615179D01*
X66695515Y-57457942D01*
X66986919Y-57167046D01*
X67043825Y-57030000D01*
X71875000Y-57030000D01*
X71874821Y-57234971D01*
X72032058Y-57615515D01*
X72322954Y-57906919D01*
X72703223Y-58064820D01*
X73114971Y-58065179D01*
X73495515Y-57907942D01*
X73786919Y-57617046D01*
X73835521Y-57500000D01*
X92595198Y-57500000D01*
X93210000Y-58114802D01*
X93210000Y-65990000D01*
X93267852Y-66280839D01*
X93432599Y-66527401D01*
X93725138Y-66819940D01*
X93872058Y-67175515D01*
X94162954Y-67466919D01*
X94543223Y-67624820D01*
X94954971Y-67625179D01*
X95335515Y-67467942D01*
X95626919Y-67177046D01*
X95784820Y-66796777D01*
X95785039Y-66545031D01*
X95954971Y-66545179D01*
X96306130Y-66400083D01*
X96312954Y-66406919D01*
X96693223Y-66564820D01*
X97104971Y-66565179D01*
X97432377Y-66429898D01*
X97733223Y-66554820D01*
X98144971Y-66555179D01*
X98477389Y-66417827D01*
X98708459Y-66513775D01*
X98862058Y-66885515D01*
X99152954Y-67176919D01*
X99533223Y-67334820D01*
X99944971Y-67335179D01*
X100325515Y-67177942D01*
X100616919Y-66887046D01*
X100766226Y-66527473D01*
X101020380Y-66422460D01*
X101363223Y-66564820D01*
X101774971Y-66565179D01*
X102155515Y-66407942D01*
X102446919Y-66117046D01*
X102604820Y-65736777D01*
X102605179Y-65325029D01*
X102447942Y-64944485D01*
X102330000Y-64826337D01*
X102330000Y-62832881D01*
X102394820Y-62676777D01*
X102395179Y-62265029D01*
X102237942Y-61884485D01*
X101947046Y-61593081D01*
X101566777Y-61435180D01*
X101155029Y-61434821D01*
X100774485Y-61592058D01*
X100715169Y-61651271D01*
X100677046Y-61613081D01*
X100296777Y-61455180D01*
X99885029Y-61454821D01*
X99504485Y-61612058D01*
X99490230Y-61626288D01*
X99477046Y-61613081D01*
X99096777Y-61455180D01*
X98685029Y-61454821D01*
X98355084Y-61591151D01*
X98337046Y-61573081D01*
X97956777Y-61415180D01*
X97545029Y-61414821D01*
X97164485Y-61572058D01*
X97133156Y-61603333D01*
X96896777Y-61505180D01*
X96485029Y-61504821D01*
X96460000Y-61515163D01*
X96460000Y-57110000D01*
X96402148Y-56819161D01*
X96237401Y-56572599D01*
X95299802Y-55635000D01*
X101623573Y-55635000D01*
X101948795Y-55635284D01*
X101949482Y-55635000D01*
X108623573Y-55635000D01*
X108948795Y-55635284D01*
X108949482Y-55635000D01*
X115623573Y-55635000D01*
X115948795Y-55635284D01*
X115949482Y-55635000D01*
X120697760Y-55635000D01*
X124865000Y-59802239D01*
X124865000Y-66123574D01*
X124864716Y-66448795D01*
X124865000Y-66449482D01*
X124865000Y-73123574D01*
X124864716Y-73448795D01*
X124865000Y-73449482D01*
X124865000Y-80123574D01*
X124864716Y-80448795D01*
X124865000Y-80449482D01*
X124865000Y-87123574D01*
X124864716Y-87448795D01*
X124865000Y-87449482D01*
X124865000Y-94123574D01*
X124864716Y-94448795D01*
X124865000Y-94449482D01*
X124865000Y-101123574D01*
X124864716Y-101448795D01*
X124865000Y-101449482D01*
X124865000Y-108123574D01*
X124864716Y-108448795D01*
X124865000Y-108449482D01*
X124865000Y-115123574D01*
X124864716Y-115448795D01*
X124865000Y-115449482D01*
X124865000Y-121447761D01*
X121447760Y-124865000D01*
X114876426Y-124865000D01*
X114551205Y-124864716D01*
X114550518Y-124865000D01*
X107876426Y-124865000D01*
X107551205Y-124864716D01*
X107550518Y-124865000D01*
X102024987Y-124865000D01*
X102025179Y-124645029D01*
X101867942Y-124264485D01*
X101739242Y-124135560D01*
X104759767Y-121115035D01*
X104924971Y-121115179D01*
X105305515Y-120957942D01*
X105596919Y-120667046D01*
X105754820Y-120286777D01*
X105755179Y-119875029D01*
X105597942Y-119494485D01*
X105307046Y-119203081D01*
X104926777Y-119045180D01*
X104515029Y-119044821D01*
X104157549Y-119192528D01*
X103826777Y-119055180D01*
X103415029Y-119054821D01*
X103034485Y-119212058D01*
X103019704Y-119226813D01*
X102726777Y-119105180D01*
X102315029Y-119104821D01*
X102065062Y-119208105D01*
X101696777Y-119055180D01*
X101285029Y-119054821D01*
X100978799Y-119181352D01*
X100935015Y-119163171D01*
X100935179Y-118975029D01*
X100787472Y-118617549D01*
X100924820Y-118286777D01*
X100925179Y-117875029D01*
X100767942Y-117494485D01*
X100477046Y-117203081D01*
X100096777Y-117045180D01*
X99685029Y-117044821D01*
X99304485Y-117202058D01*
X99013081Y-117492954D01*
X98855180Y-117873223D01*
X98855034Y-118040164D01*
X98562599Y-118332599D01*
X98397852Y-118579161D01*
X98340000Y-118870000D01*
X98340000Y-119115197D01*
X96905198Y-120550000D01*
X96853761Y-120550000D01*
X96737046Y-120433081D01*
X96356777Y-120275180D01*
X95945029Y-120274821D01*
X95564485Y-120432058D01*
X95273081Y-120722954D01*
X95115180Y-121103223D01*
X95114821Y-121514971D01*
X95116899Y-121520000D01*
X88410463Y-121520000D01*
X88337942Y-121344485D01*
X88047046Y-121053081D01*
X87666777Y-120895180D01*
X87255029Y-120894821D01*
X86874485Y-121052058D01*
X86583081Y-121342954D01*
X86425180Y-121723223D01*
X86424947Y-121990000D01*
X81279144Y-121990000D01*
X81247942Y-121914485D01*
X80957046Y-121623081D01*
X80576777Y-121465180D01*
X80165029Y-121464821D01*
X79784485Y-121622058D01*
X79493081Y-121912954D01*
X79335180Y-122293223D01*
X79335017Y-122480000D01*
X74325018Y-122480000D01*
X74325179Y-122295029D01*
X74167942Y-121914485D01*
X73877046Y-121623081D01*
X73496777Y-121465180D01*
X73085029Y-121464821D01*
X72704485Y-121622058D01*
X72413081Y-121912954D01*
X72255180Y-122293223D01*
X72254821Y-122704971D01*
X72360196Y-122960000D01*
X67396872Y-122960000D01*
X67414820Y-122916777D01*
X67415179Y-122505029D01*
X67257942Y-122124485D01*
X66967046Y-121833081D01*
X66586777Y-121675180D01*
X66175029Y-121674821D01*
X65794485Y-121832058D01*
X65503081Y-122122954D01*
X65345180Y-122503223D01*
X65344821Y-122914971D01*
X65502058Y-123295515D01*
X65585861Y-123379464D01*
X65597902Y-123440000D01*
X60754802Y-123440000D01*
X60719325Y-123404523D01*
X60786919Y-123337046D01*
X60944820Y-122956777D01*
X60945179Y-122545029D01*
X60787942Y-122164485D01*
X60497046Y-121873081D01*
X60116777Y-121715180D01*
X59705029Y-121714821D01*
X59324485Y-121872058D01*
X59033081Y-122162954D01*
X58875180Y-122543223D01*
X58874821Y-122954971D01*
X59032058Y-123335515D01*
X59170000Y-123473698D01*
X59170000Y-123690000D01*
X59215750Y-123920000D01*
X53424802Y-123920000D01*
X52900000Y-123395198D01*
X52900000Y-123243796D01*
X52996919Y-123147046D01*
X53154820Y-122766777D01*
X53155179Y-122355029D01*
X52997942Y-121974485D01*
X52707046Y-121683081D01*
X52326777Y-121525180D01*
X51915029Y-121524821D01*
X51534485Y-121682058D01*
X51243081Y-121972954D01*
X51202994Y-122069494D01*
X50937046Y-121803081D01*
X50556777Y-121645180D01*
X50145029Y-121644821D01*
X49764485Y-121802058D01*
X49473081Y-122092954D01*
X49315180Y-122473223D01*
X49314821Y-122884971D01*
X49472058Y-123265515D01*
X49762954Y-123556919D01*
X50143223Y-123714820D01*
X50310164Y-123714966D01*
X51468198Y-124873000D01*
X41012509Y-124873000D01*
X40735000Y-124817800D01*
X40735000Y-117824579D01*
X40824786Y-117824579D01*
X41012408Y-118278657D01*
X41359515Y-118626371D01*
X41813266Y-118814785D01*
X42304579Y-118815214D01*
X42325238Y-118806678D01*
X42324752Y-119364187D01*
X42542757Y-119891800D01*
X42730603Y-120079974D01*
X42544176Y-120266077D01*
X42325250Y-120793309D01*
X42324752Y-121364187D01*
X42542757Y-121891800D01*
X42946077Y-122295824D01*
X43473309Y-122514750D01*
X44044187Y-122515248D01*
X44571800Y-122297243D01*
X44975824Y-121893923D01*
X45194750Y-121366691D01*
X45195248Y-120795813D01*
X44977243Y-120268200D01*
X44789397Y-120080026D01*
X44975824Y-119893923D01*
X45194750Y-119366691D01*
X45195248Y-118795813D01*
X44977243Y-118268200D01*
X44573923Y-117864176D01*
X44046691Y-117645250D01*
X43475813Y-117644752D01*
X43294879Y-117719512D01*
X43295214Y-117335421D01*
X43107592Y-116881343D01*
X42760485Y-116533629D01*
X42306734Y-116345215D01*
X41815421Y-116344786D01*
X41361343Y-116532408D01*
X41013629Y-116879515D01*
X40825215Y-117333266D01*
X40824786Y-117824579D01*
X40735000Y-117824579D01*
X40735000Y-110824579D01*
X40824786Y-110824579D01*
X41012408Y-111278657D01*
X41359515Y-111626371D01*
X41813266Y-111814785D01*
X42304579Y-111815214D01*
X42325238Y-111806678D01*
X42324752Y-112364187D01*
X42542757Y-112891800D01*
X42730603Y-113079974D01*
X42544176Y-113266077D01*
X42325250Y-113793309D01*
X42324752Y-114364187D01*
X42542757Y-114891800D01*
X42946077Y-115295824D01*
X43473309Y-115514750D01*
X44044187Y-115515248D01*
X44571800Y-115297243D01*
X44975824Y-114893923D01*
X45194750Y-114366691D01*
X45195248Y-113795813D01*
X44977243Y-113268200D01*
X44789397Y-113080026D01*
X44975824Y-112893923D01*
X45194750Y-112366691D01*
X45195248Y-111795813D01*
X44977243Y-111268200D01*
X44573923Y-110864176D01*
X44046691Y-110645250D01*
X43475813Y-110644752D01*
X43294879Y-110719512D01*
X43295214Y-110335421D01*
X43107592Y-109881343D01*
X42760485Y-109533629D01*
X42306734Y-109345215D01*
X41815421Y-109344786D01*
X41361343Y-109532408D01*
X41013629Y-109879515D01*
X40825215Y-110333266D01*
X40824786Y-110824579D01*
X40735000Y-110824579D01*
X40735000Y-108274971D01*
X70624821Y-108274971D01*
X70782058Y-108655515D01*
X70900000Y-108773663D01*
X70900000Y-112560000D01*
X70957852Y-112850839D01*
X71122599Y-113097401D01*
X73114965Y-115089767D01*
X73114821Y-115254971D01*
X73272058Y-115635515D01*
X73562954Y-115926919D01*
X73943223Y-116084820D01*
X74354971Y-116085179D01*
X74735515Y-115927942D01*
X75026919Y-115637046D01*
X75184820Y-115256777D01*
X75185179Y-114845029D01*
X75027942Y-114464485D01*
X74737046Y-114173081D01*
X74356777Y-114015180D01*
X74189836Y-114015034D01*
X72420000Y-112245198D01*
X72420000Y-111684971D01*
X82764821Y-111684971D01*
X82922058Y-112065515D01*
X83212954Y-112356919D01*
X83593223Y-112514820D01*
X84004971Y-112515179D01*
X84356332Y-112370000D01*
X86776239Y-112370000D01*
X86892954Y-112486919D01*
X87273223Y-112644820D01*
X87684971Y-112645179D01*
X88065515Y-112487942D01*
X88356919Y-112197046D01*
X88514820Y-111816777D01*
X88515179Y-111405029D01*
X88357942Y-111024485D01*
X88067046Y-110733081D01*
X87686777Y-110575180D01*
X87275029Y-110574821D01*
X86894485Y-110732058D01*
X86776337Y-110850000D01*
X84633535Y-110850000D01*
X84387046Y-110603081D01*
X84006777Y-110445180D01*
X83595029Y-110444821D01*
X83214485Y-110602058D01*
X82923081Y-110892954D01*
X82765180Y-111273223D01*
X82764821Y-111684971D01*
X72420000Y-111684971D01*
X72420000Y-108773761D01*
X72536919Y-108657046D01*
X72694820Y-108276777D01*
X72695179Y-107865029D01*
X72537942Y-107484485D01*
X72247046Y-107193081D01*
X71866777Y-107035180D01*
X71455029Y-107034821D01*
X71074485Y-107192058D01*
X70783081Y-107482954D01*
X70625180Y-107863223D01*
X70624821Y-108274971D01*
X40735000Y-108274971D01*
X40735000Y-107004579D01*
X45634786Y-107004579D01*
X45822408Y-107458657D01*
X46169515Y-107806371D01*
X46623266Y-107994785D01*
X47114579Y-107995214D01*
X47568657Y-107807592D01*
X47916371Y-107460485D01*
X48070145Y-107090155D01*
X48222408Y-107458657D01*
X48569515Y-107806371D01*
X49023266Y-107994785D01*
X49514579Y-107995214D01*
X49968657Y-107807592D01*
X50316371Y-107460485D01*
X50504785Y-107006734D01*
X50505214Y-106515421D01*
X50317592Y-106061343D01*
X49970485Y-105713629D01*
X49516734Y-105525215D01*
X49025421Y-105524786D01*
X48571343Y-105712408D01*
X48223629Y-106059515D01*
X48069855Y-106429845D01*
X47917592Y-106061343D01*
X47570485Y-105713629D01*
X47116734Y-105525215D01*
X46625421Y-105524786D01*
X46171343Y-105712408D01*
X45823629Y-106059515D01*
X45635215Y-106513266D01*
X45634786Y-107004579D01*
X40735000Y-107004579D01*
X40735000Y-96334971D01*
X84164821Y-96334971D01*
X84322058Y-96715515D01*
X84612954Y-97006919D01*
X84790000Y-97080435D01*
X84790000Y-98541529D01*
X84714263Y-98617134D01*
X84560176Y-98988217D01*
X84559825Y-99390020D01*
X84713264Y-99761372D01*
X84997134Y-100045737D01*
X85368217Y-100199824D01*
X85770020Y-100200175D01*
X86141372Y-100046736D01*
X86425737Y-99762866D01*
X86579824Y-99391783D01*
X86580175Y-98989980D01*
X86426736Y-98618628D01*
X86310000Y-98501688D01*
X86310000Y-96480000D01*
X86252148Y-96189161D01*
X86234971Y-96163454D01*
X86235179Y-95925029D01*
X86077942Y-95544485D01*
X85787046Y-95253081D01*
X85406777Y-95095180D01*
X84995029Y-95094821D01*
X84614485Y-95252058D01*
X84323081Y-95542954D01*
X84165180Y-95923223D01*
X84164821Y-96334971D01*
X40735000Y-96334971D01*
X40735000Y-94200020D01*
X76989825Y-94200020D01*
X77143264Y-94571372D01*
X77427134Y-94855737D01*
X77798217Y-95009824D01*
X78200020Y-95010175D01*
X78571372Y-94856736D01*
X78855737Y-94572866D01*
X79009824Y-94201783D01*
X79010175Y-93799980D01*
X78856736Y-93428628D01*
X78572866Y-93144263D01*
X78201783Y-92990176D01*
X77799980Y-92989825D01*
X77428628Y-93143264D01*
X77144263Y-93427134D01*
X76990176Y-93798217D01*
X76989825Y-94200020D01*
X40735000Y-94200020D01*
X40735000Y-90840000D01*
X42062560Y-90840000D01*
X42062560Y-93340000D01*
X42111843Y-93587765D01*
X42252191Y-93797809D01*
X42462235Y-93938157D01*
X42710000Y-93987440D01*
X45210000Y-93987440D01*
X45457765Y-93938157D01*
X45667809Y-93797809D01*
X45808157Y-93587765D01*
X45857440Y-93340000D01*
X45857440Y-91744971D01*
X84564821Y-91744971D01*
X84722058Y-92125515D01*
X85012954Y-92416919D01*
X85393223Y-92574820D01*
X85804971Y-92575179D01*
X86185515Y-92417942D01*
X86203488Y-92400000D01*
X86466239Y-92400000D01*
X86582954Y-92516919D01*
X86963223Y-92674820D01*
X87374971Y-92675179D01*
X87755515Y-92517942D01*
X88046919Y-92227046D01*
X88204820Y-91846777D01*
X88205179Y-91435029D01*
X88047942Y-91054485D01*
X87848776Y-90854971D01*
X95404821Y-90854971D01*
X95562058Y-91235515D01*
X95852954Y-91526919D01*
X96233223Y-91684820D01*
X96400164Y-91684966D01*
X96960000Y-92244802D01*
X96960000Y-92978877D01*
X96734485Y-93072058D01*
X96443081Y-93362954D01*
X96285180Y-93743223D01*
X96284821Y-94154971D01*
X96442058Y-94535515D01*
X96732954Y-94826919D01*
X97113223Y-94984820D01*
X97524971Y-94985179D01*
X97905515Y-94827942D01*
X98196919Y-94537046D01*
X98354820Y-94156777D01*
X98355008Y-93941322D01*
X98422148Y-93840840D01*
X98458286Y-93659161D01*
X98480000Y-93550000D01*
X98480000Y-92690000D01*
X106330000Y-92690000D01*
X106620839Y-92632148D01*
X106706385Y-92574988D01*
X106924971Y-92575179D01*
X107305515Y-92417942D01*
X107596919Y-92127046D01*
X107754820Y-91746777D01*
X107755179Y-91335029D01*
X107597942Y-90954485D01*
X107307046Y-90663081D01*
X106926777Y-90505180D01*
X106515029Y-90504821D01*
X106134485Y-90662058D01*
X105843081Y-90952954D01*
X105752956Y-91170000D01*
X103094965Y-91170000D01*
X103095179Y-90925029D01*
X102937942Y-90544485D01*
X102820000Y-90426337D01*
X102820000Y-86094971D01*
X109004821Y-86094971D01*
X109162058Y-86475515D01*
X109452954Y-86766919D01*
X109833223Y-86924820D01*
X110244971Y-86925179D01*
X110610637Y-86774090D01*
X110853223Y-86874820D01*
X111264971Y-86875179D01*
X111645515Y-86717942D01*
X111936919Y-86427046D01*
X112094820Y-86046777D01*
X112095179Y-85635029D01*
X111937942Y-85254485D01*
X111820000Y-85136337D01*
X111820000Y-85024802D01*
X112496981Y-84347821D01*
X112835515Y-84207942D01*
X113126919Y-83917046D01*
X113284820Y-83536777D01*
X113285179Y-83125029D01*
X113253459Y-83048261D01*
X113704965Y-83499767D01*
X113704821Y-83664971D01*
X113862058Y-84045515D01*
X114152954Y-84336919D01*
X114533223Y-84494820D01*
X114944971Y-84495179D01*
X115325515Y-84337942D01*
X115616919Y-84047046D01*
X115774820Y-83666777D01*
X115775179Y-83255029D01*
X115638673Y-82924657D01*
X115774820Y-82596777D01*
X115775179Y-82185029D01*
X115627472Y-81827549D01*
X115764820Y-81496777D01*
X115765179Y-81085029D01*
X115635731Y-80771741D01*
X115774820Y-80436777D01*
X115775031Y-80194952D01*
X116034971Y-80195179D01*
X116415515Y-80037942D01*
X116706919Y-79747046D01*
X116864820Y-79366777D01*
X116865179Y-78955029D01*
X116707942Y-78574485D01*
X116523712Y-78389933D01*
X116706919Y-78207046D01*
X116864820Y-77826777D01*
X116865179Y-77415029D01*
X116842819Y-77360913D01*
X116976919Y-77227046D01*
X117093982Y-76945126D01*
X117154971Y-76945179D01*
X117535515Y-76787942D01*
X117826919Y-76497046D01*
X117956478Y-76185032D01*
X118124971Y-76185179D01*
X118505515Y-76027942D01*
X118796919Y-75737046D01*
X118954820Y-75356777D01*
X118955179Y-74945029D01*
X118797942Y-74564485D01*
X118684192Y-74450537D01*
X118714820Y-74376777D01*
X118715179Y-73965029D01*
X118645142Y-73795526D01*
X118905515Y-73687942D01*
X119196919Y-73397046D01*
X119354820Y-73016777D01*
X119355179Y-72605029D01*
X119197942Y-72224485D01*
X118907046Y-71933081D01*
X118526777Y-71775180D01*
X118115029Y-71774821D01*
X118075823Y-71791021D01*
X117775035Y-71490233D01*
X117775179Y-71325029D01*
X117617942Y-70944485D01*
X117327046Y-70653081D01*
X116946777Y-70495180D01*
X116535029Y-70494821D01*
X116154485Y-70652058D01*
X115863081Y-70942954D01*
X115705180Y-71323223D01*
X115704821Y-71734971D01*
X115862058Y-72115515D01*
X116152954Y-72406919D01*
X116533223Y-72564820D01*
X116700164Y-72564966D01*
X117329960Y-73194762D01*
X117094485Y-73292058D01*
X116803081Y-73582954D01*
X116704651Y-73820000D01*
X115104802Y-73820000D01*
X114557401Y-73272599D01*
X114310839Y-73107852D01*
X114020000Y-73050000D01*
X113270000Y-73050000D01*
X112979161Y-73107852D01*
X112732599Y-73272599D01*
X112525198Y-73480000D01*
X111433761Y-73480000D01*
X111317046Y-73363081D01*
X110936777Y-73205180D01*
X110525029Y-73204821D01*
X110144485Y-73362058D01*
X109853081Y-73652954D01*
X109695180Y-74033223D01*
X109694821Y-74444971D01*
X109852058Y-74825515D01*
X110142954Y-75116919D01*
X110523223Y-75274820D01*
X110934971Y-75275179D01*
X111315515Y-75117942D01*
X111433663Y-75000000D01*
X111963889Y-75000000D01*
X111925180Y-75093223D01*
X111925128Y-75152627D01*
X111684485Y-75252058D01*
X111393081Y-75542954D01*
X111265894Y-75849255D01*
X110944485Y-75982058D01*
X110653081Y-76272954D01*
X110495180Y-76653223D01*
X110494821Y-77064971D01*
X110652058Y-77445515D01*
X110746384Y-77540006D01*
X110543081Y-77742954D01*
X110385180Y-78123223D01*
X110384821Y-78534971D01*
X110542058Y-78915515D01*
X110741262Y-79115067D01*
X110573081Y-79282954D01*
X110415180Y-79663223D01*
X110414821Y-80074971D01*
X110572058Y-80455515D01*
X110671401Y-80555032D01*
X110443081Y-80782954D01*
X110285180Y-81163223D01*
X110284821Y-81574971D01*
X110442058Y-81955515D01*
X110732954Y-82246919D01*
X110994714Y-82355611D01*
X110664485Y-82492058D01*
X110373081Y-82782954D01*
X110215180Y-83163223D01*
X110215034Y-83330164D01*
X109502599Y-84042599D01*
X109337852Y-84289161D01*
X109280000Y-84580000D01*
X109280000Y-85186239D01*
X109163081Y-85302954D01*
X109005180Y-85683223D01*
X109004821Y-86094971D01*
X102820000Y-86094971D01*
X102820000Y-84783813D01*
X102906919Y-84697046D01*
X103064820Y-84316777D01*
X103065179Y-83905029D01*
X102907942Y-83524485D01*
X102617046Y-83233081D01*
X102236777Y-83075180D01*
X101825029Y-83074821D01*
X101444485Y-83232058D01*
X101153081Y-83522954D01*
X100995180Y-83903223D01*
X100994821Y-84314971D01*
X101152058Y-84695515D01*
X101300000Y-84843715D01*
X101300000Y-90426239D01*
X101183081Y-90542954D01*
X101025180Y-90923223D01*
X101024965Y-91170000D01*
X98034802Y-91170000D01*
X97475035Y-90610233D01*
X97475179Y-90445029D01*
X97317942Y-90064485D01*
X97027046Y-89773081D01*
X96646777Y-89615180D01*
X96235029Y-89614821D01*
X95854485Y-89772058D01*
X95563081Y-90062954D01*
X95405180Y-90443223D01*
X95404821Y-90854971D01*
X87848776Y-90854971D01*
X87757046Y-90763081D01*
X87376777Y-90605180D01*
X86965029Y-90604821D01*
X86584485Y-90762058D01*
X86466337Y-90880000D01*
X86403587Y-90880000D01*
X86187046Y-90663081D01*
X85806777Y-90505180D01*
X85395029Y-90504821D01*
X85014485Y-90662058D01*
X84723081Y-90952954D01*
X84565180Y-91333223D01*
X84564821Y-91744971D01*
X45857440Y-91744971D01*
X45857440Y-90840000D01*
X45808157Y-90592235D01*
X45667809Y-90382191D01*
X45457765Y-90241843D01*
X45210000Y-90192560D01*
X42710000Y-90192560D01*
X42462235Y-90241843D01*
X42252191Y-90382191D01*
X42111843Y-90592235D01*
X42062560Y-90840000D01*
X40735000Y-90840000D01*
X40735000Y-87923320D01*
X42806285Y-87923320D01*
X42935533Y-88216123D01*
X43635806Y-88484388D01*
X44385435Y-88464250D01*
X44984467Y-88216123D01*
X45113715Y-87923320D01*
X43960000Y-86769605D01*
X42806285Y-87923320D01*
X40735000Y-87923320D01*
X40735000Y-86265806D01*
X42065612Y-86265806D01*
X42085750Y-87015435D01*
X42333877Y-87614467D01*
X42626680Y-87743715D01*
X43780395Y-86590000D01*
X44139605Y-86590000D01*
X45293320Y-87743715D01*
X45586123Y-87614467D01*
X45854388Y-86914194D01*
X45834250Y-86164565D01*
X45586123Y-85565533D01*
X45293320Y-85436285D01*
X44139605Y-86590000D01*
X43780395Y-86590000D01*
X42626680Y-85436285D01*
X42333877Y-85565533D01*
X42065612Y-86265806D01*
X40735000Y-86265806D01*
X40735000Y-85256680D01*
X42806285Y-85256680D01*
X43960000Y-86410395D01*
X45113715Y-85256680D01*
X44984467Y-84963877D01*
X44284194Y-84695612D01*
X43534565Y-84715750D01*
X42935533Y-84963877D01*
X42806285Y-85256680D01*
X40735000Y-85256680D01*
X40735000Y-64278521D01*
X43574604Y-64278521D01*
X43921742Y-65118658D01*
X44563961Y-65761999D01*
X45403491Y-66110603D01*
X46312521Y-66111396D01*
X47152658Y-65764258D01*
X47795999Y-65122039D01*
X48144603Y-64282509D01*
X48145396Y-63373479D01*
X48034837Y-63105906D01*
X48361637Y-63433278D01*
X48362323Y-63433563D01*
X50313761Y-65385000D01*
X49847928Y-65385000D01*
X49375314Y-65479009D01*
X48974651Y-65746723D01*
X48706937Y-66147386D01*
X48656490Y-66401000D01*
X48069928Y-66401000D01*
X47597314Y-66495009D01*
X47196651Y-66762723D01*
X46928937Y-67163386D01*
X46834928Y-67636000D01*
X46928937Y-68108614D01*
X47196651Y-68509277D01*
X47410251Y-68652000D01*
X47196651Y-68794723D01*
X46928937Y-69195386D01*
X46834928Y-69668000D01*
X46928937Y-70140614D01*
X47196651Y-70541277D01*
X47410251Y-70684000D01*
X47196651Y-70826723D01*
X46928937Y-71227386D01*
X46834928Y-71700000D01*
X46928937Y-72172614D01*
X47196651Y-72573277D01*
X47410251Y-72716000D01*
X47196651Y-72858723D01*
X46928937Y-73259386D01*
X46834928Y-73732000D01*
X46928937Y-74204614D01*
X47196651Y-74605277D01*
X47597314Y-74872991D01*
X48069928Y-74967000D01*
X48730072Y-74967000D01*
X49202686Y-74872991D01*
X49603349Y-74605277D01*
X49871063Y-74204614D01*
X49921510Y-73951000D01*
X50508072Y-73951000D01*
X50835000Y-73885970D01*
X50835000Y-74445761D01*
X48133317Y-77147443D01*
X48035620Y-77244970D01*
X48144603Y-76982509D01*
X48145396Y-76073479D01*
X47798258Y-75233342D01*
X47156039Y-74590001D01*
X46316509Y-74241397D01*
X45407479Y-74240604D01*
X44567342Y-74587742D01*
X43924001Y-75229961D01*
X43575397Y-76069491D01*
X43574604Y-76978521D01*
X43921742Y-77818658D01*
X44563961Y-78461999D01*
X45403491Y-78810603D01*
X46312521Y-78811396D01*
X47152658Y-78464258D01*
X47664103Y-77953705D01*
X47654284Y-77977352D01*
X47653716Y-78627795D01*
X47902106Y-79228943D01*
X48361637Y-79689278D01*
X48962352Y-79938716D01*
X49612795Y-79939284D01*
X50213943Y-79690894D01*
X50674278Y-79231363D01*
X50674563Y-79230677D01*
X53626117Y-76279122D01*
X53626120Y-76279120D01*
X53980543Y-75748687D01*
X54105000Y-75123000D01*
X54105000Y-73254971D01*
X54414821Y-73254971D01*
X54565000Y-73618433D01*
X54565000Y-85399995D01*
X54564999Y-85400000D01*
X54607658Y-85614457D01*
X54632367Y-85738675D01*
X54730018Y-85884821D01*
X54824210Y-86025790D01*
X55922869Y-87124448D01*
X56072058Y-87485515D01*
X56362954Y-87776919D01*
X56743223Y-87934820D01*
X57154971Y-87935179D01*
X57535515Y-87777942D01*
X57826919Y-87487046D01*
X57977265Y-87124971D01*
X88394821Y-87124971D01*
X88552058Y-87505515D01*
X88842954Y-87796919D01*
X89223223Y-87954820D01*
X89634971Y-87955179D01*
X89685153Y-87934444D01*
X89684821Y-88314971D01*
X89842058Y-88695515D01*
X90132954Y-88986919D01*
X90513223Y-89144820D01*
X90924971Y-89145179D01*
X91305515Y-88987942D01*
X91423663Y-88870000D01*
X91590000Y-88870000D01*
X91880839Y-88812148D01*
X92127401Y-88647401D01*
X92999767Y-87775035D01*
X93164971Y-87775179D01*
X93545515Y-87617942D01*
X93836919Y-87327046D01*
X93994820Y-86946777D01*
X93995179Y-86535029D01*
X93837942Y-86154485D01*
X93652614Y-85968834D01*
X93744820Y-85746777D01*
X93745179Y-85335029D01*
X93587942Y-84954485D01*
X93297046Y-84663081D01*
X92916777Y-84505180D01*
X92505029Y-84504821D01*
X92124485Y-84662058D01*
X91833081Y-84952954D01*
X91675180Y-85333223D01*
X91675034Y-85500164D01*
X91015198Y-86160000D01*
X90133761Y-86160000D01*
X90017046Y-86043081D01*
X89636777Y-85885180D01*
X89225029Y-85884821D01*
X88844485Y-86042058D01*
X88553081Y-86332954D01*
X88395180Y-86713223D01*
X88394821Y-87124971D01*
X57977265Y-87124971D01*
X57984820Y-87106777D01*
X57985057Y-86835000D01*
X61132415Y-86835000D01*
X61493223Y-86984820D01*
X61904971Y-86985179D01*
X62285515Y-86827942D01*
X62576919Y-86537046D01*
X62734820Y-86156777D01*
X62735179Y-85745029D01*
X62577942Y-85364485D01*
X62287046Y-85073081D01*
X61906777Y-84915180D01*
X61495029Y-84914821D01*
X61131567Y-85065000D01*
X58116579Y-85065000D01*
X57335000Y-84283420D01*
X57335000Y-83684971D01*
X83424821Y-83684971D01*
X83582058Y-84065515D01*
X83872954Y-84356919D01*
X84253223Y-84514820D01*
X84664971Y-84515179D01*
X85045515Y-84357942D01*
X85164574Y-84239090D01*
X85450839Y-84182148D01*
X85697401Y-84017401D01*
X86799767Y-82915035D01*
X86964971Y-82915179D01*
X87345515Y-82757942D01*
X87636919Y-82467046D01*
X87794820Y-82086777D01*
X87795179Y-81675029D01*
X87637942Y-81294485D01*
X87347046Y-81003081D01*
X86966777Y-80845180D01*
X86555029Y-80844821D01*
X86174485Y-81002058D01*
X85883081Y-81292954D01*
X85725180Y-81673223D01*
X85725034Y-81840164D01*
X84987035Y-82578163D01*
X84666777Y-82445180D01*
X84255029Y-82444821D01*
X83874485Y-82602058D01*
X83583081Y-82892954D01*
X83425180Y-83273223D01*
X83424821Y-83684971D01*
X57335000Y-83684971D01*
X57335000Y-78804971D01*
X94634821Y-78804971D01*
X94792058Y-79185515D01*
X95082954Y-79476919D01*
X95463223Y-79634820D01*
X95874971Y-79635179D01*
X96255515Y-79477942D01*
X96373663Y-79360000D01*
X96736152Y-79360000D01*
X96802954Y-79426919D01*
X97183223Y-79584820D01*
X97594971Y-79585179D01*
X97975515Y-79427942D01*
X98266919Y-79137046D01*
X98424820Y-78756777D01*
X98425179Y-78345029D01*
X98267942Y-77964485D01*
X97977046Y-77673081D01*
X97596777Y-77515180D01*
X97185029Y-77514821D01*
X96804485Y-77672058D01*
X96636250Y-77840000D01*
X96373761Y-77840000D01*
X96257046Y-77723081D01*
X95876777Y-77565180D01*
X95465029Y-77564821D01*
X95084485Y-77722058D01*
X94793081Y-78012954D01*
X94635180Y-78393223D01*
X94634821Y-78804971D01*
X57335000Y-78804971D01*
X57335000Y-75704971D01*
X58114821Y-75704971D01*
X58272058Y-76085515D01*
X58562954Y-76376919D01*
X58943223Y-76534820D01*
X59354971Y-76535179D01*
X59718433Y-76385000D01*
X62082415Y-76385000D01*
X62443223Y-76534820D01*
X62854971Y-76535179D01*
X63218433Y-76385000D01*
X64883420Y-76385000D01*
X65122869Y-76624448D01*
X65272058Y-76985515D01*
X65562954Y-77276919D01*
X65926152Y-77427731D01*
X66624208Y-78125787D01*
X66624210Y-78125790D01*
X66911325Y-78317633D01*
X66938714Y-78323081D01*
X67250000Y-78385001D01*
X67250005Y-78385000D01*
X70282415Y-78385000D01*
X70643223Y-78534820D01*
X71054971Y-78535179D01*
X71435515Y-78377942D01*
X71726919Y-78087046D01*
X71884820Y-77706777D01*
X71885179Y-77295029D01*
X71727942Y-76914485D01*
X71437046Y-76623081D01*
X71056777Y-76465180D01*
X70645029Y-76464821D01*
X70281567Y-76615000D01*
X67616579Y-76615000D01*
X67276551Y-76274971D01*
X77164821Y-76274971D01*
X77322058Y-76655515D01*
X77612954Y-76946919D01*
X77993223Y-77104820D01*
X78404971Y-77105179D01*
X78785515Y-76947942D01*
X79076919Y-76657046D01*
X79189939Y-76384863D01*
X83327401Y-72247401D01*
X83492148Y-72000839D01*
X83550000Y-71710000D01*
X83550000Y-71533761D01*
X83666919Y-71417046D01*
X83824820Y-71036777D01*
X83825179Y-70625029D01*
X83667942Y-70244485D01*
X83377046Y-69953081D01*
X82996777Y-69795180D01*
X82585029Y-69794821D01*
X82204485Y-69952058D01*
X81913081Y-70242954D01*
X81755180Y-70623223D01*
X81754821Y-71034971D01*
X81912058Y-71415515D01*
X81960828Y-71464370D01*
X78390033Y-75035165D01*
X77995029Y-75034821D01*
X77614485Y-75192058D01*
X77323081Y-75482954D01*
X77165180Y-75863223D01*
X77164821Y-76274971D01*
X67276551Y-76274971D01*
X67177131Y-76175551D01*
X67027942Y-75814485D01*
X66737046Y-75523081D01*
X66373848Y-75372268D01*
X65875790Y-74874210D01*
X65838300Y-74849160D01*
X65588675Y-74682367D01*
X65532484Y-74671190D01*
X65250000Y-74614999D01*
X65249995Y-74615000D01*
X63217585Y-74615000D01*
X62856777Y-74465180D01*
X62445029Y-74464821D01*
X62081567Y-74615000D01*
X59717585Y-74615000D01*
X59356777Y-74465180D01*
X58945029Y-74464821D01*
X58564485Y-74622058D01*
X58273081Y-74912954D01*
X58115180Y-75293223D01*
X58114821Y-75704971D01*
X57335000Y-75704971D01*
X57335000Y-72350005D01*
X57335001Y-72350000D01*
X57267633Y-72011325D01*
X57075790Y-71724210D01*
X57075787Y-71724208D01*
X56435000Y-71083420D01*
X56435000Y-66417585D01*
X56584820Y-66056777D01*
X56585179Y-65645029D01*
X56427942Y-65264485D01*
X56137046Y-64973081D01*
X55756777Y-64815180D01*
X55345029Y-64814821D01*
X54964485Y-64972058D01*
X54673081Y-65262954D01*
X54515180Y-65643223D01*
X54514821Y-66054971D01*
X54665000Y-66418433D01*
X54665000Y-71449995D01*
X54664999Y-71450000D01*
X54714728Y-71700000D01*
X54732367Y-71788675D01*
X54874130Y-72000839D01*
X54924210Y-72075790D01*
X54974869Y-72126449D01*
X54864485Y-72172058D01*
X54573081Y-72462954D01*
X54415180Y-72843223D01*
X54414821Y-73254971D01*
X54105000Y-73254971D01*
X54105000Y-65229000D01*
X53980543Y-64603313D01*
X53626120Y-64072880D01*
X53626117Y-64072878D01*
X51883240Y-62330000D01*
X78984999Y-62330000D01*
X78985000Y-62330005D01*
X78985000Y-63689995D01*
X78984999Y-63690000D01*
X79041190Y-63972484D01*
X79052367Y-64028675D01*
X79233660Y-64300000D01*
X79244210Y-64315790D01*
X82922869Y-67994448D01*
X83072058Y-68355515D01*
X83362954Y-68646919D01*
X83743223Y-68804820D01*
X84154971Y-68805179D01*
X84270000Y-68757650D01*
X84270000Y-69080000D01*
X84327852Y-69370839D01*
X84454981Y-69561102D01*
X84454821Y-69744971D01*
X84612058Y-70125515D01*
X84902954Y-70416919D01*
X85283223Y-70574820D01*
X85694971Y-70575179D01*
X86075515Y-70417942D01*
X86366919Y-70127046D01*
X86524820Y-69746777D01*
X86525179Y-69335029D01*
X86397447Y-69025892D01*
X86755515Y-68877942D01*
X87046919Y-68587046D01*
X87204820Y-68206777D01*
X87204978Y-68024971D01*
X103514821Y-68024971D01*
X103672058Y-68405515D01*
X103790000Y-68523663D01*
X103790000Y-71136187D01*
X103703081Y-71222954D01*
X103545180Y-71603223D01*
X103544821Y-72014971D01*
X103702058Y-72395515D01*
X103992954Y-72686919D01*
X104373223Y-72844820D01*
X104784971Y-72845179D01*
X105165515Y-72687942D01*
X105456919Y-72397046D01*
X105578198Y-72104971D01*
X106084821Y-72104971D01*
X106242058Y-72485515D01*
X106532954Y-72776919D01*
X106913223Y-72934820D01*
X107324971Y-72935179D01*
X107705515Y-72777942D01*
X107996919Y-72487046D01*
X108154820Y-72106777D01*
X108154966Y-71939836D01*
X108757401Y-71337401D01*
X108922148Y-71090839D01*
X108980000Y-70800000D01*
X108980000Y-70203761D01*
X109096919Y-70087046D01*
X109254820Y-69706777D01*
X109254998Y-69502467D01*
X109317233Y-69653086D01*
X109636235Y-69972645D01*
X110053244Y-70145803D01*
X110504775Y-70146197D01*
X110922086Y-69973767D01*
X111241645Y-69654765D01*
X111414803Y-69237756D01*
X111415197Y-68786225D01*
X111242767Y-68368914D01*
X111093888Y-68219775D01*
X114224803Y-68219775D01*
X114397233Y-68637086D01*
X114716235Y-68956645D01*
X115133244Y-69129803D01*
X115584775Y-69130197D01*
X116002086Y-68957767D01*
X116321645Y-68638765D01*
X116494803Y-68221756D01*
X116495197Y-67770225D01*
X116322767Y-67352914D01*
X116003765Y-67033355D01*
X115586756Y-66860197D01*
X115135225Y-66859803D01*
X114717914Y-67032233D01*
X114398355Y-67351235D01*
X114225197Y-67768244D01*
X114224803Y-68219775D01*
X111093888Y-68219775D01*
X110923765Y-68049355D01*
X110793058Y-67995080D01*
X110922086Y-67941767D01*
X111241645Y-67622765D01*
X111414803Y-67205756D01*
X111415197Y-66754225D01*
X111242767Y-66336914D01*
X110923765Y-66017355D01*
X110506756Y-65844197D01*
X110055225Y-65843803D01*
X109637914Y-66016233D01*
X109318355Y-66335235D01*
X109145197Y-66752244D01*
X109144803Y-67203775D01*
X109317233Y-67621086D01*
X109636235Y-67940645D01*
X109766942Y-67994920D01*
X109637914Y-68048233D01*
X109318355Y-68367235D01*
X109145197Y-68784244D01*
X109144984Y-69028336D01*
X109097942Y-68914485D01*
X108807046Y-68623081D01*
X108426777Y-68465180D01*
X108015029Y-68464821D01*
X107634485Y-68622058D01*
X107343081Y-68912954D01*
X107185180Y-69293223D01*
X107184821Y-69704971D01*
X107342058Y-70085515D01*
X107460000Y-70203663D01*
X107460000Y-70485198D01*
X107080233Y-70864965D01*
X106915029Y-70864821D01*
X106534485Y-71022058D01*
X106243081Y-71312954D01*
X106085180Y-71693223D01*
X106084821Y-72104971D01*
X105578198Y-72104971D01*
X105614820Y-72016777D01*
X105615179Y-71605029D01*
X105457942Y-71224485D01*
X105310000Y-71076285D01*
X105310000Y-68523761D01*
X105426919Y-68407046D01*
X105584820Y-68026777D01*
X105585179Y-67615029D01*
X105427942Y-67234485D01*
X105137046Y-66943081D01*
X104756777Y-66785180D01*
X104345029Y-66784821D01*
X103964485Y-66942058D01*
X103673081Y-67232954D01*
X103515180Y-67613223D01*
X103514821Y-68024971D01*
X87204978Y-68024971D01*
X87205179Y-67795029D01*
X87047942Y-67414485D01*
X86757046Y-67123081D01*
X86376777Y-66965180D01*
X85965029Y-66964821D01*
X85855687Y-67010000D01*
X84653761Y-67010000D01*
X84537046Y-66893081D01*
X84173847Y-66742268D01*
X80755000Y-63323420D01*
X80755000Y-62908491D01*
X81026919Y-62637046D01*
X81184820Y-62256777D01*
X81185179Y-61845029D01*
X81027942Y-61464485D01*
X80737046Y-61173081D01*
X80356777Y-61015180D01*
X79945029Y-61014821D01*
X79564485Y-61172058D01*
X79273081Y-61462954D01*
X79115180Y-61843223D01*
X79115133Y-61897389D01*
X79052367Y-61991325D01*
X79041190Y-62047516D01*
X78984999Y-62330000D01*
X51883240Y-62330000D01*
X50445557Y-60892317D01*
X50216363Y-60662722D01*
X49615648Y-60413284D01*
X48965205Y-60412716D01*
X48364057Y-60661106D01*
X47903722Y-61120637D01*
X47654284Y-61721352D01*
X47653716Y-62371795D01*
X47665527Y-62400379D01*
X47156039Y-61890001D01*
X46316509Y-61541397D01*
X45407479Y-61540604D01*
X44567342Y-61887742D01*
X43924001Y-62529961D01*
X43575397Y-63369491D01*
X43574604Y-64278521D01*
X40735000Y-64278521D01*
X40735000Y-55182200D01*
X41012509Y-55127000D01*
X51010811Y-55127000D01*
X50925180Y-55333223D01*
X50925180Y-55333223D01*
G37*
X50925180Y-55333223D02*
X50924821Y-55744971D01*
X51082058Y-56125515D01*
X51372954Y-56416919D01*
X51753223Y-56574820D01*
X52164971Y-56575179D01*
X52545515Y-56417942D01*
X52836919Y-56127046D01*
X52852302Y-56090000D01*
X57965026Y-56090000D01*
X57964821Y-56324971D01*
X58122058Y-56705515D01*
X58412954Y-56996919D01*
X58793223Y-57154820D01*
X59204971Y-57155179D01*
X59585515Y-56997942D01*
X59876919Y-56707046D01*
X59942130Y-56550000D01*
X65075026Y-56550000D01*
X65074821Y-56784971D01*
X65232058Y-57165515D01*
X65522954Y-57456919D01*
X65903223Y-57614820D01*
X66314971Y-57615179D01*
X66695515Y-57457942D01*
X66986919Y-57167046D01*
X67043825Y-57030000D01*
X71875000Y-57030000D01*
X71874821Y-57234971D01*
X72032058Y-57615515D01*
X72322954Y-57906919D01*
X72703223Y-58064820D01*
X73114971Y-58065179D01*
X73495515Y-57907942D01*
X73786919Y-57617046D01*
X73835521Y-57500000D01*
X92595198Y-57500000D01*
X93210000Y-58114802D01*
X93210000Y-65990000D01*
X93267852Y-66280839D01*
X93432599Y-66527401D01*
X93725138Y-66819940D01*
X93872058Y-67175515D01*
X94162954Y-67466919D01*
X94543223Y-67624820D01*
X94954971Y-67625179D01*
X95335515Y-67467942D01*
X95626919Y-67177046D01*
X95784820Y-66796777D01*
X95785039Y-66545031D01*
X95954971Y-66545179D01*
X96306130Y-66400083D01*
X96312954Y-66406919D01*
X96693223Y-66564820D01*
X97104971Y-66565179D01*
X97432377Y-66429898D01*
X97733223Y-66554820D01*
X98144971Y-66555179D01*
X98477389Y-66417827D01*
X98708459Y-66513775D01*
X98862058Y-66885515D01*
X99152954Y-67176919D01*
X99533223Y-67334820D01*
X99944971Y-67335179D01*
X100325515Y-67177942D01*
X100616919Y-66887046D01*
X100766226Y-66527473D01*
X101020380Y-66422460D01*
X101363223Y-66564820D01*
X101774971Y-66565179D01*
X102155515Y-66407942D01*
X102446919Y-66117046D01*
X102604820Y-65736777D01*
X102605179Y-65325029D01*
X102447942Y-64944485D01*
X102330000Y-64826337D01*
X102330000Y-62832881D01*
X102394820Y-62676777D01*
X102395179Y-62265029D01*
X102237942Y-61884485D01*
X101947046Y-61593081D01*
X101566777Y-61435180D01*
X101155029Y-61434821D01*
X100774485Y-61592058D01*
X100715169Y-61651271D01*
X100677046Y-61613081D01*
X100296777Y-61455180D01*
X99885029Y-61454821D01*
X99504485Y-61612058D01*
X99490230Y-61626288D01*
X99477046Y-61613081D01*
X99096777Y-61455180D01*
X98685029Y-61454821D01*
X98355084Y-61591151D01*
X98337046Y-61573081D01*
X97956777Y-61415180D01*
X97545029Y-61414821D01*
X97164485Y-61572058D01*
X97133156Y-61603333D01*
X96896777Y-61505180D01*
X96485029Y-61504821D01*
X96460000Y-61515163D01*
X96460000Y-57110000D01*
X96402148Y-56819161D01*
X96237401Y-56572599D01*
X95299802Y-55635000D01*
X101623573Y-55635000D01*
X101948795Y-55635284D01*
X101949482Y-55635000D01*
X108623573Y-55635000D01*
X108948795Y-55635284D01*
X108949482Y-55635000D01*
X115623573Y-55635000D01*
X115948795Y-55635284D01*
X115949482Y-55635000D01*
X120697760Y-55635000D01*
X124865000Y-59802239D01*
X124865000Y-66123574D01*
X124864716Y-66448795D01*
X124865000Y-66449482D01*
X124865000Y-73123574D01*
X124864716Y-73448795D01*
X124865000Y-73449482D01*
X124865000Y-80123574D01*
X124864716Y-80448795D01*
X124865000Y-80449482D01*
X124865000Y-87123574D01*
X124864716Y-87448795D01*
X124865000Y-87449482D01*
X124865000Y-94123574D01*
X124864716Y-94448795D01*
X124865000Y-94449482D01*
X124865000Y-101123574D01*
X124864716Y-101448795D01*
X124865000Y-101449482D01*
X124865000Y-108123574D01*
X124864716Y-108448795D01*
X124865000Y-108449482D01*
X124865000Y-115123574D01*
X124864716Y-115448795D01*
X124865000Y-115449482D01*
X124865000Y-121447761D01*
X121447760Y-124865000D01*
X114876426Y-124865000D01*
X114551205Y-124864716D01*
X114550518Y-124865000D01*
X107876426Y-124865000D01*
X107551205Y-124864716D01*
X107550518Y-124865000D01*
X102024987Y-124865000D01*
X102025179Y-124645029D01*
X101867942Y-124264485D01*
X101739242Y-124135560D01*
X104759767Y-121115035D01*
X104924971Y-121115179D01*
X105305515Y-120957942D01*
X105596919Y-120667046D01*
X105754820Y-120286777D01*
X105755179Y-119875029D01*
X105597942Y-119494485D01*
X105307046Y-119203081D01*
X104926777Y-119045180D01*
X104515029Y-119044821D01*
X104157549Y-119192528D01*
X103826777Y-119055180D01*
X103415029Y-119054821D01*
X103034485Y-119212058D01*
X103019704Y-119226813D01*
X102726777Y-119105180D01*
X102315029Y-119104821D01*
X102065062Y-119208105D01*
X101696777Y-119055180D01*
X101285029Y-119054821D01*
X100978799Y-119181352D01*
X100935015Y-119163171D01*
X100935179Y-118975029D01*
X100787472Y-118617549D01*
X100924820Y-118286777D01*
X100925179Y-117875029D01*
X100767942Y-117494485D01*
X100477046Y-117203081D01*
X100096777Y-117045180D01*
X99685029Y-117044821D01*
X99304485Y-117202058D01*
X99013081Y-117492954D01*
X98855180Y-117873223D01*
X98855034Y-118040164D01*
X98562599Y-118332599D01*
X98397852Y-118579161D01*
X98340000Y-118870000D01*
X98340000Y-119115197D01*
X96905198Y-120550000D01*
X96853761Y-120550000D01*
X96737046Y-120433081D01*
X96356777Y-120275180D01*
X95945029Y-120274821D01*
X95564485Y-120432058D01*
X95273081Y-120722954D01*
X95115180Y-121103223D01*
X95114821Y-121514971D01*
X95116899Y-121520000D01*
X88410463Y-121520000D01*
X88337942Y-121344485D01*
X88047046Y-121053081D01*
X87666777Y-120895180D01*
X87255029Y-120894821D01*
X86874485Y-121052058D01*
X86583081Y-121342954D01*
X86425180Y-121723223D01*
X86424947Y-121990000D01*
X81279144Y-121990000D01*
X81247942Y-121914485D01*
X80957046Y-121623081D01*
X80576777Y-121465180D01*
X80165029Y-121464821D01*
X79784485Y-121622058D01*
X79493081Y-121912954D01*
X79335180Y-122293223D01*
X79335017Y-122480000D01*
X74325018Y-122480000D01*
X74325179Y-122295029D01*
X74167942Y-121914485D01*
X73877046Y-121623081D01*
X73496777Y-121465180D01*
X73085029Y-121464821D01*
X72704485Y-121622058D01*
X72413081Y-121912954D01*
X72255180Y-122293223D01*
X72254821Y-122704971D01*
X72360196Y-122960000D01*
X67396872Y-122960000D01*
X67414820Y-122916777D01*
X67415179Y-122505029D01*
X67257942Y-122124485D01*
X66967046Y-121833081D01*
X66586777Y-121675180D01*
X66175029Y-121674821D01*
X65794485Y-121832058D01*
X65503081Y-122122954D01*
X65345180Y-122503223D01*
X65344821Y-122914971D01*
X65502058Y-123295515D01*
X65585861Y-123379464D01*
X65597902Y-123440000D01*
X60754802Y-123440000D01*
X60719325Y-123404523D01*
X60786919Y-123337046D01*
X60944820Y-122956777D01*
X60945179Y-122545029D01*
X60787942Y-122164485D01*
X60497046Y-121873081D01*
X60116777Y-121715180D01*
X59705029Y-121714821D01*
X59324485Y-121872058D01*
X59033081Y-122162954D01*
X58875180Y-122543223D01*
X58874821Y-122954971D01*
X59032058Y-123335515D01*
X59170000Y-123473698D01*
X59170000Y-123690000D01*
X59215750Y-123920000D01*
X53424802Y-123920000D01*
X52900000Y-123395198D01*
X52900000Y-123243796D01*
X52996919Y-123147046D01*
X53154820Y-122766777D01*
X53155179Y-122355029D01*
X52997942Y-121974485D01*
X52707046Y-121683081D01*
X52326777Y-121525180D01*
X51915029Y-121524821D01*
X51534485Y-121682058D01*
X51243081Y-121972954D01*
X51202994Y-122069494D01*
X50937046Y-121803081D01*
X50556777Y-121645180D01*
X50145029Y-121644821D01*
X49764485Y-121802058D01*
X49473081Y-122092954D01*
X49315180Y-122473223D01*
X49314821Y-122884971D01*
X49472058Y-123265515D01*
X49762954Y-123556919D01*
X50143223Y-123714820D01*
X50310164Y-123714966D01*
X51468198Y-124873000D01*
X41012509Y-124873000D01*
X40735000Y-124817800D01*
X40735000Y-117824579D01*
X40824786Y-117824579D01*
X41012408Y-118278657D01*
X41359515Y-118626371D01*
X41813266Y-118814785D01*
X42304579Y-118815214D01*
X42325238Y-118806678D01*
X42324752Y-119364187D01*
X42542757Y-119891800D01*
X42730603Y-120079974D01*
X42544176Y-120266077D01*
X42325250Y-120793309D01*
X42324752Y-121364187D01*
X42542757Y-121891800D01*
X42946077Y-122295824D01*
X43473309Y-122514750D01*
X44044187Y-122515248D01*
X44571800Y-122297243D01*
X44975824Y-121893923D01*
X45194750Y-121366691D01*
X45195248Y-120795813D01*
X44977243Y-120268200D01*
X44789397Y-120080026D01*
X44975824Y-119893923D01*
X45194750Y-119366691D01*
X45195248Y-118795813D01*
X44977243Y-118268200D01*
X44573923Y-117864176D01*
X44046691Y-117645250D01*
X43475813Y-117644752D01*
X43294879Y-117719512D01*
X43295214Y-117335421D01*
X43107592Y-116881343D01*
X42760485Y-116533629D01*
X42306734Y-116345215D01*
X41815421Y-116344786D01*
X41361343Y-116532408D01*
X41013629Y-116879515D01*
X40825215Y-117333266D01*
X40824786Y-117824579D01*
X40735000Y-117824579D01*
X40735000Y-110824579D01*
X40824786Y-110824579D01*
X41012408Y-111278657D01*
X41359515Y-111626371D01*
X41813266Y-111814785D01*
X42304579Y-111815214D01*
X42325238Y-111806678D01*
X42324752Y-112364187D01*
X42542757Y-112891800D01*
X42730603Y-113079974D01*
X42544176Y-113266077D01*
X42325250Y-113793309D01*
X42324752Y-114364187D01*
X42542757Y-114891800D01*
X42946077Y-115295824D01*
X43473309Y-115514750D01*
X44044187Y-115515248D01*
X44571800Y-115297243D01*
X44975824Y-114893923D01*
X45194750Y-114366691D01*
X45195248Y-113795813D01*
X44977243Y-113268200D01*
X44789397Y-113080026D01*
X44975824Y-112893923D01*
X45194750Y-112366691D01*
X45195248Y-111795813D01*
X44977243Y-111268200D01*
X44573923Y-110864176D01*
X44046691Y-110645250D01*
X43475813Y-110644752D01*
X43294879Y-110719512D01*
X43295214Y-110335421D01*
X43107592Y-109881343D01*
X42760485Y-109533629D01*
X42306734Y-109345215D01*
X41815421Y-109344786D01*
X41361343Y-109532408D01*
X41013629Y-109879515D01*
X40825215Y-110333266D01*
X40824786Y-110824579D01*
X40735000Y-110824579D01*
X40735000Y-108274971D01*
X70624821Y-108274971D01*
X70782058Y-108655515D01*
X70900000Y-108773663D01*
X70900000Y-112560000D01*
X70957852Y-112850839D01*
X71122599Y-113097401D01*
X73114965Y-115089767D01*
X73114821Y-115254971D01*
X73272058Y-115635515D01*
X73562954Y-115926919D01*
X73943223Y-116084820D01*
X74354971Y-116085179D01*
X74735515Y-115927942D01*
X75026919Y-115637046D01*
X75184820Y-115256777D01*
X75185179Y-114845029D01*
X75027942Y-114464485D01*
X74737046Y-114173081D01*
X74356777Y-114015180D01*
X74189836Y-114015034D01*
X72420000Y-112245198D01*
X72420000Y-111684971D01*
X82764821Y-111684971D01*
X82922058Y-112065515D01*
X83212954Y-112356919D01*
X83593223Y-112514820D01*
X84004971Y-112515179D01*
X84356332Y-112370000D01*
X86776239Y-112370000D01*
X86892954Y-112486919D01*
X87273223Y-112644820D01*
X87684971Y-112645179D01*
X88065515Y-112487942D01*
X88356919Y-112197046D01*
X88514820Y-111816777D01*
X88515179Y-111405029D01*
X88357942Y-111024485D01*
X88067046Y-110733081D01*
X87686777Y-110575180D01*
X87275029Y-110574821D01*
X86894485Y-110732058D01*
X86776337Y-110850000D01*
X84633535Y-110850000D01*
X84387046Y-110603081D01*
X84006777Y-110445180D01*
X83595029Y-110444821D01*
X83214485Y-110602058D01*
X82923081Y-110892954D01*
X82765180Y-111273223D01*
X82764821Y-111684971D01*
X72420000Y-111684971D01*
X72420000Y-108773761D01*
X72536919Y-108657046D01*
X72694820Y-108276777D01*
X72695179Y-107865029D01*
X72537942Y-107484485D01*
X72247046Y-107193081D01*
X71866777Y-107035180D01*
X71455029Y-107034821D01*
X71074485Y-107192058D01*
X70783081Y-107482954D01*
X70625180Y-107863223D01*
X70624821Y-108274971D01*
X40735000Y-108274971D01*
X40735000Y-107004579D01*
X45634786Y-107004579D01*
X45822408Y-107458657D01*
X46169515Y-107806371D01*
X46623266Y-107994785D01*
X47114579Y-107995214D01*
X47568657Y-107807592D01*
X47916371Y-107460485D01*
X48070145Y-107090155D01*
X48222408Y-107458657D01*
X48569515Y-107806371D01*
X49023266Y-107994785D01*
X49514579Y-107995214D01*
X49968657Y-107807592D01*
X50316371Y-107460485D01*
X50504785Y-107006734D01*
X50505214Y-106515421D01*
X50317592Y-106061343D01*
X49970485Y-105713629D01*
X49516734Y-105525215D01*
X49025421Y-105524786D01*
X48571343Y-105712408D01*
X48223629Y-106059515D01*
X48069855Y-106429845D01*
X47917592Y-106061343D01*
X47570485Y-105713629D01*
X47116734Y-105525215D01*
X46625421Y-105524786D01*
X46171343Y-105712408D01*
X45823629Y-106059515D01*
X45635215Y-106513266D01*
X45634786Y-107004579D01*
X40735000Y-107004579D01*
X40735000Y-96334971D01*
X84164821Y-96334971D01*
X84322058Y-96715515D01*
X84612954Y-97006919D01*
X84790000Y-97080435D01*
X84790000Y-98541529D01*
X84714263Y-98617134D01*
X84560176Y-98988217D01*
X84559825Y-99390020D01*
X84713264Y-99761372D01*
X84997134Y-100045737D01*
X85368217Y-100199824D01*
X85770020Y-100200175D01*
X86141372Y-100046736D01*
X86425737Y-99762866D01*
X86579824Y-99391783D01*
X86580175Y-98989980D01*
X86426736Y-98618628D01*
X86310000Y-98501688D01*
X86310000Y-96480000D01*
X86252148Y-96189161D01*
X86234971Y-96163454D01*
X86235179Y-95925029D01*
X86077942Y-95544485D01*
X85787046Y-95253081D01*
X85406777Y-95095180D01*
X84995029Y-95094821D01*
X84614485Y-95252058D01*
X84323081Y-95542954D01*
X84165180Y-95923223D01*
X84164821Y-96334971D01*
X40735000Y-96334971D01*
X40735000Y-94200020D01*
X76989825Y-94200020D01*
X77143264Y-94571372D01*
X77427134Y-94855737D01*
X77798217Y-95009824D01*
X78200020Y-95010175D01*
X78571372Y-94856736D01*
X78855737Y-94572866D01*
X79009824Y-94201783D01*
X79010175Y-93799980D01*
X78856736Y-93428628D01*
X78572866Y-93144263D01*
X78201783Y-92990176D01*
X77799980Y-92989825D01*
X77428628Y-93143264D01*
X77144263Y-93427134D01*
X76990176Y-93798217D01*
X76989825Y-94200020D01*
X40735000Y-94200020D01*
X40735000Y-90840000D01*
X42062560Y-90840000D01*
X42062560Y-93340000D01*
X42111843Y-93587765D01*
X42252191Y-93797809D01*
X42462235Y-93938157D01*
X42710000Y-93987440D01*
X45210000Y-93987440D01*
X45457765Y-93938157D01*
X45667809Y-93797809D01*
X45808157Y-93587765D01*
X45857440Y-93340000D01*
X45857440Y-91744971D01*
X84564821Y-91744971D01*
X84722058Y-92125515D01*
X85012954Y-92416919D01*
X85393223Y-92574820D01*
X85804971Y-92575179D01*
X86185515Y-92417942D01*
X86203488Y-92400000D01*
X86466239Y-92400000D01*
X86582954Y-92516919D01*
X86963223Y-92674820D01*
X87374971Y-92675179D01*
X87755515Y-92517942D01*
X88046919Y-92227046D01*
X88204820Y-91846777D01*
X88205179Y-91435029D01*
X88047942Y-91054485D01*
X87848776Y-90854971D01*
X95404821Y-90854971D01*
X95562058Y-91235515D01*
X95852954Y-91526919D01*
X96233223Y-91684820D01*
X96400164Y-91684966D01*
X96960000Y-92244802D01*
X96960000Y-92978877D01*
X96734485Y-93072058D01*
X96443081Y-93362954D01*
X96285180Y-93743223D01*
X96284821Y-94154971D01*
X96442058Y-94535515D01*
X96732954Y-94826919D01*
X97113223Y-94984820D01*
X97524971Y-94985179D01*
X97905515Y-94827942D01*
X98196919Y-94537046D01*
X98354820Y-94156777D01*
X98355008Y-93941322D01*
X98422148Y-93840840D01*
X98458286Y-93659161D01*
X98480000Y-93550000D01*
X98480000Y-92690000D01*
X106330000Y-92690000D01*
X106620839Y-92632148D01*
X106706385Y-92574988D01*
X106924971Y-92575179D01*
X107305515Y-92417942D01*
X107596919Y-92127046D01*
X107754820Y-91746777D01*
X107755179Y-91335029D01*
X107597942Y-90954485D01*
X107307046Y-90663081D01*
X106926777Y-90505180D01*
X106515029Y-90504821D01*
X106134485Y-90662058D01*
X105843081Y-90952954D01*
X105752956Y-91170000D01*
X103094965Y-91170000D01*
X103095179Y-90925029D01*
X102937942Y-90544485D01*
X102820000Y-90426337D01*
X102820000Y-86094971D01*
X109004821Y-86094971D01*
X109162058Y-86475515D01*
X109452954Y-86766919D01*
X109833223Y-86924820D01*
X110244971Y-86925179D01*
X110610637Y-86774090D01*
X110853223Y-86874820D01*
X111264971Y-86875179D01*
X111645515Y-86717942D01*
X111936919Y-86427046D01*
X112094820Y-86046777D01*
X112095179Y-85635029D01*
X111937942Y-85254485D01*
X111820000Y-85136337D01*
X111820000Y-85024802D01*
X112496981Y-84347821D01*
X112835515Y-84207942D01*
X113126919Y-83917046D01*
X113284820Y-83536777D01*
X113285179Y-83125029D01*
X113253459Y-83048261D01*
X113704965Y-83499767D01*
X113704821Y-83664971D01*
X113862058Y-84045515D01*
X114152954Y-84336919D01*
X114533223Y-84494820D01*
X114944971Y-84495179D01*
X115325515Y-84337942D01*
X115616919Y-84047046D01*
X115774820Y-83666777D01*
X115775179Y-83255029D01*
X115638673Y-82924657D01*
X115774820Y-82596777D01*
X115775179Y-82185029D01*
X115627472Y-81827549D01*
X115764820Y-81496777D01*
X115765179Y-81085029D01*
X115635731Y-80771741D01*
X115774820Y-80436777D01*
X115775031Y-80194952D01*
X116034971Y-80195179D01*
X116415515Y-80037942D01*
X116706919Y-79747046D01*
X116864820Y-79366777D01*
X116865179Y-78955029D01*
X116707942Y-78574485D01*
X116523712Y-78389933D01*
X116706919Y-78207046D01*
X116864820Y-77826777D01*
X116865179Y-77415029D01*
X116842819Y-77360913D01*
X116976919Y-77227046D01*
X117093982Y-76945126D01*
X117154971Y-76945179D01*
X117535515Y-76787942D01*
X117826919Y-76497046D01*
X117956478Y-76185032D01*
X118124971Y-76185179D01*
X118505515Y-76027942D01*
X118796919Y-75737046D01*
X118954820Y-75356777D01*
X118955179Y-74945029D01*
X118797942Y-74564485D01*
X118684192Y-74450537D01*
X118714820Y-74376777D01*
X118715179Y-73965029D01*
X118645142Y-73795526D01*
X118905515Y-73687942D01*
X119196919Y-73397046D01*
X119354820Y-73016777D01*
X119355179Y-72605029D01*
X119197942Y-72224485D01*
X118907046Y-71933081D01*
X118526777Y-71775180D01*
X118115029Y-71774821D01*
X118075823Y-71791021D01*
X117775035Y-71490233D01*
X117775179Y-71325029D01*
X117617942Y-70944485D01*
X117327046Y-70653081D01*
X116946777Y-70495180D01*
X116535029Y-70494821D01*
X116154485Y-70652058D01*
X115863081Y-70942954D01*
X115705180Y-71323223D01*
X115704821Y-71734971D01*
X115862058Y-72115515D01*
X116152954Y-72406919D01*
X116533223Y-72564820D01*
X116700164Y-72564966D01*
X117329960Y-73194762D01*
X117094485Y-73292058D01*
X116803081Y-73582954D01*
X116704651Y-73820000D01*
X115104802Y-73820000D01*
X114557401Y-73272599D01*
X114310839Y-73107852D01*
X114020000Y-73050000D01*
X113270000Y-73050000D01*
X112979161Y-73107852D01*
X112732599Y-73272599D01*
X112525198Y-73480000D01*
X111433761Y-73480000D01*
X111317046Y-73363081D01*
X110936777Y-73205180D01*
X110525029Y-73204821D01*
X110144485Y-73362058D01*
X109853081Y-73652954D01*
X109695180Y-74033223D01*
X109694821Y-74444971D01*
X109852058Y-74825515D01*
X110142954Y-75116919D01*
X110523223Y-75274820D01*
X110934971Y-75275179D01*
X111315515Y-75117942D01*
X111433663Y-75000000D01*
X111963889Y-75000000D01*
X111925180Y-75093223D01*
X111925128Y-75152627D01*
X111684485Y-75252058D01*
X111393081Y-75542954D01*
X111265894Y-75849255D01*
X110944485Y-75982058D01*
X110653081Y-76272954D01*
X110495180Y-76653223D01*
X110494821Y-77064971D01*
X110652058Y-77445515D01*
X110746384Y-77540006D01*
X110543081Y-77742954D01*
X110385180Y-78123223D01*
X110384821Y-78534971D01*
X110542058Y-78915515D01*
X110741262Y-79115067D01*
X110573081Y-79282954D01*
X110415180Y-79663223D01*
X110414821Y-80074971D01*
X110572058Y-80455515D01*
X110671401Y-80555032D01*
X110443081Y-80782954D01*
X110285180Y-81163223D01*
X110284821Y-81574971D01*
X110442058Y-81955515D01*
X110732954Y-82246919D01*
X110994714Y-82355611D01*
X110664485Y-82492058D01*
X110373081Y-82782954D01*
X110215180Y-83163223D01*
X110215034Y-83330164D01*
X109502599Y-84042599D01*
X109337852Y-84289161D01*
X109280000Y-84580000D01*
X109280000Y-85186239D01*
X109163081Y-85302954D01*
X109005180Y-85683223D01*
X109004821Y-86094971D01*
X102820000Y-86094971D01*
X102820000Y-84783813D01*
X102906919Y-84697046D01*
X103064820Y-84316777D01*
X103065179Y-83905029D01*
X102907942Y-83524485D01*
X102617046Y-83233081D01*
X102236777Y-83075180D01*
X101825029Y-83074821D01*
X101444485Y-83232058D01*
X101153081Y-83522954D01*
X100995180Y-83903223D01*
X100994821Y-84314971D01*
X101152058Y-84695515D01*
X101300000Y-84843715D01*
X101300000Y-90426239D01*
X101183081Y-90542954D01*
X101025180Y-90923223D01*
X101024965Y-91170000D01*
X98034802Y-91170000D01*
X97475035Y-90610233D01*
X97475179Y-90445029D01*
X97317942Y-90064485D01*
X97027046Y-89773081D01*
X96646777Y-89615180D01*
X96235029Y-89614821D01*
X95854485Y-89772058D01*
X95563081Y-90062954D01*
X95405180Y-90443223D01*
X95404821Y-90854971D01*
X87848776Y-90854971D01*
X87757046Y-90763081D01*
X87376777Y-90605180D01*
X86965029Y-90604821D01*
X86584485Y-90762058D01*
X86466337Y-90880000D01*
X86403587Y-90880000D01*
X86187046Y-90663081D01*
X85806777Y-90505180D01*
X85395029Y-90504821D01*
X85014485Y-90662058D01*
X84723081Y-90952954D01*
X84565180Y-91333223D01*
X84564821Y-91744971D01*
X45857440Y-91744971D01*
X45857440Y-90840000D01*
X45808157Y-90592235D01*
X45667809Y-90382191D01*
X45457765Y-90241843D01*
X45210000Y-90192560D01*
X42710000Y-90192560D01*
X42462235Y-90241843D01*
X42252191Y-90382191D01*
X42111843Y-90592235D01*
X42062560Y-90840000D01*
X40735000Y-90840000D01*
X40735000Y-87923320D01*
X42806285Y-87923320D01*
X42935533Y-88216123D01*
X43635806Y-88484388D01*
X44385435Y-88464250D01*
X44984467Y-88216123D01*
X45113715Y-87923320D01*
X43960000Y-86769605D01*
X42806285Y-87923320D01*
X40735000Y-87923320D01*
X40735000Y-86265806D01*
X42065612Y-86265806D01*
X42085750Y-87015435D01*
X42333877Y-87614467D01*
X42626680Y-87743715D01*
X43780395Y-86590000D01*
X44139605Y-86590000D01*
X45293320Y-87743715D01*
X45586123Y-87614467D01*
X45854388Y-86914194D01*
X45834250Y-86164565D01*
X45586123Y-85565533D01*
X45293320Y-85436285D01*
X44139605Y-86590000D01*
X43780395Y-86590000D01*
X42626680Y-85436285D01*
X42333877Y-85565533D01*
X42065612Y-86265806D01*
X40735000Y-86265806D01*
X40735000Y-85256680D01*
X42806285Y-85256680D01*
X43960000Y-86410395D01*
X45113715Y-85256680D01*
X44984467Y-84963877D01*
X44284194Y-84695612D01*
X43534565Y-84715750D01*
X42935533Y-84963877D01*
X42806285Y-85256680D01*
X40735000Y-85256680D01*
X40735000Y-64278521D01*
X43574604Y-64278521D01*
X43921742Y-65118658D01*
X44563961Y-65761999D01*
X45403491Y-66110603D01*
X46312521Y-66111396D01*
X47152658Y-65764258D01*
X47795999Y-65122039D01*
X48144603Y-64282509D01*
X48145396Y-63373479D01*
X48034837Y-63105906D01*
X48361637Y-63433278D01*
X48362323Y-63433563D01*
X50313761Y-65385000D01*
X49847928Y-65385000D01*
X49375314Y-65479009D01*
X48974651Y-65746723D01*
X48706937Y-66147386D01*
X48656490Y-66401000D01*
X48069928Y-66401000D01*
X47597314Y-66495009D01*
X47196651Y-66762723D01*
X46928937Y-67163386D01*
X46834928Y-67636000D01*
X46928937Y-68108614D01*
X47196651Y-68509277D01*
X47410251Y-68652000D01*
X47196651Y-68794723D01*
X46928937Y-69195386D01*
X46834928Y-69668000D01*
X46928937Y-70140614D01*
X47196651Y-70541277D01*
X47410251Y-70684000D01*
X47196651Y-70826723D01*
X46928937Y-71227386D01*
X46834928Y-71700000D01*
X46928937Y-72172614D01*
X47196651Y-72573277D01*
X47410251Y-72716000D01*
X47196651Y-72858723D01*
X46928937Y-73259386D01*
X46834928Y-73732000D01*
X46928937Y-74204614D01*
X47196651Y-74605277D01*
X47597314Y-74872991D01*
X48069928Y-74967000D01*
X48730072Y-74967000D01*
X49202686Y-74872991D01*
X49603349Y-74605277D01*
X49871063Y-74204614D01*
X49921510Y-73951000D01*
X50508072Y-73951000D01*
X50835000Y-73885970D01*
X50835000Y-74445761D01*
X48133317Y-77147443D01*
X48035620Y-77244970D01*
X48144603Y-76982509D01*
X48145396Y-76073479D01*
X47798258Y-75233342D01*
X47156039Y-74590001D01*
X46316509Y-74241397D01*
X45407479Y-74240604D01*
X44567342Y-74587742D01*
X43924001Y-75229961D01*
X43575397Y-76069491D01*
X43574604Y-76978521D01*
X43921742Y-77818658D01*
X44563961Y-78461999D01*
X45403491Y-78810603D01*
X46312521Y-78811396D01*
X47152658Y-78464258D01*
X47664103Y-77953705D01*
X47654284Y-77977352D01*
X47653716Y-78627795D01*
X47902106Y-79228943D01*
X48361637Y-79689278D01*
X48962352Y-79938716D01*
X49612795Y-79939284D01*
X50213943Y-79690894D01*
X50674278Y-79231363D01*
X50674563Y-79230677D01*
X53626117Y-76279122D01*
X53626120Y-76279120D01*
X53980543Y-75748687D01*
X54105000Y-75123000D01*
X54105000Y-73254971D01*
X54414821Y-73254971D01*
X54565000Y-73618433D01*
X54565000Y-85399995D01*
X54564999Y-85400000D01*
X54607658Y-85614457D01*
X54632367Y-85738675D01*
X54730018Y-85884821D01*
X54824210Y-86025790D01*
X55922869Y-87124448D01*
X56072058Y-87485515D01*
X56362954Y-87776919D01*
X56743223Y-87934820D01*
X57154971Y-87935179D01*
X57535515Y-87777942D01*
X57826919Y-87487046D01*
X57977265Y-87124971D01*
X88394821Y-87124971D01*
X88552058Y-87505515D01*
X88842954Y-87796919D01*
X89223223Y-87954820D01*
X89634971Y-87955179D01*
X89685153Y-87934444D01*
X89684821Y-88314971D01*
X89842058Y-88695515D01*
X90132954Y-88986919D01*
X90513223Y-89144820D01*
X90924971Y-89145179D01*
X91305515Y-88987942D01*
X91423663Y-88870000D01*
X91590000Y-88870000D01*
X91880839Y-88812148D01*
X92127401Y-88647401D01*
X92999767Y-87775035D01*
X93164971Y-87775179D01*
X93545515Y-87617942D01*
X93836919Y-87327046D01*
X93994820Y-86946777D01*
X93995179Y-86535029D01*
X93837942Y-86154485D01*
X93652614Y-85968834D01*
X93744820Y-85746777D01*
X93745179Y-85335029D01*
X93587942Y-84954485D01*
X93297046Y-84663081D01*
X92916777Y-84505180D01*
X92505029Y-84504821D01*
X92124485Y-84662058D01*
X91833081Y-84952954D01*
X91675180Y-85333223D01*
X91675034Y-85500164D01*
X91015198Y-86160000D01*
X90133761Y-86160000D01*
X90017046Y-86043081D01*
X89636777Y-85885180D01*
X89225029Y-85884821D01*
X88844485Y-86042058D01*
X88553081Y-86332954D01*
X88395180Y-86713223D01*
X88394821Y-87124971D01*
X57977265Y-87124971D01*
X57984820Y-87106777D01*
X57985057Y-86835000D01*
X61132415Y-86835000D01*
X61493223Y-86984820D01*
X61904971Y-86985179D01*
X62285515Y-86827942D01*
X62576919Y-86537046D01*
X62734820Y-86156777D01*
X62735179Y-85745029D01*
X62577942Y-85364485D01*
X62287046Y-85073081D01*
X61906777Y-84915180D01*
X61495029Y-84914821D01*
X61131567Y-85065000D01*
X58116579Y-85065000D01*
X57335000Y-84283420D01*
X57335000Y-83684971D01*
X83424821Y-83684971D01*
X83582058Y-84065515D01*
X83872954Y-84356919D01*
X84253223Y-84514820D01*
X84664971Y-84515179D01*
X85045515Y-84357942D01*
X85164574Y-84239090D01*
X85450839Y-84182148D01*
X85697401Y-84017401D01*
X86799767Y-82915035D01*
X86964971Y-82915179D01*
X87345515Y-82757942D01*
X87636919Y-82467046D01*
X87794820Y-82086777D01*
X87795179Y-81675029D01*
X87637942Y-81294485D01*
X87347046Y-81003081D01*
X86966777Y-80845180D01*
X86555029Y-80844821D01*
X86174485Y-81002058D01*
X85883081Y-81292954D01*
X85725180Y-81673223D01*
X85725034Y-81840164D01*
X84987035Y-82578163D01*
X84666777Y-82445180D01*
X84255029Y-82444821D01*
X83874485Y-82602058D01*
X83583081Y-82892954D01*
X83425180Y-83273223D01*
X83424821Y-83684971D01*
X57335000Y-83684971D01*
X57335000Y-78804971D01*
X94634821Y-78804971D01*
X94792058Y-79185515D01*
X95082954Y-79476919D01*
X95463223Y-79634820D01*
X95874971Y-79635179D01*
X96255515Y-79477942D01*
X96373663Y-79360000D01*
X96736152Y-79360000D01*
X96802954Y-79426919D01*
X97183223Y-79584820D01*
X97594971Y-79585179D01*
X97975515Y-79427942D01*
X98266919Y-79137046D01*
X98424820Y-78756777D01*
X98425179Y-78345029D01*
X98267942Y-77964485D01*
X97977046Y-77673081D01*
X97596777Y-77515180D01*
X97185029Y-77514821D01*
X96804485Y-77672058D01*
X96636250Y-77840000D01*
X96373761Y-77840000D01*
X96257046Y-77723081D01*
X95876777Y-77565180D01*
X95465029Y-77564821D01*
X95084485Y-77722058D01*
X94793081Y-78012954D01*
X94635180Y-78393223D01*
X94634821Y-78804971D01*
X57335000Y-78804971D01*
X57335000Y-75704971D01*
X58114821Y-75704971D01*
X58272058Y-76085515D01*
X58562954Y-76376919D01*
X58943223Y-76534820D01*
X59354971Y-76535179D01*
X59718433Y-76385000D01*
X62082415Y-76385000D01*
X62443223Y-76534820D01*
X62854971Y-76535179D01*
X63218433Y-76385000D01*
X64883420Y-76385000D01*
X65122869Y-76624448D01*
X65272058Y-76985515D01*
X65562954Y-77276919D01*
X65926152Y-77427731D01*
X66624208Y-78125787D01*
X66624210Y-78125790D01*
X66911325Y-78317633D01*
X66938714Y-78323081D01*
X67250000Y-78385001D01*
X67250005Y-78385000D01*
X70282415Y-78385000D01*
X70643223Y-78534820D01*
X71054971Y-78535179D01*
X71435515Y-78377942D01*
X71726919Y-78087046D01*
X71884820Y-77706777D01*
X71885179Y-77295029D01*
X71727942Y-76914485D01*
X71437046Y-76623081D01*
X71056777Y-76465180D01*
X70645029Y-76464821D01*
X70281567Y-76615000D01*
X67616579Y-76615000D01*
X67276551Y-76274971D01*
X77164821Y-76274971D01*
X77322058Y-76655515D01*
X77612954Y-76946919D01*
X77993223Y-77104820D01*
X78404971Y-77105179D01*
X78785515Y-76947942D01*
X79076919Y-76657046D01*
X79189939Y-76384863D01*
X83327401Y-72247401D01*
X83492148Y-72000839D01*
X83550000Y-71710000D01*
X83550000Y-71533761D01*
X83666919Y-71417046D01*
X83824820Y-71036777D01*
X83825179Y-70625029D01*
X83667942Y-70244485D01*
X83377046Y-69953081D01*
X82996777Y-69795180D01*
X82585029Y-69794821D01*
X82204485Y-69952058D01*
X81913081Y-70242954D01*
X81755180Y-70623223D01*
X81754821Y-71034971D01*
X81912058Y-71415515D01*
X81960828Y-71464370D01*
X78390033Y-75035165D01*
X77995029Y-75034821D01*
X77614485Y-75192058D01*
X77323081Y-75482954D01*
X77165180Y-75863223D01*
X77164821Y-76274971D01*
X67276551Y-76274971D01*
X67177131Y-76175551D01*
X67027942Y-75814485D01*
X66737046Y-75523081D01*
X66373848Y-75372268D01*
X65875790Y-74874210D01*
X65838300Y-74849160D01*
X65588675Y-74682367D01*
X65532484Y-74671190D01*
X65250000Y-74614999D01*
X65249995Y-74615000D01*
X63217585Y-74615000D01*
X62856777Y-74465180D01*
X62445029Y-74464821D01*
X62081567Y-74615000D01*
X59717585Y-74615000D01*
X59356777Y-74465180D01*
X58945029Y-74464821D01*
X58564485Y-74622058D01*
X58273081Y-74912954D01*
X58115180Y-75293223D01*
X58114821Y-75704971D01*
X57335000Y-75704971D01*
X57335000Y-72350005D01*
X57335001Y-72350000D01*
X57267633Y-72011325D01*
X57075790Y-71724210D01*
X57075787Y-71724208D01*
X56435000Y-71083420D01*
X56435000Y-66417585D01*
X56584820Y-66056777D01*
X56585179Y-65645029D01*
X56427942Y-65264485D01*
X56137046Y-64973081D01*
X55756777Y-64815180D01*
X55345029Y-64814821D01*
X54964485Y-64972058D01*
X54673081Y-65262954D01*
X54515180Y-65643223D01*
X54514821Y-66054971D01*
X54665000Y-66418433D01*
X54665000Y-71449995D01*
X54664999Y-71450000D01*
X54714728Y-71700000D01*
X54732367Y-71788675D01*
X54874130Y-72000839D01*
X54924210Y-72075790D01*
X54974869Y-72126449D01*
X54864485Y-72172058D01*
X54573081Y-72462954D01*
X54415180Y-72843223D01*
X54414821Y-73254971D01*
X54105000Y-73254971D01*
X54105000Y-65229000D01*
X53980543Y-64603313D01*
X53626120Y-64072880D01*
X53626117Y-64072878D01*
X51883240Y-62330000D01*
X78984999Y-62330000D01*
X78985000Y-62330005D01*
X78985000Y-63689995D01*
X78984999Y-63690000D01*
X79041190Y-63972484D01*
X79052367Y-64028675D01*
X79233660Y-64300000D01*
X79244210Y-64315790D01*
X82922869Y-67994448D01*
X83072058Y-68355515D01*
X83362954Y-68646919D01*
X83743223Y-68804820D01*
X84154971Y-68805179D01*
X84270000Y-68757650D01*
X84270000Y-69080000D01*
X84327852Y-69370839D01*
X84454981Y-69561102D01*
X84454821Y-69744971D01*
X84612058Y-70125515D01*
X84902954Y-70416919D01*
X85283223Y-70574820D01*
X85694971Y-70575179D01*
X86075515Y-70417942D01*
X86366919Y-70127046D01*
X86524820Y-69746777D01*
X86525179Y-69335029D01*
X86397447Y-69025892D01*
X86755515Y-68877942D01*
X87046919Y-68587046D01*
X87204820Y-68206777D01*
X87204978Y-68024971D01*
X103514821Y-68024971D01*
X103672058Y-68405515D01*
X103790000Y-68523663D01*
X103790000Y-71136187D01*
X103703081Y-71222954D01*
X103545180Y-71603223D01*
X103544821Y-72014971D01*
X103702058Y-72395515D01*
X103992954Y-72686919D01*
X104373223Y-72844820D01*
X104784971Y-72845179D01*
X105165515Y-72687942D01*
X105456919Y-72397046D01*
X105578198Y-72104971D01*
X106084821Y-72104971D01*
X106242058Y-72485515D01*
X106532954Y-72776919D01*
X106913223Y-72934820D01*
X107324971Y-72935179D01*
X107705515Y-72777942D01*
X107996919Y-72487046D01*
X108154820Y-72106777D01*
X108154966Y-71939836D01*
X108757401Y-71337401D01*
X108922148Y-71090839D01*
X108980000Y-70800000D01*
X108980000Y-70203761D01*
X109096919Y-70087046D01*
X109254820Y-69706777D01*
X109254998Y-69502467D01*
X109317233Y-69653086D01*
X109636235Y-69972645D01*
X110053244Y-70145803D01*
X110504775Y-70146197D01*
X110922086Y-69973767D01*
X111241645Y-69654765D01*
X111414803Y-69237756D01*
X111415197Y-68786225D01*
X111242767Y-68368914D01*
X111093888Y-68219775D01*
X114224803Y-68219775D01*
X114397233Y-68637086D01*
X114716235Y-68956645D01*
X115133244Y-69129803D01*
X115584775Y-69130197D01*
X116002086Y-68957767D01*
X116321645Y-68638765D01*
X116494803Y-68221756D01*
X116495197Y-67770225D01*
X116322767Y-67352914D01*
X116003765Y-67033355D01*
X115586756Y-66860197D01*
X115135225Y-66859803D01*
X114717914Y-67032233D01*
X114398355Y-67351235D01*
X114225197Y-67768244D01*
X114224803Y-68219775D01*
X111093888Y-68219775D01*
X110923765Y-68049355D01*
X110793058Y-67995080D01*
X110922086Y-67941767D01*
X111241645Y-67622765D01*
X111414803Y-67205756D01*
X111415197Y-66754225D01*
X111242767Y-66336914D01*
X110923765Y-66017355D01*
X110506756Y-65844197D01*
X110055225Y-65843803D01*
X109637914Y-66016233D01*
X109318355Y-66335235D01*
X109145197Y-66752244D01*
X109144803Y-67203775D01*
X109317233Y-67621086D01*
X109636235Y-67940645D01*
X109766942Y-67994920D01*
X109637914Y-68048233D01*
X109318355Y-68367235D01*
X109145197Y-68784244D01*
X109144984Y-69028336D01*
X109097942Y-68914485D01*
X108807046Y-68623081D01*
X108426777Y-68465180D01*
X108015029Y-68464821D01*
X107634485Y-68622058D01*
X107343081Y-68912954D01*
X107185180Y-69293223D01*
X107184821Y-69704971D01*
X107342058Y-70085515D01*
X107460000Y-70203663D01*
X107460000Y-70485198D01*
X107080233Y-70864965D01*
X106915029Y-70864821D01*
X106534485Y-71022058D01*
X106243081Y-71312954D01*
X106085180Y-71693223D01*
X106084821Y-72104971D01*
X105578198Y-72104971D01*
X105614820Y-72016777D01*
X105615179Y-71605029D01*
X105457942Y-71224485D01*
X105310000Y-71076285D01*
X105310000Y-68523761D01*
X105426919Y-68407046D01*
X105584820Y-68026777D01*
X105585179Y-67615029D01*
X105427942Y-67234485D01*
X105137046Y-66943081D01*
X104756777Y-66785180D01*
X104345029Y-66784821D01*
X103964485Y-66942058D01*
X103673081Y-67232954D01*
X103515180Y-67613223D01*
X103514821Y-68024971D01*
X87204978Y-68024971D01*
X87205179Y-67795029D01*
X87047942Y-67414485D01*
X86757046Y-67123081D01*
X86376777Y-66965180D01*
X85965029Y-66964821D01*
X85855687Y-67010000D01*
X84653761Y-67010000D01*
X84537046Y-66893081D01*
X84173847Y-66742268D01*
X80755000Y-63323420D01*
X80755000Y-62908491D01*
X81026919Y-62637046D01*
X81184820Y-62256777D01*
X81185179Y-61845029D01*
X81027942Y-61464485D01*
X80737046Y-61173081D01*
X80356777Y-61015180D01*
X79945029Y-61014821D01*
X79564485Y-61172058D01*
X79273081Y-61462954D01*
X79115180Y-61843223D01*
X79115133Y-61897389D01*
X79052367Y-61991325D01*
X79041190Y-62047516D01*
X78984999Y-62330000D01*
X51883240Y-62330000D01*
X50445557Y-60892317D01*
X50216363Y-60662722D01*
X49615648Y-60413284D01*
X48965205Y-60412716D01*
X48364057Y-60661106D01*
X47903722Y-61120637D01*
X47654284Y-61721352D01*
X47653716Y-62371795D01*
X47665527Y-62400379D01*
X47156039Y-61890001D01*
X46316509Y-61541397D01*
X45407479Y-61540604D01*
X44567342Y-61887742D01*
X43924001Y-62529961D01*
X43575397Y-63369491D01*
X43574604Y-64278521D01*
X40735000Y-64278521D01*
X40735000Y-55182200D01*
X41012509Y-55127000D01*
X51010811Y-55127000D01*
X50925180Y-55333223D01*
M02*
