G04 #@! TF.FileFunction,Legend,Top*
%FSLAX46Y46*%
G04 Gerber Fmt 4.6, Leading zero omitted, Abs format (unit mm)*
G04 Created by KiCad (PCBNEW 4.0.4-stable) date Saturday, 15 October 2016 'PMt' 13:44:15*
%MOMM*%
%LPD*%
G01*
G04 APERTURE LIST*
%ADD10C,0.100000*%
%ADD11C,0.300000*%
%ADD12C,0.700000*%
%ADD13C,0.750000*%
%ADD14C,0.150000*%
%ADD15C,0.254000*%
G04 APERTURE END LIST*
D10*
D11*
X58732857Y-115528571D02*
X58732857Y-114028571D01*
X59447143Y-115528571D02*
X59447143Y-114028571D01*
X59804286Y-114028571D01*
X60018571Y-114100000D01*
X60161429Y-114242857D01*
X60232857Y-114385714D01*
X60304286Y-114671429D01*
X60304286Y-114885714D01*
X60232857Y-115171429D01*
X60161429Y-115314286D01*
X60018571Y-115457143D01*
X59804286Y-115528571D01*
X59447143Y-115528571D01*
X60947143Y-115385714D02*
X61018571Y-115457143D01*
X60947143Y-115528571D01*
X60875714Y-115457143D01*
X60947143Y-115385714D01*
X60947143Y-115528571D01*
X60947143Y-114600000D02*
X61018571Y-114671429D01*
X60947143Y-114742857D01*
X60875714Y-114671429D01*
X60947143Y-114600000D01*
X60947143Y-114742857D01*
X58090000Y-120028571D02*
X58090000Y-118528571D01*
X58590000Y-119600000D01*
X59090000Y-118528571D01*
X59090000Y-120028571D01*
X59732857Y-119600000D02*
X60447143Y-119600000D01*
X59590000Y-120028571D02*
X60090000Y-118528571D01*
X60590000Y-120028571D01*
X61947143Y-119885714D02*
X61875714Y-119957143D01*
X61661428Y-120028571D01*
X61518571Y-120028571D01*
X61304286Y-119957143D01*
X61161428Y-119814286D01*
X61090000Y-119671429D01*
X61018571Y-119385714D01*
X61018571Y-119171429D01*
X61090000Y-118885714D01*
X61161428Y-118742857D01*
X61304286Y-118600000D01*
X61518571Y-118528571D01*
X61661428Y-118528571D01*
X61875714Y-118600000D01*
X61947143Y-118671429D01*
X62590000Y-119885714D02*
X62661428Y-119957143D01*
X62590000Y-120028571D01*
X62518571Y-119957143D01*
X62590000Y-119885714D01*
X62590000Y-120028571D01*
X62590000Y-119100000D02*
X62661428Y-119171429D01*
X62590000Y-119242857D01*
X62518571Y-119171429D01*
X62590000Y-119100000D01*
X62590000Y-119242857D01*
D12*
X113620000Y-89350000D02*
X113620000Y-120110000D01*
D11*
X116433571Y-100410000D02*
X115719286Y-100910000D01*
X116433571Y-101267143D02*
X114933571Y-101267143D01*
X114933571Y-100695715D01*
X115005000Y-100552857D01*
X115076429Y-100481429D01*
X115219286Y-100410000D01*
X115433571Y-100410000D01*
X115576429Y-100481429D01*
X115647857Y-100552857D01*
X115719286Y-100695715D01*
X115719286Y-101267143D01*
X115647857Y-99767143D02*
X115647857Y-99267143D01*
X116433571Y-99052857D02*
X116433571Y-99767143D01*
X114933571Y-99767143D01*
X114933571Y-99052857D01*
X114933571Y-98624286D02*
X116433571Y-98124286D01*
X114933571Y-97624286D01*
X116433571Y-97124286D02*
X114933571Y-97124286D01*
X116362143Y-96481429D02*
X116433571Y-96267143D01*
X116433571Y-95910000D01*
X116362143Y-95767143D01*
X116290714Y-95695714D01*
X116147857Y-95624286D01*
X116005000Y-95624286D01*
X115862143Y-95695714D01*
X115790714Y-95767143D01*
X115719286Y-95910000D01*
X115647857Y-96195714D01*
X115576429Y-96338572D01*
X115505000Y-96410000D01*
X115362143Y-96481429D01*
X115219286Y-96481429D01*
X115076429Y-96410000D01*
X115005000Y-96338572D01*
X114933571Y-96195714D01*
X114933571Y-95838572D01*
X115005000Y-95624286D01*
X116433571Y-94981429D02*
X114933571Y-94981429D01*
X114933571Y-93981429D02*
X114933571Y-93695715D01*
X115005000Y-93552857D01*
X115147857Y-93410000D01*
X115433571Y-93338572D01*
X115933571Y-93338572D01*
X116219286Y-93410000D01*
X116362143Y-93552857D01*
X116433571Y-93695715D01*
X116433571Y-93981429D01*
X116362143Y-94124286D01*
X116219286Y-94267143D01*
X115933571Y-94338572D01*
X115433571Y-94338572D01*
X115147857Y-94267143D01*
X115005000Y-94124286D01*
X114933571Y-93981429D01*
X116433571Y-92695714D02*
X114933571Y-92695714D01*
X116433571Y-91838571D01*
X114933571Y-91838571D01*
X116433571Y-89195714D02*
X116433571Y-90052857D01*
X116433571Y-89624285D02*
X114933571Y-89624285D01*
X115147857Y-89767142D01*
X115290714Y-89910000D01*
X115362143Y-90052857D01*
X117626429Y-101481426D02*
X117555000Y-101409997D01*
X117483571Y-101267140D01*
X117483571Y-100909997D01*
X117555000Y-100767140D01*
X117626429Y-100695711D01*
X117769286Y-100624283D01*
X117912143Y-100624283D01*
X118126429Y-100695711D01*
X118983571Y-101552854D01*
X118983571Y-100624283D01*
X117483571Y-99695712D02*
X117483571Y-99552855D01*
X117555000Y-99409998D01*
X117626429Y-99338569D01*
X117769286Y-99267140D01*
X118055000Y-99195712D01*
X118412143Y-99195712D01*
X118697857Y-99267140D01*
X118840714Y-99338569D01*
X118912143Y-99409998D01*
X118983571Y-99552855D01*
X118983571Y-99695712D01*
X118912143Y-99838569D01*
X118840714Y-99909998D01*
X118697857Y-99981426D01*
X118412143Y-100052855D01*
X118055000Y-100052855D01*
X117769286Y-99981426D01*
X117626429Y-99909998D01*
X117555000Y-99838569D01*
X117483571Y-99695712D01*
X118983571Y-97767141D02*
X118983571Y-98624284D01*
X118983571Y-98195712D02*
X117483571Y-98195712D01*
X117697857Y-98338569D01*
X117840714Y-98481427D01*
X117912143Y-98624284D01*
X117483571Y-96481427D02*
X117483571Y-96767141D01*
X117555000Y-96909998D01*
X117626429Y-96981427D01*
X117840714Y-97124284D01*
X118126429Y-97195713D01*
X118697857Y-97195713D01*
X118840714Y-97124284D01*
X118912143Y-97052856D01*
X118983571Y-96909998D01*
X118983571Y-96624284D01*
X118912143Y-96481427D01*
X118840714Y-96409998D01*
X118697857Y-96338570D01*
X118340714Y-96338570D01*
X118197857Y-96409998D01*
X118126429Y-96481427D01*
X118055000Y-96624284D01*
X118055000Y-96909998D01*
X118126429Y-97052856D01*
X118197857Y-97124284D01*
X118340714Y-97195713D01*
X118840714Y-95695713D02*
X118912143Y-95624285D01*
X118983571Y-95695713D01*
X118912143Y-95767142D01*
X118840714Y-95695713D01*
X118983571Y-95695713D01*
X118983571Y-94195713D02*
X118983571Y-95052856D01*
X118983571Y-94624284D02*
X117483571Y-94624284D01*
X117697857Y-94767141D01*
X117840714Y-94909999D01*
X117912143Y-95052856D01*
X117483571Y-93267142D02*
X117483571Y-93124285D01*
X117555000Y-92981428D01*
X117626429Y-92909999D01*
X117769286Y-92838570D01*
X118055000Y-92767142D01*
X118412143Y-92767142D01*
X118697857Y-92838570D01*
X118840714Y-92909999D01*
X118912143Y-92981428D01*
X118983571Y-93124285D01*
X118983571Y-93267142D01*
X118912143Y-93409999D01*
X118840714Y-93481428D01*
X118697857Y-93552856D01*
X118412143Y-93624285D01*
X118055000Y-93624285D01*
X117769286Y-93552856D01*
X117626429Y-93481428D01*
X117555000Y-93409999D01*
X117483571Y-93267142D01*
X118840714Y-92124285D02*
X118912143Y-92052857D01*
X118983571Y-92124285D01*
X118912143Y-92195714D01*
X118840714Y-92124285D01*
X118983571Y-92124285D01*
X118983571Y-90624285D02*
X118983571Y-91481428D01*
X118983571Y-91052856D02*
X117483571Y-91052856D01*
X117697857Y-91195713D01*
X117840714Y-91338571D01*
X117912143Y-91481428D01*
X117483571Y-90124285D02*
X117483571Y-89195714D01*
X118055000Y-89695714D01*
X118055000Y-89481428D01*
X118126429Y-89338571D01*
X118197857Y-89267142D01*
X118340714Y-89195714D01*
X118697857Y-89195714D01*
X118840714Y-89267142D01*
X118912143Y-89338571D01*
X118983571Y-89481428D01*
X118983571Y-89910000D01*
X118912143Y-90052857D01*
X118840714Y-90124285D01*
X116463571Y-120008095D02*
X114963571Y-120008095D01*
X114963571Y-119650952D01*
X115035000Y-119436667D01*
X115177857Y-119293809D01*
X115320714Y-119222381D01*
X115606429Y-119150952D01*
X115820714Y-119150952D01*
X116106429Y-119222381D01*
X116249286Y-119293809D01*
X116392143Y-119436667D01*
X116463571Y-119650952D01*
X116463571Y-120008095D01*
X116035000Y-118579524D02*
X116035000Y-117865238D01*
X116463571Y-118722381D02*
X114963571Y-118222381D01*
X116463571Y-117722381D01*
X114963571Y-117436667D02*
X116463571Y-116936667D01*
X114963571Y-116436667D01*
X116463571Y-115936667D02*
X114963571Y-115936667D01*
X116463571Y-115222381D02*
X114963571Y-115222381D01*
X114963571Y-114865238D01*
X115035000Y-114650953D01*
X115177857Y-114508095D01*
X115320714Y-114436667D01*
X115606429Y-114365238D01*
X115820714Y-114365238D01*
X116106429Y-114436667D01*
X116249286Y-114508095D01*
X116392143Y-114650953D01*
X116463571Y-114865238D01*
X116463571Y-115222381D01*
X114963571Y-112793810D02*
X114963571Y-111936667D01*
X116463571Y-112365238D02*
X114963571Y-112365238D01*
X114963571Y-111436667D02*
X116177857Y-111436667D01*
X116320714Y-111365239D01*
X116392143Y-111293810D01*
X116463571Y-111150953D01*
X116463571Y-110865239D01*
X116392143Y-110722381D01*
X116320714Y-110650953D01*
X116177857Y-110579524D01*
X114963571Y-110579524D01*
X116463571Y-109008095D02*
X115749286Y-109508095D01*
X116463571Y-109865238D02*
X114963571Y-109865238D01*
X114963571Y-109293810D01*
X115035000Y-109150952D01*
X115106429Y-109079524D01*
X115249286Y-109008095D01*
X115463571Y-109008095D01*
X115606429Y-109079524D01*
X115677857Y-109150952D01*
X115749286Y-109293810D01*
X115749286Y-109865238D01*
X116463571Y-108365238D02*
X114963571Y-108365238D01*
X116463571Y-107508095D01*
X114963571Y-107508095D01*
X115677857Y-106793809D02*
X115677857Y-106293809D01*
X116463571Y-106079523D02*
X116463571Y-106793809D01*
X114963571Y-106793809D01*
X114963571Y-106079523D01*
X116463571Y-104579523D02*
X115749286Y-105079523D01*
X116463571Y-105436666D02*
X114963571Y-105436666D01*
X114963571Y-104865238D01*
X115035000Y-104722380D01*
X115106429Y-104650952D01*
X115249286Y-104579523D01*
X115463571Y-104579523D01*
X115606429Y-104650952D01*
X115677857Y-104722380D01*
X115749286Y-104865238D01*
X115749286Y-105436666D01*
X118585000Y-120079524D02*
X118585000Y-119365238D01*
X119013571Y-120222381D02*
X117513571Y-119722381D01*
X119013571Y-119222381D01*
X119013571Y-118722381D02*
X117513571Y-118722381D01*
X117513571Y-118365238D01*
X117585000Y-118150953D01*
X117727857Y-118008095D01*
X117870714Y-117936667D01*
X118156429Y-117865238D01*
X118370714Y-117865238D01*
X118656429Y-117936667D01*
X118799286Y-118008095D01*
X118942143Y-118150953D01*
X119013571Y-118365238D01*
X119013571Y-118722381D01*
X118585000Y-117293810D02*
X118585000Y-116579524D01*
X119013571Y-117436667D02*
X117513571Y-116936667D01*
X119013571Y-116436667D01*
X119013571Y-115936667D02*
X117513571Y-115936667D01*
X118585000Y-115436667D01*
X117513571Y-114936667D01*
X119013571Y-114936667D01*
X117585000Y-112293810D02*
X117513571Y-112436667D01*
X117513571Y-112650953D01*
X117585000Y-112865238D01*
X117727857Y-113008096D01*
X117870714Y-113079524D01*
X118156429Y-113150953D01*
X118370714Y-113150953D01*
X118656429Y-113079524D01*
X118799286Y-113008096D01*
X118942143Y-112865238D01*
X119013571Y-112650953D01*
X119013571Y-112508096D01*
X118942143Y-112293810D01*
X118870714Y-112222381D01*
X118370714Y-112222381D01*
X118370714Y-112508096D01*
X119013571Y-110722381D02*
X118299286Y-111222381D01*
X119013571Y-111579524D02*
X117513571Y-111579524D01*
X117513571Y-111008096D01*
X117585000Y-110865238D01*
X117656429Y-110793810D01*
X117799286Y-110722381D01*
X118013571Y-110722381D01*
X118156429Y-110793810D01*
X118227857Y-110865238D01*
X118299286Y-111008096D01*
X118299286Y-111579524D01*
X118227857Y-110079524D02*
X118227857Y-109579524D01*
X119013571Y-109365238D02*
X119013571Y-110079524D01*
X117513571Y-110079524D01*
X117513571Y-109365238D01*
X119013571Y-108722381D02*
X117513571Y-108722381D01*
X117585000Y-107222381D02*
X117513571Y-107365238D01*
X117513571Y-107579524D01*
X117585000Y-107793809D01*
X117727857Y-107936667D01*
X117870714Y-108008095D01*
X118156429Y-108079524D01*
X118370714Y-108079524D01*
X118656429Y-108008095D01*
X118799286Y-107936667D01*
X118942143Y-107793809D01*
X119013571Y-107579524D01*
X119013571Y-107436667D01*
X118942143Y-107222381D01*
X118870714Y-107150952D01*
X118370714Y-107150952D01*
X118370714Y-107436667D01*
X111692857Y-119448095D02*
X111692857Y-119948095D01*
X112478571Y-119948095D02*
X110978571Y-119948095D01*
X110978571Y-119233809D01*
X112478571Y-118662381D02*
X110978571Y-118662381D01*
X112478571Y-117090952D02*
X111764286Y-117590952D01*
X112478571Y-117948095D02*
X110978571Y-117948095D01*
X110978571Y-117376667D01*
X111050000Y-117233809D01*
X111121429Y-117162381D01*
X111264286Y-117090952D01*
X111478571Y-117090952D01*
X111621429Y-117162381D01*
X111692857Y-117233809D01*
X111764286Y-117376667D01*
X111764286Y-117948095D01*
X111692857Y-116448095D02*
X111692857Y-115948095D01*
X112478571Y-115733809D02*
X112478571Y-116448095D01*
X110978571Y-116448095D01*
X110978571Y-115733809D01*
X110978571Y-115233809D02*
X112478571Y-114876666D01*
X111407143Y-114590952D01*
X112478571Y-114305238D01*
X110978571Y-113948095D01*
X110978571Y-113090952D02*
X110978571Y-112805238D01*
X111050000Y-112662380D01*
X111192857Y-112519523D01*
X111478571Y-112448095D01*
X111978571Y-112448095D01*
X112264286Y-112519523D01*
X112407143Y-112662380D01*
X112478571Y-112805238D01*
X112478571Y-113090952D01*
X112407143Y-113233809D01*
X112264286Y-113376666D01*
X111978571Y-113448095D01*
X111478571Y-113448095D01*
X111192857Y-113376666D01*
X111050000Y-113233809D01*
X110978571Y-113090952D01*
X112478571Y-110948094D02*
X111764286Y-111448094D01*
X112478571Y-111805237D02*
X110978571Y-111805237D01*
X110978571Y-111233809D01*
X111050000Y-111090951D01*
X111121429Y-111019523D01*
X111264286Y-110948094D01*
X111478571Y-110948094D01*
X111621429Y-111019523D01*
X111692857Y-111090951D01*
X111764286Y-111233809D01*
X111764286Y-111805237D01*
X112478571Y-110305237D02*
X110978571Y-110305237D01*
X112478571Y-109448094D02*
X111621429Y-110090951D01*
X110978571Y-109448094D02*
X111835714Y-110305237D01*
X112478571Y-107662380D02*
X110978571Y-107662380D01*
X111050000Y-106162380D02*
X110978571Y-106305237D01*
X110978571Y-106519523D01*
X111050000Y-106733808D01*
X111192857Y-106876666D01*
X111335714Y-106948094D01*
X111621429Y-107019523D01*
X111835714Y-107019523D01*
X112121429Y-106948094D01*
X112264286Y-106876666D01*
X112407143Y-106733808D01*
X112478571Y-106519523D01*
X112478571Y-106376666D01*
X112407143Y-106162380D01*
X112335714Y-106090951D01*
X111835714Y-106090951D01*
X111835714Y-106376666D01*
X112478571Y-105448094D02*
X110978571Y-105448094D01*
X112478571Y-104590951D01*
X110978571Y-104590951D01*
X112478571Y-103876665D02*
X110978571Y-103876665D01*
X110978571Y-103376665D02*
X110978571Y-102519522D01*
X112478571Y-102948093D02*
X110978571Y-102948093D01*
X112478571Y-102019522D02*
X110978571Y-102019522D01*
X110978571Y-101019522D02*
X110978571Y-100733808D01*
X111050000Y-100590950D01*
X111192857Y-100448093D01*
X111478571Y-100376665D01*
X111978571Y-100376665D01*
X112264286Y-100448093D01*
X112407143Y-100590950D01*
X112478571Y-100733808D01*
X112478571Y-101019522D01*
X112407143Y-101162379D01*
X112264286Y-101305236D01*
X111978571Y-101376665D01*
X111478571Y-101376665D01*
X111192857Y-101305236D01*
X111050000Y-101162379D01*
X110978571Y-101019522D01*
X112478571Y-99733807D02*
X110978571Y-99733807D01*
X112478571Y-98876664D01*
X110978571Y-98876664D01*
X112407143Y-97090950D02*
X112478571Y-96876664D01*
X112478571Y-96519521D01*
X112407143Y-96376664D01*
X112335714Y-96305235D01*
X112192857Y-96233807D01*
X112050000Y-96233807D01*
X111907143Y-96305235D01*
X111835714Y-96376664D01*
X111764286Y-96519521D01*
X111692857Y-96805235D01*
X111621429Y-96948093D01*
X111550000Y-97019521D01*
X111407143Y-97090950D01*
X111264286Y-97090950D01*
X111121429Y-97019521D01*
X111050000Y-96948093D01*
X110978571Y-96805235D01*
X110978571Y-96448093D01*
X111050000Y-96233807D01*
X111764286Y-95305236D02*
X112478571Y-95305236D01*
X110978571Y-95805236D02*
X111764286Y-95305236D01*
X110978571Y-94805236D01*
X112407143Y-94376665D02*
X112478571Y-94162379D01*
X112478571Y-93805236D01*
X112407143Y-93662379D01*
X112335714Y-93590950D01*
X112192857Y-93519522D01*
X112050000Y-93519522D01*
X111907143Y-93590950D01*
X111835714Y-93662379D01*
X111764286Y-93805236D01*
X111692857Y-94090950D01*
X111621429Y-94233808D01*
X111550000Y-94305236D01*
X111407143Y-94376665D01*
X111264286Y-94376665D01*
X111121429Y-94305236D01*
X111050000Y-94233808D01*
X110978571Y-94090950D01*
X110978571Y-93733808D01*
X111050000Y-93519522D01*
X110978571Y-93090951D02*
X110978571Y-92233808D01*
X112478571Y-92662379D02*
X110978571Y-92662379D01*
X111692857Y-91733808D02*
X111692857Y-91233808D01*
X112478571Y-91019522D02*
X112478571Y-91733808D01*
X110978571Y-91733808D01*
X110978571Y-91019522D01*
X112478571Y-90376665D02*
X110978571Y-90376665D01*
X112050000Y-89876665D01*
X110978571Y-89376665D01*
X112478571Y-89376665D01*
D13*
X110119524Y-119849047D02*
X106119524Y-119349047D01*
X106119524Y-117825238D01*
X106310000Y-117468095D01*
X106500476Y-117301428D01*
X106881429Y-117158572D01*
X107452857Y-117230000D01*
X107833810Y-117468095D01*
X108024286Y-117682381D01*
X108214762Y-118087143D01*
X108214762Y-119610952D01*
X106119524Y-114587142D02*
X106119524Y-113825238D01*
X106310000Y-113468095D01*
X106690952Y-113134762D01*
X107452857Y-113039524D01*
X108786190Y-113206191D01*
X109548095Y-113491905D01*
X109929048Y-113920476D01*
X110119524Y-114325238D01*
X110119524Y-115087142D01*
X109929048Y-115444286D01*
X109548095Y-115777619D01*
X108786190Y-115872857D01*
X107452857Y-115706190D01*
X106690952Y-115420476D01*
X106310000Y-114991905D01*
X106119524Y-114587142D01*
X110119524Y-109372857D02*
X108214762Y-110468095D01*
X110119524Y-111658571D02*
X106119524Y-111158571D01*
X106119524Y-109634762D01*
X106310000Y-109277619D01*
X106500476Y-109110952D01*
X106881429Y-108968096D01*
X107452857Y-109039524D01*
X107833810Y-109277619D01*
X108024286Y-109491905D01*
X108214762Y-109896667D01*
X108214762Y-111420476D01*
X106119524Y-107730000D02*
X106119524Y-105444285D01*
X110119524Y-107087142D02*
X106119524Y-106587142D01*
X108024286Y-103015715D02*
X108024286Y-104349048D01*
X110119524Y-104610952D02*
X106119524Y-104110952D01*
X106119524Y-102206190D01*
X110119524Y-101182381D02*
X106119524Y-100682381D01*
X110119524Y-96991905D02*
X108214762Y-98087143D01*
X110119524Y-99277619D02*
X106119524Y-98777619D01*
X106119524Y-97253810D01*
X106310000Y-96896667D01*
X106500476Y-96730000D01*
X106881429Y-96587144D01*
X107452857Y-96658572D01*
X107833810Y-96896667D01*
X108024286Y-97110953D01*
X108214762Y-97515715D01*
X108214762Y-99039524D01*
X108024286Y-95015715D02*
X108024286Y-93682382D01*
X110119524Y-93372857D02*
X110119524Y-95277619D01*
X106119524Y-94777619D01*
X106119524Y-92872857D01*
D11*
X109457138Y-43014762D02*
X109361900Y-43110000D01*
X109171423Y-43205238D01*
X108695233Y-43205238D01*
X108504757Y-43110000D01*
X108409519Y-43014762D01*
X108314280Y-42824286D01*
X108314280Y-42633810D01*
X108409519Y-42348095D01*
X109552376Y-41205238D01*
X108314280Y-41205238D01*
X107552376Y-43014762D02*
X107457138Y-43110000D01*
X107266661Y-43205238D01*
X106790471Y-43205238D01*
X106599995Y-43110000D01*
X106504757Y-43014762D01*
X106409518Y-42824286D01*
X106409518Y-42633810D01*
X106504757Y-42348095D01*
X107647614Y-41205238D01*
X106409518Y-41205238D01*
X95443806Y-43014762D02*
X95348568Y-43110000D01*
X95158091Y-43205238D01*
X94681901Y-43205238D01*
X94491425Y-43110000D01*
X94396187Y-43014762D01*
X94300948Y-42824286D01*
X94300948Y-42633810D01*
X94396187Y-42348095D01*
X95539044Y-41205238D01*
X94300948Y-41205238D01*
X92586663Y-42538571D02*
X92586663Y-41205238D01*
X93062853Y-43300476D02*
X93539044Y-41871905D01*
X92300948Y-41871905D01*
X81430474Y-43014762D02*
X81335236Y-43110000D01*
X81144759Y-43205238D01*
X80668569Y-43205238D01*
X80478093Y-43110000D01*
X80382855Y-43014762D01*
X80287616Y-42824286D01*
X80287616Y-42633810D01*
X80382855Y-42348095D01*
X81525712Y-41205238D01*
X80287616Y-41205238D01*
X78573331Y-43205238D02*
X78954283Y-43205238D01*
X79144759Y-43110000D01*
X79239997Y-43014762D01*
X79430474Y-42729048D01*
X79525712Y-42348095D01*
X79525712Y-41586190D01*
X79430474Y-41395714D01*
X79335235Y-41300476D01*
X79144759Y-41205238D01*
X78763807Y-41205238D01*
X78573331Y-41300476D01*
X78478093Y-41395714D01*
X78382854Y-41586190D01*
X78382854Y-42062381D01*
X78478093Y-42252857D01*
X78573331Y-42348095D01*
X78763807Y-42443333D01*
X79144759Y-42443333D01*
X79335235Y-42348095D01*
X79430474Y-42252857D01*
X79525712Y-42062381D01*
X116463804Y-43014762D02*
X116368566Y-43110000D01*
X116178089Y-43205238D01*
X115701899Y-43205238D01*
X115511423Y-43110000D01*
X115416185Y-43014762D01*
X115320946Y-42824286D01*
X115320946Y-42633810D01*
X115416185Y-42348095D01*
X116559042Y-41205238D01*
X115320946Y-41205238D01*
X113416184Y-41205238D02*
X114559042Y-41205238D01*
X113987613Y-41205238D02*
X113987613Y-43205238D01*
X114178089Y-42919524D01*
X114368565Y-42729048D01*
X114559042Y-42633810D01*
X102450472Y-43014762D02*
X102355234Y-43110000D01*
X102164757Y-43205238D01*
X101688567Y-43205238D01*
X101498091Y-43110000D01*
X101402853Y-43014762D01*
X101307614Y-42824286D01*
X101307614Y-42633810D01*
X101402853Y-42348095D01*
X102545710Y-41205238D01*
X101307614Y-41205238D01*
X100640948Y-43205238D02*
X99402852Y-43205238D01*
X100069519Y-42443333D01*
X99783805Y-42443333D01*
X99593329Y-42348095D01*
X99498091Y-42252857D01*
X99402852Y-42062381D01*
X99402852Y-41586190D01*
X99498091Y-41395714D01*
X99593329Y-41300476D01*
X99783805Y-41205238D01*
X100355233Y-41205238D01*
X100545710Y-41300476D01*
X100640948Y-41395714D01*
X88437140Y-43014762D02*
X88341902Y-43110000D01*
X88151425Y-43205238D01*
X87675235Y-43205238D01*
X87484759Y-43110000D01*
X87389521Y-43014762D01*
X87294282Y-42824286D01*
X87294282Y-42633810D01*
X87389521Y-42348095D01*
X88532378Y-41205238D01*
X87294282Y-41205238D01*
X85484759Y-43205238D02*
X86437140Y-43205238D01*
X86532378Y-42252857D01*
X86437140Y-42348095D01*
X86246663Y-42443333D01*
X85770473Y-42443333D01*
X85579997Y-42348095D01*
X85484759Y-42252857D01*
X85389520Y-42062381D01*
X85389520Y-41586190D01*
X85484759Y-41395714D01*
X85579997Y-41300476D01*
X85770473Y-41205238D01*
X86246663Y-41205238D01*
X86437140Y-41300476D01*
X86532378Y-41395714D01*
X74423808Y-43014762D02*
X74328570Y-43110000D01*
X74138093Y-43205238D01*
X73661903Y-43205238D01*
X73471427Y-43110000D01*
X73376189Y-43014762D01*
X73280950Y-42824286D01*
X73280950Y-42633810D01*
X73376189Y-42348095D01*
X74519046Y-41205238D01*
X73280950Y-41205238D01*
X72614284Y-43205238D02*
X71280950Y-43205238D01*
X72138093Y-41205238D01*
X67417142Y-43014762D02*
X67321904Y-43110000D01*
X67131427Y-43205238D01*
X66655237Y-43205238D01*
X66464761Y-43110000D01*
X66369523Y-43014762D01*
X66274284Y-42824286D01*
X66274284Y-42633810D01*
X66369523Y-42348095D01*
X67512380Y-41205238D01*
X66274284Y-41205238D01*
X65131427Y-42348095D02*
X65321903Y-42443333D01*
X65417142Y-42538571D01*
X65512380Y-42729048D01*
X65512380Y-42824286D01*
X65417142Y-43014762D01*
X65321903Y-43110000D01*
X65131427Y-43205238D01*
X64750475Y-43205238D01*
X64559999Y-43110000D01*
X64464761Y-43014762D01*
X64369522Y-42824286D01*
X64369522Y-42729048D01*
X64464761Y-42538571D01*
X64559999Y-42443333D01*
X64750475Y-42348095D01*
X65131427Y-42348095D01*
X65321903Y-42252857D01*
X65417142Y-42157619D01*
X65512380Y-41967143D01*
X65512380Y-41586190D01*
X65417142Y-41395714D01*
X65321903Y-41300476D01*
X65131427Y-41205238D01*
X64750475Y-41205238D01*
X64559999Y-41300476D01*
X64464761Y-41395714D01*
X64369522Y-41586190D01*
X64369522Y-41967143D01*
X64464761Y-42157619D01*
X64559999Y-42252857D01*
X64750475Y-42348095D01*
X60410476Y-43014762D02*
X60315238Y-43110000D01*
X60124761Y-43205238D01*
X59648571Y-43205238D01*
X59458095Y-43110000D01*
X59362857Y-43014762D01*
X59267618Y-42824286D01*
X59267618Y-42633810D01*
X59362857Y-42348095D01*
X60505714Y-41205238D01*
X59267618Y-41205238D01*
X58315237Y-41205238D02*
X57934285Y-41205238D01*
X57743809Y-41300476D01*
X57648571Y-41395714D01*
X57458095Y-41681429D01*
X57362856Y-42062381D01*
X57362856Y-42824286D01*
X57458095Y-43014762D01*
X57553333Y-43110000D01*
X57743809Y-43205238D01*
X58124761Y-43205238D01*
X58315237Y-43110000D01*
X58410476Y-43014762D01*
X58505714Y-42824286D01*
X58505714Y-42348095D01*
X58410476Y-42157619D01*
X58315237Y-42062381D01*
X58124761Y-41967143D01*
X57743809Y-41967143D01*
X57553333Y-42062381D01*
X57458095Y-42157619D01*
X57362856Y-42348095D01*
X53499048Y-43205238D02*
X52260952Y-43205238D01*
X52927619Y-42443333D01*
X52641905Y-42443333D01*
X52451429Y-42348095D01*
X52356191Y-42252857D01*
X52260952Y-42062381D01*
X52260952Y-41586190D01*
X52356191Y-41395714D01*
X52451429Y-41300476D01*
X52641905Y-41205238D01*
X53213333Y-41205238D01*
X53403810Y-41300476D01*
X53499048Y-41395714D01*
X51022857Y-43205238D02*
X50832381Y-43205238D01*
X50641905Y-43110000D01*
X50546667Y-43014762D01*
X50451429Y-42824286D01*
X50356190Y-42443333D01*
X50356190Y-41967143D01*
X50451429Y-41586190D01*
X50546667Y-41395714D01*
X50641905Y-41300476D01*
X50832381Y-41205238D01*
X51022857Y-41205238D01*
X51213333Y-41300476D01*
X51308571Y-41395714D01*
X51403810Y-41586190D01*
X51499048Y-41967143D01*
X51499048Y-42443333D01*
X51403810Y-42824286D01*
X51308571Y-43014762D01*
X51213333Y-43110000D01*
X51022857Y-43205238D01*
X101198571Y-108294285D02*
X101198571Y-107437142D01*
X102698571Y-107865713D02*
X101198571Y-107865713D01*
X102698571Y-106079999D02*
X101984286Y-106579999D01*
X102698571Y-106937142D02*
X101198571Y-106937142D01*
X101198571Y-106365714D01*
X101270000Y-106222856D01*
X101341429Y-106151428D01*
X101484286Y-106079999D01*
X101698571Y-106079999D01*
X101841429Y-106151428D01*
X101912857Y-106222856D01*
X101984286Y-106365714D01*
X101984286Y-106937142D01*
X102270000Y-105508571D02*
X102270000Y-104794285D01*
X102698571Y-105651428D02*
X101198571Y-105151428D01*
X102698571Y-104651428D01*
X101912857Y-103651428D02*
X101912857Y-104151428D01*
X102698571Y-104151428D02*
X101198571Y-104151428D01*
X101198571Y-103437142D01*
X101912857Y-102365714D02*
X101912857Y-102865714D01*
X102698571Y-102865714D02*
X101198571Y-102865714D01*
X101198571Y-102151428D01*
X102698571Y-101580000D02*
X101198571Y-101580000D01*
X102555714Y-100008571D02*
X102627143Y-100080000D01*
X102698571Y-100294286D01*
X102698571Y-100437143D01*
X102627143Y-100651428D01*
X102484286Y-100794286D01*
X102341429Y-100865714D01*
X102055714Y-100937143D01*
X101841429Y-100937143D01*
X101555714Y-100865714D01*
X101412857Y-100794286D01*
X101270000Y-100651428D01*
X101198571Y-100437143D01*
X101198571Y-100294286D01*
X101270000Y-100080000D01*
X101341429Y-100008571D01*
X99822857Y-107107143D02*
X99822857Y-106607143D01*
X100608571Y-106392857D02*
X100608571Y-107107143D01*
X99108571Y-107107143D01*
X99108571Y-106392857D01*
X100608571Y-104892857D02*
X99894286Y-105392857D01*
X100608571Y-105750000D02*
X99108571Y-105750000D01*
X99108571Y-105178572D01*
X99180000Y-105035714D01*
X99251429Y-104964286D01*
X99394286Y-104892857D01*
X99608571Y-104892857D01*
X99751429Y-104964286D01*
X99822857Y-105035714D01*
X99894286Y-105178572D01*
X99894286Y-105750000D01*
X100608571Y-103392857D02*
X99894286Y-103892857D01*
X100608571Y-104250000D02*
X99108571Y-104250000D01*
X99108571Y-103678572D01*
X99180000Y-103535714D01*
X99251429Y-103464286D01*
X99394286Y-103392857D01*
X99608571Y-103392857D01*
X99751429Y-103464286D01*
X99822857Y-103535714D01*
X99894286Y-103678572D01*
X99894286Y-104250000D01*
X99108571Y-102464286D02*
X99108571Y-102178572D01*
X99180000Y-102035714D01*
X99322857Y-101892857D01*
X99608571Y-101821429D01*
X100108571Y-101821429D01*
X100394286Y-101892857D01*
X100537143Y-102035714D01*
X100608571Y-102178572D01*
X100608571Y-102464286D01*
X100537143Y-102607143D01*
X100394286Y-102750000D01*
X100108571Y-102821429D01*
X99608571Y-102821429D01*
X99322857Y-102750000D01*
X99180000Y-102607143D01*
X99108571Y-102464286D01*
X100608571Y-100321428D02*
X99894286Y-100821428D01*
X100608571Y-101178571D02*
X99108571Y-101178571D01*
X99108571Y-100607143D01*
X99180000Y-100464285D01*
X99251429Y-100392857D01*
X99394286Y-100321428D01*
X99608571Y-100321428D01*
X99751429Y-100392857D01*
X99822857Y-100464285D01*
X99894286Y-100607143D01*
X99894286Y-101178571D01*
X98467143Y-107404285D02*
X98538571Y-107189999D01*
X98538571Y-106832856D01*
X98467143Y-106689999D01*
X98395714Y-106618570D01*
X98252857Y-106547142D01*
X98110000Y-106547142D01*
X97967143Y-106618570D01*
X97895714Y-106689999D01*
X97824286Y-106832856D01*
X97752857Y-107118570D01*
X97681429Y-107261428D01*
X97610000Y-107332856D01*
X97467143Y-107404285D01*
X97324286Y-107404285D01*
X97181429Y-107332856D01*
X97110000Y-107261428D01*
X97038571Y-107118570D01*
X97038571Y-106761428D01*
X97110000Y-106547142D01*
X97038571Y-106118571D02*
X97038571Y-105261428D01*
X98538571Y-105689999D02*
X97038571Y-105689999D01*
X98110000Y-104832857D02*
X98110000Y-104118571D01*
X98538571Y-104975714D02*
X97038571Y-104475714D01*
X98538571Y-103975714D01*
X97038571Y-103690000D02*
X97038571Y-102832857D01*
X98538571Y-103261428D02*
X97038571Y-103261428D01*
X97038571Y-102332857D02*
X98252857Y-102332857D01*
X98395714Y-102261429D01*
X98467143Y-102190000D01*
X98538571Y-102047143D01*
X98538571Y-101761429D01*
X98467143Y-101618571D01*
X98395714Y-101547143D01*
X98252857Y-101475714D01*
X97038571Y-101475714D01*
X98467143Y-100832857D02*
X98538571Y-100618571D01*
X98538571Y-100261428D01*
X98467143Y-100118571D01*
X98395714Y-100047142D01*
X98252857Y-99975714D01*
X98110000Y-99975714D01*
X97967143Y-100047142D01*
X97895714Y-100118571D01*
X97824286Y-100261428D01*
X97752857Y-100547142D01*
X97681429Y-100690000D01*
X97610000Y-100761428D01*
X97467143Y-100832857D01*
X97324286Y-100832857D01*
X97181429Y-100761428D01*
X97110000Y-100690000D01*
X97038571Y-100547142D01*
X97038571Y-100190000D01*
X97110000Y-99975714D01*
X74387143Y-99980000D02*
X75101429Y-99980000D01*
X74244286Y-100408571D02*
X74744286Y-98908571D01*
X75244286Y-100408571D01*
X76601429Y-100408571D02*
X76101429Y-99694286D01*
X75744286Y-100408571D02*
X75744286Y-98908571D01*
X76315714Y-98908571D01*
X76458572Y-98980000D01*
X76530000Y-99051429D01*
X76601429Y-99194286D01*
X76601429Y-99408571D01*
X76530000Y-99551429D01*
X76458572Y-99622857D01*
X76315714Y-99694286D01*
X75744286Y-99694286D01*
X77244286Y-100408571D02*
X77244286Y-98908571D01*
X77744286Y-99980000D01*
X78244286Y-98908571D01*
X78244286Y-100408571D01*
X78958572Y-99622857D02*
X79458572Y-99622857D01*
X79672858Y-100408571D02*
X78958572Y-100408571D01*
X78958572Y-98908571D01*
X79672858Y-98908571D01*
X80315715Y-100408571D02*
X80315715Y-98908571D01*
X80672858Y-98908571D01*
X80887143Y-98980000D01*
X81030001Y-99122857D01*
X81101429Y-99265714D01*
X81172858Y-99551429D01*
X81172858Y-99765714D01*
X81101429Y-100051429D01*
X81030001Y-100194286D01*
X80887143Y-100337143D01*
X80672858Y-100408571D01*
X80315715Y-100408571D01*
X81317143Y-84869999D02*
X81317143Y-83727142D01*
X81888571Y-84298571D02*
X80745714Y-84298571D01*
X80388571Y-83155713D02*
X80388571Y-82227142D01*
X80960000Y-82727142D01*
X80960000Y-82512856D01*
X81031429Y-82369999D01*
X81102857Y-82298570D01*
X81245714Y-82227142D01*
X81602857Y-82227142D01*
X81745714Y-82298570D01*
X81817143Y-82369999D01*
X81888571Y-82512856D01*
X81888571Y-82941428D01*
X81817143Y-83084285D01*
X81745714Y-83155713D01*
X81745714Y-81584285D02*
X81817143Y-81512857D01*
X81888571Y-81584285D01*
X81817143Y-81655714D01*
X81745714Y-81584285D01*
X81888571Y-81584285D01*
X80388571Y-81012856D02*
X80388571Y-80084285D01*
X80960000Y-80584285D01*
X80960000Y-80369999D01*
X81031429Y-80227142D01*
X81102857Y-80155713D01*
X81245714Y-80084285D01*
X81602857Y-80084285D01*
X81745714Y-80155713D01*
X81817143Y-80227142D01*
X81888571Y-80369999D01*
X81888571Y-80798571D01*
X81817143Y-80941428D01*
X81745714Y-81012856D01*
X80388571Y-79655714D02*
X81888571Y-79155714D01*
X80388571Y-78655714D01*
X69938571Y-60198571D02*
X69938571Y-60912857D01*
X68438571Y-60912857D01*
X69938571Y-59698571D02*
X68438571Y-59698571D01*
X69938571Y-58984285D02*
X68438571Y-58984285D01*
X69938571Y-58127142D01*
X68438571Y-58127142D01*
X69938571Y-57412856D02*
X68438571Y-57412856D01*
X69938571Y-56555713D02*
X69081429Y-57198570D01*
X68438571Y-56555713D02*
X69295714Y-57412856D01*
X77767143Y-84802856D02*
X77767143Y-83659999D01*
X78338571Y-84231428D02*
X77195714Y-84231428D01*
X77338571Y-82302856D02*
X78338571Y-82302856D01*
X76767143Y-82659999D02*
X77838571Y-83017142D01*
X77838571Y-82088570D01*
X77481429Y-81302856D02*
X77410000Y-81445714D01*
X77338571Y-81517142D01*
X77195714Y-81588571D01*
X77124286Y-81588571D01*
X76981429Y-81517142D01*
X76910000Y-81445714D01*
X76838571Y-81302856D01*
X76838571Y-81017142D01*
X76910000Y-80874285D01*
X76981429Y-80802856D01*
X77124286Y-80731428D01*
X77195714Y-80731428D01*
X77338571Y-80802856D01*
X77410000Y-80874285D01*
X77481429Y-81017142D01*
X77481429Y-81302856D01*
X77552857Y-81445714D01*
X77624286Y-81517142D01*
X77767143Y-81588571D01*
X78052857Y-81588571D01*
X78195714Y-81517142D01*
X78267143Y-81445714D01*
X78338571Y-81302856D01*
X78338571Y-81017142D01*
X78267143Y-80874285D01*
X78195714Y-80802856D01*
X78052857Y-80731428D01*
X77767143Y-80731428D01*
X77624286Y-80802856D01*
X77552857Y-80874285D01*
X77481429Y-81017142D01*
X76838571Y-80302857D02*
X78338571Y-79802857D01*
X76838571Y-79302857D01*
X41928572Y-79063571D02*
X41642858Y-79063571D01*
X41500001Y-79135000D01*
X41428572Y-79206429D01*
X41285715Y-79420714D01*
X41214286Y-79706429D01*
X41214286Y-80277857D01*
X41285715Y-80420714D01*
X41357143Y-80492143D01*
X41500001Y-80563571D01*
X41785715Y-80563571D01*
X41928572Y-80492143D01*
X42000001Y-80420714D01*
X42071429Y-80277857D01*
X42071429Y-79920714D01*
X42000001Y-79777857D01*
X41928572Y-79706429D01*
X41785715Y-79635000D01*
X41500001Y-79635000D01*
X41357143Y-79706429D01*
X41285715Y-79777857D01*
X41214286Y-79920714D01*
X42714286Y-79992143D02*
X43857143Y-79992143D01*
X45357143Y-80563571D02*
X44500000Y-80563571D01*
X44928572Y-80563571D02*
X44928572Y-79063571D01*
X44785715Y-79277857D01*
X44642857Y-79420714D01*
X44500000Y-79492143D01*
X45928571Y-79206429D02*
X46000000Y-79135000D01*
X46142857Y-79063571D01*
X46500000Y-79063571D01*
X46642857Y-79135000D01*
X46714286Y-79206429D01*
X46785714Y-79349286D01*
X46785714Y-79492143D01*
X46714286Y-79706429D01*
X45857143Y-80563571D01*
X46785714Y-80563571D01*
X42000000Y-81613571D02*
X42500000Y-83113571D01*
X43000000Y-81613571D01*
X43500000Y-83113571D02*
X43500000Y-81613571D01*
X43857143Y-81613571D01*
X44071428Y-81685000D01*
X44214286Y-81827857D01*
X44285714Y-81970714D01*
X44357143Y-82256429D01*
X44357143Y-82470714D01*
X44285714Y-82756429D01*
X44214286Y-82899286D01*
X44071428Y-83042143D01*
X43857143Y-83113571D01*
X43500000Y-83113571D01*
X45857143Y-82970714D02*
X45785714Y-83042143D01*
X45571428Y-83113571D01*
X45428571Y-83113571D01*
X45214286Y-83042143D01*
X45071428Y-82899286D01*
X45000000Y-82756429D01*
X44928571Y-82470714D01*
X44928571Y-82256429D01*
X45000000Y-81970714D01*
X45071428Y-81827857D01*
X45214286Y-81685000D01*
X45428571Y-81613571D01*
X45571428Y-81613571D01*
X45785714Y-81685000D01*
X45857143Y-81756429D01*
X42107143Y-106108571D02*
X42107143Y-104965714D01*
X42678571Y-105537143D02*
X41535714Y-105537143D01*
X41178571Y-103608571D02*
X41178571Y-103894285D01*
X41250000Y-104037142D01*
X41321429Y-104108571D01*
X41535714Y-104251428D01*
X41821429Y-104322857D01*
X42392857Y-104322857D01*
X42535714Y-104251428D01*
X42607143Y-104180000D01*
X42678571Y-104037142D01*
X42678571Y-103751428D01*
X42607143Y-103608571D01*
X42535714Y-103537142D01*
X42392857Y-103465714D01*
X42035714Y-103465714D01*
X41892857Y-103537142D01*
X41821429Y-103608571D01*
X41750000Y-103751428D01*
X41750000Y-104037142D01*
X41821429Y-104180000D01*
X41892857Y-104251428D01*
X42035714Y-104322857D01*
X41178571Y-103037143D02*
X42678571Y-102537143D01*
X41178571Y-102037143D01*
X47957143Y-126948571D02*
X47957143Y-125805714D01*
X48528571Y-126377143D02*
X47385714Y-126377143D01*
X47028571Y-124377142D02*
X47028571Y-125091428D01*
X47742857Y-125162857D01*
X47671429Y-125091428D01*
X47600000Y-124948571D01*
X47600000Y-124591428D01*
X47671429Y-124448571D01*
X47742857Y-124377142D01*
X47885714Y-124305714D01*
X48242857Y-124305714D01*
X48385714Y-124377142D01*
X48457143Y-124448571D01*
X48528571Y-124591428D01*
X48528571Y-124948571D01*
X48457143Y-125091428D01*
X48385714Y-125162857D01*
X47028571Y-123877143D02*
X48528571Y-123377143D01*
X47028571Y-122877143D01*
D14*
X73025000Y-114125000D02*
X72775000Y-114125000D01*
X72775000Y-114125000D02*
X72775000Y-113475000D01*
X72775000Y-113475000D02*
X73025000Y-113475000D01*
X73025000Y-113475000D02*
X73025000Y-114125000D01*
X72830000Y-66310000D02*
X73180000Y-65960000D01*
X76480000Y-65960000D02*
X76830000Y-65960000D01*
X76830000Y-65960000D02*
X76830000Y-66310000D01*
X76480000Y-69960000D02*
X76830000Y-69960000D01*
X76830000Y-69960000D02*
X76830000Y-69610000D01*
X73180000Y-69960000D02*
X72830000Y-69960000D01*
X72830000Y-69960000D02*
X72830000Y-69610000D01*
X86645000Y-80925000D02*
X86395000Y-80925000D01*
X86395000Y-80925000D02*
X86395000Y-80275000D01*
X86395000Y-80275000D02*
X86645000Y-80275000D01*
X86645000Y-80275000D02*
X86645000Y-80925000D01*
X107845000Y-88475000D02*
X107845000Y-88725000D01*
X107845000Y-88725000D02*
X107195000Y-88725000D01*
X107195000Y-88725000D02*
X107195000Y-88475000D01*
X107195000Y-88475000D02*
X107845000Y-88475000D01*
X112395000Y-73075000D02*
X112645000Y-73075000D01*
X112645000Y-73075000D02*
X112645000Y-73725000D01*
X112645000Y-73725000D02*
X112395000Y-73725000D01*
X112395000Y-73725000D02*
X112395000Y-73075000D01*
X90545000Y-72725000D02*
X90295000Y-72725000D01*
X90295000Y-72725000D02*
X90295000Y-72075000D01*
X90295000Y-72075000D02*
X90545000Y-72075000D01*
X90545000Y-72075000D02*
X90545000Y-72725000D01*
X90345000Y-83225000D02*
X90095000Y-83225000D01*
X90095000Y-83225000D02*
X90095000Y-82575000D01*
X90095000Y-82575000D02*
X90345000Y-82575000D01*
X90345000Y-82575000D02*
X90345000Y-83225000D01*
X90345000Y-84525000D02*
X90095000Y-84525000D01*
X90095000Y-84525000D02*
X90095000Y-83875000D01*
X90095000Y-83875000D02*
X90345000Y-83875000D01*
X90345000Y-83875000D02*
X90345000Y-84525000D01*
X90545000Y-74625000D02*
X90295000Y-74625000D01*
X90295000Y-74625000D02*
X90295000Y-73975000D01*
X90295000Y-73975000D02*
X90545000Y-73975000D01*
X90545000Y-73975000D02*
X90545000Y-74625000D01*
X90345000Y-81925000D02*
X90095000Y-81925000D01*
X90095000Y-81925000D02*
X90095000Y-81275000D01*
X90095000Y-81275000D02*
X90345000Y-81275000D01*
X90345000Y-81275000D02*
X90345000Y-81925000D01*
X90545000Y-75925000D02*
X90295000Y-75925000D01*
X90295000Y-75925000D02*
X90295000Y-75275000D01*
X90295000Y-75275000D02*
X90545000Y-75275000D01*
X90545000Y-75275000D02*
X90545000Y-75925000D01*
X94635000Y-68075000D02*
X94885000Y-68075000D01*
X94885000Y-68075000D02*
X94885000Y-68725000D01*
X94885000Y-68725000D02*
X94635000Y-68725000D01*
X94635000Y-68725000D02*
X94635000Y-68075000D01*
X109145000Y-88475000D02*
X109145000Y-88725000D01*
X109145000Y-88725000D02*
X108495000Y-88725000D01*
X108495000Y-88725000D02*
X108495000Y-88475000D01*
X108495000Y-88475000D02*
X109145000Y-88475000D01*
X112395000Y-71275000D02*
X112645000Y-71275000D01*
X112645000Y-71275000D02*
X112645000Y-71925000D01*
X112645000Y-71925000D02*
X112395000Y-71925000D01*
X112395000Y-71925000D02*
X112395000Y-71275000D01*
X96035000Y-87865000D02*
X95785000Y-87865000D01*
X95785000Y-87865000D02*
X95785000Y-87215000D01*
X95785000Y-87215000D02*
X96035000Y-87215000D01*
X96035000Y-87215000D02*
X96035000Y-87865000D01*
X83195000Y-95265000D02*
X83195000Y-96715000D01*
X83195000Y-96715000D02*
X81745000Y-96715000D01*
X81745000Y-96715000D02*
X81745000Y-95265000D01*
X81745000Y-95265000D02*
X83195000Y-95265000D01*
X82335000Y-92145000D02*
X82335000Y-91895000D01*
X82335000Y-91895000D02*
X82985000Y-91895000D01*
X82985000Y-91895000D02*
X82985000Y-92145000D01*
X82985000Y-92145000D02*
X82335000Y-92145000D01*
X85445000Y-90725000D02*
X85195000Y-90725000D01*
X85195000Y-90725000D02*
X85195000Y-90075000D01*
X85195000Y-90075000D02*
X85445000Y-90075000D01*
X85445000Y-90075000D02*
X85445000Y-90725000D01*
X88795000Y-97865000D02*
X87345000Y-97865000D01*
X87345000Y-97865000D02*
X87345000Y-96415000D01*
X87345000Y-96415000D02*
X88795000Y-96415000D01*
X88795000Y-96415000D02*
X88795000Y-97865000D01*
X68450000Y-78375000D02*
X68450000Y-78625000D01*
X68450000Y-78625000D02*
X67350000Y-78625000D01*
X67350000Y-78625000D02*
X67350000Y-78375000D01*
X67350000Y-78375000D02*
X68450000Y-78375000D01*
X57950000Y-77225000D02*
X57950000Y-77475000D01*
X57950000Y-77475000D02*
X56850000Y-77475000D01*
X56850000Y-77475000D02*
X56850000Y-77225000D01*
X56850000Y-77225000D02*
X57950000Y-77225000D01*
X64950000Y-77225000D02*
X64950000Y-77475000D01*
X64950000Y-77475000D02*
X63850000Y-77475000D01*
X63850000Y-77475000D02*
X63850000Y-77225000D01*
X63850000Y-77225000D02*
X64950000Y-77225000D01*
X61450000Y-77225000D02*
X61450000Y-77475000D01*
X61450000Y-77475000D02*
X60350000Y-77475000D01*
X60350000Y-77475000D02*
X60350000Y-77225000D01*
X60350000Y-77225000D02*
X61450000Y-77225000D01*
X67605000Y-94630000D02*
X67855000Y-94630000D01*
X67855000Y-94630000D02*
X67855000Y-95730000D01*
X67855000Y-95730000D02*
X67605000Y-95730000D01*
X67605000Y-95730000D02*
X67605000Y-94630000D01*
X73025000Y-76575000D02*
X73275000Y-76575000D01*
X73275000Y-76575000D02*
X73275000Y-77225000D01*
X73275000Y-77225000D02*
X73025000Y-77225000D01*
X73025000Y-77225000D02*
X73025000Y-76575000D01*
X60685000Y-61945000D02*
X60435000Y-61945000D01*
X60435000Y-61945000D02*
X60435000Y-61295000D01*
X60435000Y-61295000D02*
X60685000Y-61295000D01*
X60685000Y-61295000D02*
X60685000Y-61945000D01*
X74175000Y-62425000D02*
X74175000Y-62175000D01*
X74175000Y-62175000D02*
X74825000Y-62175000D01*
X74825000Y-62175000D02*
X74825000Y-62425000D01*
X74825000Y-62425000D02*
X74175000Y-62425000D01*
X72675000Y-62425000D02*
X72675000Y-62175000D01*
X72675000Y-62175000D02*
X73325000Y-62175000D01*
X73325000Y-62175000D02*
X73325000Y-62425000D01*
X73325000Y-62425000D02*
X72675000Y-62425000D01*
X73255000Y-75735000D02*
X73005000Y-75735000D01*
X73005000Y-75735000D02*
X73005000Y-75085000D01*
X73005000Y-75085000D02*
X73255000Y-75085000D01*
X73255000Y-75085000D02*
X73255000Y-75735000D01*
X55825000Y-100275000D02*
X55825000Y-101725000D01*
X55825000Y-101725000D02*
X53475000Y-101725000D01*
X53475000Y-101725000D02*
X53475000Y-100275000D01*
X53475000Y-100275000D02*
X55825000Y-100275000D01*
X69905000Y-75085000D02*
X70155000Y-75085000D01*
X70155000Y-75085000D02*
X70155000Y-75735000D01*
X70155000Y-75735000D02*
X69905000Y-75735000D01*
X69905000Y-75735000D02*
X69905000Y-75085000D01*
X80405000Y-70025000D02*
X80405000Y-68575000D01*
X80405000Y-68575000D02*
X81855000Y-68575000D01*
X81855000Y-68575000D02*
X81855000Y-70025000D01*
X81855000Y-70025000D02*
X80405000Y-70025000D01*
X45305000Y-99005000D02*
X45305000Y-98755000D01*
X45305000Y-98755000D02*
X45955000Y-98755000D01*
X45955000Y-98755000D02*
X45955000Y-99005000D01*
X45955000Y-99005000D02*
X45305000Y-99005000D01*
X79155000Y-69285000D02*
X79155000Y-69035000D01*
X79155000Y-69035000D02*
X79805000Y-69035000D01*
X79805000Y-69035000D02*
X79805000Y-69285000D01*
X79805000Y-69285000D02*
X79155000Y-69285000D01*
X68875000Y-65725000D02*
X68875000Y-64275000D01*
X68875000Y-64275000D02*
X70325000Y-64275000D01*
X70325000Y-64275000D02*
X70325000Y-65725000D01*
X70325000Y-65725000D02*
X68875000Y-65725000D01*
X71205000Y-65945000D02*
X71205000Y-65695000D01*
X71205000Y-65695000D02*
X71855000Y-65695000D01*
X71855000Y-65695000D02*
X71855000Y-65945000D01*
X71855000Y-65945000D02*
X71205000Y-65945000D01*
X48725000Y-103925000D02*
X48975000Y-103925000D01*
X48975000Y-103925000D02*
X48975000Y-104575000D01*
X48975000Y-104575000D02*
X48725000Y-104575000D01*
X48725000Y-104575000D02*
X48725000Y-103925000D01*
X52525000Y-100025000D02*
X52525000Y-100275000D01*
X52525000Y-100275000D02*
X51875000Y-100275000D01*
X51875000Y-100275000D02*
X51875000Y-100025000D01*
X51875000Y-100025000D02*
X52525000Y-100025000D01*
X75675000Y-62425000D02*
X75675000Y-62175000D01*
X75675000Y-62175000D02*
X76325000Y-62175000D01*
X76325000Y-62175000D02*
X76325000Y-62425000D01*
X76325000Y-62425000D02*
X75675000Y-62425000D01*
X52075000Y-106475000D02*
X52075000Y-105025000D01*
X52075000Y-105025000D02*
X53525000Y-105025000D01*
X53525000Y-105025000D02*
X53525000Y-106475000D01*
X53525000Y-106475000D02*
X52075000Y-106475000D01*
X54425000Y-106475000D02*
X54425000Y-105025000D01*
X54425000Y-105025000D02*
X55875000Y-105025000D01*
X55875000Y-105025000D02*
X55875000Y-106475000D01*
X55875000Y-106475000D02*
X54425000Y-106475000D01*
X72615000Y-108435000D02*
X72615000Y-106985000D01*
X72615000Y-106985000D02*
X74065000Y-106985000D01*
X74065000Y-106985000D02*
X74065000Y-108435000D01*
X74065000Y-108435000D02*
X72615000Y-108435000D01*
X78665000Y-115010000D02*
X78415000Y-115010000D01*
X78415000Y-115010000D02*
X78415000Y-113910000D01*
X78415000Y-113910000D02*
X78665000Y-113910000D01*
X78665000Y-113910000D02*
X78665000Y-115010000D01*
X81955000Y-110285000D02*
X81955000Y-110035000D01*
X81955000Y-110035000D02*
X82605000Y-110035000D01*
X82605000Y-110035000D02*
X82605000Y-110285000D01*
X82605000Y-110285000D02*
X81955000Y-110285000D01*
X76465000Y-107185000D02*
X76715000Y-107185000D01*
X76715000Y-107185000D02*
X76715000Y-107835000D01*
X76715000Y-107835000D02*
X76465000Y-107835000D01*
X76465000Y-107835000D02*
X76465000Y-107185000D01*
X85685000Y-112315000D02*
X85935000Y-112315000D01*
X85935000Y-112315000D02*
X85935000Y-112965000D01*
X85935000Y-112965000D02*
X85685000Y-112965000D01*
X85685000Y-112965000D02*
X85685000Y-112315000D01*
X63500000Y-82950000D02*
X65395000Y-84350000D01*
X63500000Y-82950000D02*
X61605000Y-84350000D01*
X65395000Y-84350000D02*
X61605000Y-84350000D01*
X63500000Y-90250000D02*
X65395000Y-91650000D01*
X63500000Y-90250000D02*
X61605000Y-91650000D01*
X65395000Y-91650000D02*
X61605000Y-91650000D01*
X59000000Y-82950000D02*
X60895000Y-84350000D01*
X59000000Y-82950000D02*
X57105000Y-84350000D01*
X60895000Y-84350000D02*
X57105000Y-84350000D01*
X59000000Y-90250000D02*
X60895000Y-91650000D01*
X59000000Y-90250000D02*
X57105000Y-91650000D01*
X60895000Y-91650000D02*
X57105000Y-91650000D01*
X50000000Y-82950000D02*
X51895000Y-84350000D01*
X50000000Y-82950000D02*
X48105000Y-84350000D01*
X51895000Y-84350000D02*
X48105000Y-84350000D01*
X50050000Y-90250000D02*
X51945000Y-91650000D01*
X50050000Y-90250000D02*
X48155000Y-91650000D01*
X51945000Y-91650000D02*
X48155000Y-91650000D01*
X54500000Y-82950000D02*
X56395000Y-84350000D01*
X54500000Y-82950000D02*
X52605000Y-84350000D01*
X56395000Y-84350000D02*
X52605000Y-84350000D01*
X54500000Y-90300000D02*
X56395000Y-91700000D01*
X54500000Y-90300000D02*
X52605000Y-91700000D01*
X56395000Y-91700000D02*
X52605000Y-91700000D01*
X68750000Y-92500000D02*
X69850000Y-91115000D01*
X68750000Y-92500000D02*
X69850000Y-93885000D01*
X69850000Y-91115000D02*
X69850000Y-93885000D01*
X79800000Y-61600000D02*
X79800000Y-62900000D01*
X79800000Y-62900000D02*
X78600000Y-62900000D01*
X78600000Y-62900000D02*
X78600000Y-61600000D01*
X78600000Y-61600000D02*
X79800000Y-61600000D01*
X79800000Y-61925000D02*
X78600000Y-61925000D01*
X95888582Y-95436758D02*
X94588582Y-95436758D01*
X94588582Y-95436758D02*
X94588582Y-94236758D01*
X94588582Y-94236758D02*
X95888582Y-94236758D01*
X95888582Y-94236758D02*
X95888582Y-95436758D01*
X95563582Y-95436758D02*
X95563582Y-94236758D01*
X95868582Y-93766758D02*
X94568582Y-93766758D01*
X94568582Y-93766758D02*
X94568582Y-92566758D01*
X94568582Y-92566758D02*
X95868582Y-92566758D01*
X95868582Y-92566758D02*
X95868582Y-93766758D01*
X95543582Y-93766758D02*
X95543582Y-92566758D01*
X83540000Y-115710000D02*
X84940000Y-113815000D01*
X83540000Y-115710000D02*
X84940000Y-117605000D01*
X84940000Y-113815000D02*
X84940000Y-117605000D01*
X78990000Y-104410000D02*
X77590000Y-106305000D01*
X78990000Y-104410000D02*
X77590000Y-102515000D01*
X77590000Y-106305000D02*
X77590000Y-102515000D01*
X95570000Y-71650000D02*
X107870000Y-71650000D01*
X107870000Y-71650000D02*
X107870000Y-84550000D01*
X107870000Y-84550000D02*
X94970000Y-84550000D01*
X94970000Y-84550000D02*
X94970000Y-72250000D01*
X94970000Y-72250000D02*
X95570000Y-71650000D01*
X87120000Y-94990000D02*
X86770000Y-95340000D01*
X84470000Y-95340000D02*
X84120000Y-95340000D01*
X84120000Y-95340000D02*
X84120000Y-94990000D01*
X84470000Y-92340000D02*
X84120000Y-92340000D01*
X84120000Y-92340000D02*
X84120000Y-92690000D01*
X86770000Y-92340000D02*
X87120000Y-92340000D01*
X87120000Y-92340000D02*
X87120000Y-92690000D01*
X104800000Y-66780000D02*
X104800000Y-66780000D01*
X104800000Y-66780000D02*
X104800000Y-68680000D01*
X104800000Y-68680000D02*
X104300000Y-68680000D01*
X104300000Y-68680000D02*
X104300000Y-67280000D01*
X104300000Y-67280000D02*
X104800000Y-66780000D01*
X74600000Y-92750000D02*
X77000000Y-92750000D01*
X74000000Y-95750000D02*
X77000000Y-95750000D01*
X74600000Y-92750000D02*
G75*
G03X74000000Y-92750000I-300000J0D01*
G01*
X50350000Y-98950000D02*
X50950000Y-99550000D01*
X50950000Y-102350000D02*
X50950000Y-102950000D01*
X50950000Y-102950000D02*
X50350000Y-102950000D01*
X46950000Y-102350000D02*
X46950000Y-102950000D01*
X46950000Y-102950000D02*
X47550000Y-102950000D01*
X46950000Y-99550000D02*
X46950000Y-98950000D01*
X46950000Y-98950000D02*
X47550000Y-98950000D01*
X89695000Y-94290000D02*
X89695000Y-94890000D01*
X89695000Y-94890000D02*
X88245000Y-94890000D01*
X88245000Y-94890000D02*
X88245000Y-94290000D01*
X88245000Y-94290000D02*
X89695000Y-94290000D01*
X65800000Y-82100000D02*
X65800000Y-88600000D01*
X75800000Y-80600000D02*
X67300000Y-80600000D01*
X74300000Y-90600000D02*
X67800000Y-90600000D01*
X75800000Y-80600000D02*
X75800000Y-89100000D01*
X65800000Y-88600000D02*
X67800000Y-90600000D01*
X67300000Y-80600000D02*
X65800000Y-82100000D01*
X75800000Y-89100000D02*
X74300000Y-90600000D01*
X71825000Y-62175000D02*
X71825000Y-62425000D01*
X71825000Y-62425000D02*
X71175000Y-62425000D01*
X71175000Y-62425000D02*
X71175000Y-62175000D01*
X71175000Y-62175000D02*
X71825000Y-62175000D01*
X68850000Y-97500000D02*
X68850000Y-100250000D01*
X57350000Y-97500000D02*
X68850000Y-97500000D01*
X57350000Y-100250000D02*
X57350000Y-97500000D01*
X57350000Y-109000000D02*
X57350000Y-106250000D01*
X68850000Y-109000000D02*
X68850000Y-106250000D01*
X57350000Y-109000000D02*
X68850000Y-109000000D01*
X68600000Y-103250000D02*
G75*
G03X68600000Y-103250000I-5500000J0D01*
G01*
X95060000Y-99780000D02*
X95060000Y-102530000D01*
X83560000Y-99780000D02*
X95060000Y-99780000D01*
X83560000Y-102530000D02*
X83560000Y-99780000D01*
X83560000Y-111280000D02*
X83560000Y-108530000D01*
X95060000Y-111280000D02*
X95060000Y-108530000D01*
X83560000Y-111280000D02*
X95060000Y-111280000D01*
X94810000Y-105530000D02*
G75*
G03X94810000Y-105530000I-5500000J0D01*
G01*
X52650000Y-121550000D02*
X52650000Y-121550000D01*
X52650000Y-121550000D02*
X52650000Y-123450000D01*
X52650000Y-123450000D02*
X52350000Y-123450000D01*
X52350000Y-123450000D02*
X52350000Y-121850000D01*
X52350000Y-121850000D02*
X52650000Y-121550000D01*
X60160000Y-121540000D02*
X60160000Y-121540000D01*
X60160000Y-121540000D02*
X60160000Y-123440000D01*
X60160000Y-123440000D02*
X59860000Y-123440000D01*
X59860000Y-123440000D02*
X59860000Y-121840000D01*
X59860000Y-121840000D02*
X60160000Y-121540000D01*
X66650000Y-121550000D02*
X66650000Y-121550000D01*
X66650000Y-121550000D02*
X66650000Y-123450000D01*
X66650000Y-123450000D02*
X66350000Y-123450000D01*
X66350000Y-123450000D02*
X66350000Y-121850000D01*
X66350000Y-121850000D02*
X66650000Y-121550000D01*
X73650000Y-121550000D02*
X73650000Y-121550000D01*
X73650000Y-121550000D02*
X73650000Y-123450000D01*
X73650000Y-123450000D02*
X73350000Y-123450000D01*
X73350000Y-123450000D02*
X73350000Y-121850000D01*
X73350000Y-121850000D02*
X73650000Y-121550000D01*
X80650000Y-121550000D02*
X80650000Y-121550000D01*
X80650000Y-121550000D02*
X80650000Y-123450000D01*
X80650000Y-123450000D02*
X80350000Y-123450000D01*
X80350000Y-123450000D02*
X80350000Y-121850000D01*
X80350000Y-121850000D02*
X80650000Y-121550000D01*
X87650000Y-121550000D02*
X87650000Y-121550000D01*
X87650000Y-121550000D02*
X87650000Y-123450000D01*
X87650000Y-123450000D02*
X87350000Y-123450000D01*
X87350000Y-123450000D02*
X87350000Y-121850000D01*
X87350000Y-121850000D02*
X87650000Y-121550000D01*
X94650000Y-121550000D02*
X94650000Y-121550000D01*
X94650000Y-121550000D02*
X94650000Y-123450000D01*
X94650000Y-123450000D02*
X94350000Y-123450000D01*
X94350000Y-123450000D02*
X94350000Y-121850000D01*
X94350000Y-121850000D02*
X94650000Y-121550000D01*
X101650000Y-121550000D02*
X101650000Y-121550000D01*
X101650000Y-121550000D02*
X101650000Y-123450000D01*
X101650000Y-123450000D02*
X101350000Y-123450000D01*
X101350000Y-123450000D02*
X101350000Y-121850000D01*
X101350000Y-121850000D02*
X101650000Y-121550000D01*
X108650000Y-121550000D02*
X108650000Y-121550000D01*
X108650000Y-121550000D02*
X108650000Y-123450000D01*
X108650000Y-123450000D02*
X108350000Y-123450000D01*
X108350000Y-123450000D02*
X108350000Y-121850000D01*
X108350000Y-121850000D02*
X108650000Y-121550000D01*
X115650000Y-121550000D02*
X115650000Y-121550000D01*
X115650000Y-121550000D02*
X115650000Y-123450000D01*
X115650000Y-123450000D02*
X115350000Y-123450000D01*
X115350000Y-123450000D02*
X115350000Y-121850000D01*
X115350000Y-121850000D02*
X115650000Y-121550000D01*
X121550000Y-121350000D02*
X121550000Y-121350000D01*
X121550000Y-121350000D02*
X123450000Y-121350000D01*
X123450000Y-121350000D02*
X123450000Y-121650000D01*
X123450000Y-121650000D02*
X121850000Y-121650000D01*
X121850000Y-121650000D02*
X121550000Y-121350000D01*
X121550000Y-114350000D02*
X121550000Y-114350000D01*
X121550000Y-114350000D02*
X123450000Y-114350000D01*
X123450000Y-114350000D02*
X123450000Y-114650000D01*
X123450000Y-114650000D02*
X121850000Y-114650000D01*
X121850000Y-114650000D02*
X121550000Y-114350000D01*
X121550000Y-107350000D02*
X121550000Y-107350000D01*
X121550000Y-107350000D02*
X123450000Y-107350000D01*
X123450000Y-107350000D02*
X123450000Y-107650000D01*
X123450000Y-107650000D02*
X121850000Y-107650000D01*
X121850000Y-107650000D02*
X121550000Y-107350000D01*
X121550000Y-100800000D02*
X121550000Y-100800000D01*
X121550000Y-100800000D02*
X123450000Y-100800000D01*
X123450000Y-100800000D02*
X123450000Y-101100000D01*
X123450000Y-101100000D02*
X121850000Y-101100000D01*
X121850000Y-101100000D02*
X121550000Y-100800000D01*
X121550000Y-93350000D02*
X121550000Y-93350000D01*
X121550000Y-93350000D02*
X123450000Y-93350000D01*
X123450000Y-93350000D02*
X123450000Y-93650000D01*
X123450000Y-93650000D02*
X121850000Y-93650000D01*
X121850000Y-93650000D02*
X121550000Y-93350000D01*
X121550000Y-86350000D02*
X121550000Y-86350000D01*
X121550000Y-86350000D02*
X123450000Y-86350000D01*
X123450000Y-86350000D02*
X123450000Y-86650000D01*
X123450000Y-86650000D02*
X121850000Y-86650000D01*
X121850000Y-86650000D02*
X121550000Y-86350000D01*
X121550000Y-79350000D02*
X121550000Y-79350000D01*
X121550000Y-79350000D02*
X123450000Y-79350000D01*
X123450000Y-79350000D02*
X123450000Y-79650000D01*
X123450000Y-79650000D02*
X121850000Y-79650000D01*
X121850000Y-79650000D02*
X121550000Y-79350000D01*
X121550000Y-72350000D02*
X121550000Y-72350000D01*
X121550000Y-72350000D02*
X123450000Y-72350000D01*
X123450000Y-72350000D02*
X123450000Y-72650000D01*
X123450000Y-72650000D02*
X121850000Y-72650000D01*
X121850000Y-72650000D02*
X121550000Y-72350000D01*
X121550000Y-65350000D02*
X121550000Y-65350000D01*
X121550000Y-65350000D02*
X123450000Y-65350000D01*
X123450000Y-65350000D02*
X123450000Y-65650000D01*
X123450000Y-65650000D02*
X121850000Y-65650000D01*
X121850000Y-65650000D02*
X121550000Y-65350000D01*
X121550000Y-58350000D02*
X121550000Y-58350000D01*
X121550000Y-58350000D02*
X123450000Y-58350000D01*
X123450000Y-58350000D02*
X123450000Y-58650000D01*
X123450000Y-58650000D02*
X121850000Y-58650000D01*
X121850000Y-58650000D02*
X121550000Y-58350000D01*
X114850000Y-58950000D02*
X114850000Y-58950000D01*
X114850000Y-58950000D02*
X114850000Y-57050000D01*
X114850000Y-57050000D02*
X115150000Y-57050000D01*
X115150000Y-57050000D02*
X115150000Y-58650000D01*
X115150000Y-58650000D02*
X114850000Y-58950000D01*
X107700000Y-58950000D02*
X107700000Y-58950000D01*
X107700000Y-58950000D02*
X107700000Y-57050000D01*
X107700000Y-57050000D02*
X108000000Y-57050000D01*
X108000000Y-57050000D02*
X108000000Y-58650000D01*
X108000000Y-58650000D02*
X107700000Y-58950000D01*
X100850000Y-59000000D02*
X100850000Y-59000000D01*
X100850000Y-59000000D02*
X100850000Y-57100000D01*
X100850000Y-57100000D02*
X101150000Y-57100000D01*
X101150000Y-57100000D02*
X101150000Y-58700000D01*
X101150000Y-58700000D02*
X100850000Y-59000000D01*
X93790000Y-58990000D02*
X93790000Y-58990000D01*
X93790000Y-58990000D02*
X93790000Y-57090000D01*
X93790000Y-57090000D02*
X94090000Y-57090000D01*
X94090000Y-57090000D02*
X94090000Y-58690000D01*
X94090000Y-58690000D02*
X93790000Y-58990000D01*
X86850000Y-58950000D02*
X86850000Y-58950000D01*
X86850000Y-58950000D02*
X86850000Y-57050000D01*
X86850000Y-57050000D02*
X87150000Y-57050000D01*
X87150000Y-57050000D02*
X87150000Y-58650000D01*
X87150000Y-58650000D02*
X86850000Y-58950000D01*
X79850000Y-58950000D02*
X79850000Y-58950000D01*
X79850000Y-58950000D02*
X79850000Y-57050000D01*
X79850000Y-57050000D02*
X80150000Y-57050000D01*
X80150000Y-57050000D02*
X80150000Y-58650000D01*
X80150000Y-58650000D02*
X79850000Y-58950000D01*
X72840000Y-59130000D02*
X72840000Y-59130000D01*
X72840000Y-59130000D02*
X72840000Y-57230000D01*
X72840000Y-57230000D02*
X73140000Y-57230000D01*
X73140000Y-57230000D02*
X73140000Y-58830000D01*
X73140000Y-58830000D02*
X72840000Y-59130000D01*
X65950000Y-59250000D02*
X65950000Y-59250000D01*
X65950000Y-59250000D02*
X65950000Y-57350000D01*
X65950000Y-57350000D02*
X66250000Y-57350000D01*
X66250000Y-57350000D02*
X66250000Y-58950000D01*
X66250000Y-58950000D02*
X65950000Y-59250000D01*
X58880000Y-59100000D02*
X58880000Y-59100000D01*
X58880000Y-59100000D02*
X58880000Y-57200000D01*
X58880000Y-57200000D02*
X59180000Y-57200000D01*
X59180000Y-57200000D02*
X59180000Y-58800000D01*
X59180000Y-58800000D02*
X58880000Y-59100000D01*
X51700000Y-59200000D02*
X51700000Y-59200000D01*
X51700000Y-59200000D02*
X51700000Y-57300000D01*
X51700000Y-57300000D02*
X52000000Y-57300000D01*
X52000000Y-57300000D02*
X52000000Y-58900000D01*
X52000000Y-58900000D02*
X51700000Y-59200000D01*
X69325000Y-78425000D02*
X69325000Y-78175000D01*
X69325000Y-78175000D02*
X69975000Y-78175000D01*
X69975000Y-78175000D02*
X69975000Y-78425000D01*
X69975000Y-78425000D02*
X69325000Y-78425000D01*
X58825000Y-77475000D02*
X58825000Y-77225000D01*
X58825000Y-77225000D02*
X59475000Y-77225000D01*
X59475000Y-77225000D02*
X59475000Y-77475000D01*
X59475000Y-77475000D02*
X58825000Y-77475000D01*
X65825000Y-78425000D02*
X65825000Y-78175000D01*
X65825000Y-78175000D02*
X66475000Y-78175000D01*
X66475000Y-78175000D02*
X66475000Y-78425000D01*
X66475000Y-78425000D02*
X65825000Y-78425000D01*
X62325000Y-77475000D02*
X62325000Y-77225000D01*
X62325000Y-77225000D02*
X62975000Y-77225000D01*
X62975000Y-77225000D02*
X62975000Y-77475000D01*
X62975000Y-77475000D02*
X62325000Y-77475000D01*
X71485000Y-95665000D02*
X71235000Y-95665000D01*
X71235000Y-95665000D02*
X71235000Y-95015000D01*
X71235000Y-95015000D02*
X71485000Y-95015000D01*
X71485000Y-95015000D02*
X71485000Y-95665000D01*
X76025000Y-91925000D02*
X75775000Y-91925000D01*
X75775000Y-91925000D02*
X75775000Y-91275000D01*
X75775000Y-91275000D02*
X76025000Y-91275000D01*
X76025000Y-91275000D02*
X76025000Y-91925000D01*
X48575000Y-97825000D02*
X48325000Y-97825000D01*
X48325000Y-97825000D02*
X48325000Y-97175000D01*
X48325000Y-97175000D02*
X48575000Y-97175000D01*
X48575000Y-97175000D02*
X48575000Y-97825000D01*
X76205000Y-73275000D02*
X76205000Y-73525000D01*
X76205000Y-73525000D02*
X75555000Y-73525000D01*
X75555000Y-73525000D02*
X75555000Y-73275000D01*
X75555000Y-73275000D02*
X76205000Y-73275000D01*
X76975000Y-73525000D02*
X76975000Y-73275000D01*
X76975000Y-73275000D02*
X77625000Y-73275000D01*
X77625000Y-73275000D02*
X77625000Y-73525000D01*
X77625000Y-73525000D02*
X76975000Y-73525000D01*
X77825000Y-62175000D02*
X77825000Y-62425000D01*
X77825000Y-62425000D02*
X77175000Y-62425000D01*
X77175000Y-62425000D02*
X77175000Y-62175000D01*
X77175000Y-62175000D02*
X77825000Y-62175000D01*
X45335000Y-102125000D02*
X45335000Y-101875000D01*
X45335000Y-101875000D02*
X45985000Y-101875000D01*
X45985000Y-101875000D02*
X45985000Y-102125000D01*
X45985000Y-102125000D02*
X45335000Y-102125000D01*
X44465000Y-101875000D02*
X44465000Y-102125000D01*
X44465000Y-102125000D02*
X43815000Y-102125000D01*
X43815000Y-102125000D02*
X43815000Y-101875000D01*
X43815000Y-101875000D02*
X44465000Y-101875000D01*
X72775000Y-110475000D02*
X73025000Y-110475000D01*
X73025000Y-110475000D02*
X73025000Y-111125000D01*
X73025000Y-111125000D02*
X72775000Y-111125000D01*
X72775000Y-111125000D02*
X72775000Y-110475000D01*
X73025000Y-112625000D02*
X72775000Y-112625000D01*
X72775000Y-112625000D02*
X72775000Y-111975000D01*
X72775000Y-111975000D02*
X73025000Y-111975000D01*
X73025000Y-111975000D02*
X73025000Y-112625000D01*
X79475000Y-112375000D02*
X79725000Y-112375000D01*
X79725000Y-112375000D02*
X79725000Y-113025000D01*
X79725000Y-113025000D02*
X79475000Y-113025000D01*
X79475000Y-113025000D02*
X79475000Y-112375000D01*
X94683582Y-96091758D02*
X94933582Y-96091758D01*
X94933582Y-96091758D02*
X94933582Y-96741758D01*
X94933582Y-96741758D02*
X94683582Y-96741758D01*
X94683582Y-96741758D02*
X94683582Y-96091758D01*
X76365000Y-112385000D02*
X76615000Y-112385000D01*
X76615000Y-112385000D02*
X76615000Y-113035000D01*
X76615000Y-113035000D02*
X76365000Y-113035000D01*
X76365000Y-113035000D02*
X76365000Y-112385000D01*
X92813582Y-95141758D02*
X92813582Y-95391758D01*
X92813582Y-95391758D02*
X92163582Y-95391758D01*
X92163582Y-95391758D02*
X92163582Y-95141758D01*
X92163582Y-95141758D02*
X92813582Y-95141758D01*
X82825000Y-112965000D02*
X82575000Y-112965000D01*
X82575000Y-112965000D02*
X82575000Y-112315000D01*
X82575000Y-112315000D02*
X82825000Y-112315000D01*
X82825000Y-112315000D02*
X82825000Y-112965000D01*
X59670000Y-64555000D02*
X64930000Y-64555000D01*
X64930000Y-64555000D02*
X64930000Y-73445000D01*
X64930000Y-73445000D02*
X59070000Y-73445000D01*
X59070000Y-73445000D02*
X59070000Y-65155000D01*
X59070000Y-65155000D02*
X59670000Y-64555000D01*
X70630000Y-71135000D02*
X72430000Y-71135000D01*
X72430000Y-71135000D02*
X72430000Y-74185000D01*
X72430000Y-74185000D02*
X70630000Y-74185000D01*
X70630000Y-74185000D02*
X70630000Y-71135000D01*
X41928000Y-84514000D02*
X41928000Y-83752000D01*
X41928000Y-83752000D02*
X45992000Y-83752000D01*
X45992000Y-83752000D02*
X45992000Y-84514000D01*
X41166000Y-84514000D02*
X41166000Y-94166000D01*
X46754000Y-94166000D02*
X46754000Y-84514000D01*
X41166000Y-84514000D02*
X46754000Y-84514000D01*
X41166000Y-94166000D02*
X46754000Y-94166000D01*
X94115000Y-116075000D02*
X89665000Y-116075000D01*
X89665000Y-116075000D02*
X89665000Y-112825000D01*
X89665000Y-112825000D02*
X94115000Y-112825000D01*
X94115000Y-112825000D02*
X94115000Y-116075000D01*
X56085000Y-111945000D02*
X56335000Y-111945000D01*
X56335000Y-111945000D02*
X56335000Y-112595000D01*
X56335000Y-112595000D02*
X56085000Y-112595000D01*
X56085000Y-112595000D02*
X56085000Y-111945000D01*
X48345000Y-117645000D02*
X48595000Y-117645000D01*
X48595000Y-117645000D02*
X48595000Y-118295000D01*
X48595000Y-118295000D02*
X48345000Y-118295000D01*
X48345000Y-118295000D02*
X48345000Y-117645000D01*
X56275000Y-119865000D02*
X56525000Y-119865000D01*
X56525000Y-119865000D02*
X56525000Y-120515000D01*
X56525000Y-120515000D02*
X56275000Y-120515000D01*
X56275000Y-120515000D02*
X56275000Y-119865000D01*
X55325000Y-116595000D02*
X55325000Y-115245000D01*
X55325000Y-115245000D02*
X57275000Y-115245000D01*
X57275000Y-115245000D02*
X57275000Y-117195000D01*
X57275000Y-117195000D02*
X55925000Y-117195000D01*
X55925000Y-117195000D02*
X55325000Y-116595000D01*
X51495000Y-116375000D02*
X49245000Y-116375000D01*
X49245000Y-116375000D02*
X49245000Y-112565000D01*
X49245000Y-112565000D02*
X52095000Y-112565000D01*
X52095000Y-112565000D02*
X52095000Y-115775000D01*
X52095000Y-115775000D02*
X51495000Y-116375000D01*
X77240000Y-108610000D02*
X79640000Y-108610000D01*
X76640000Y-111610000D02*
X79640000Y-111610000D01*
X77240000Y-108610000D02*
G75*
G03X76640000Y-108610000I-300000J0D01*
G01*
X41110000Y-116080000D02*
X41110000Y-110080000D01*
X41110000Y-110080000D02*
X46410000Y-110080000D01*
X46410000Y-110080000D02*
X46410000Y-116080000D01*
X46410000Y-116080000D02*
X41110000Y-116080000D01*
X41110000Y-123080000D02*
X41110000Y-117080000D01*
X41110000Y-117080000D02*
X46410000Y-117080000D01*
X46410000Y-117080000D02*
X46410000Y-123080000D01*
X46410000Y-123080000D02*
X41110000Y-123080000D01*
X107895000Y-66325000D02*
X107895000Y-66575000D01*
X107895000Y-66575000D02*
X107245000Y-66575000D01*
X107245000Y-66575000D02*
X107245000Y-66325000D01*
X107245000Y-66325000D02*
X107895000Y-66325000D01*
X76900000Y-86625000D02*
X77225000Y-86875000D01*
X76900000Y-86625000D02*
X76575000Y-86875000D01*
X77225000Y-86875000D02*
X76575000Y-86875000D01*
X42035000Y-107160000D02*
X42285000Y-106835000D01*
X42035000Y-107160000D02*
X42285000Y-107485000D01*
X42285000Y-106835000D02*
X42285000Y-107485000D01*
X47500000Y-121125000D02*
X47175000Y-120875000D01*
X47500000Y-121125000D02*
X47825000Y-120875000D01*
X47175000Y-120875000D02*
X47825000Y-120875000D01*
X80660000Y-86685000D02*
X80985000Y-86935000D01*
X80660000Y-86685000D02*
X80335000Y-86935000D01*
X80985000Y-86935000D02*
X80335000Y-86935000D01*
X66625000Y-61700000D02*
X66875000Y-61375000D01*
X66625000Y-61700000D02*
X66875000Y-62025000D01*
X66875000Y-61375000D02*
X66875000Y-62025000D01*
X101280000Y-95205000D02*
X100955000Y-94955000D01*
X101280000Y-95205000D02*
X101605000Y-94955000D01*
X100955000Y-94955000D02*
X101605000Y-94955000D01*
X79565000Y-101420000D02*
X79815000Y-101095000D01*
X79565000Y-101420000D02*
X79815000Y-101745000D01*
X79815000Y-101095000D02*
X79815000Y-101745000D01*
X98430000Y-95205000D02*
X98105000Y-94955000D01*
X98430000Y-95205000D02*
X98755000Y-94955000D01*
X98105000Y-94955000D02*
X98755000Y-94955000D01*
X99870000Y-95205000D02*
X99545000Y-94955000D01*
X99870000Y-95205000D02*
X100195000Y-94955000D01*
X99545000Y-94955000D02*
X100195000Y-94955000D01*
X78735000Y-86615000D02*
X78735000Y-86865000D01*
X78735000Y-86865000D02*
X78085000Y-86865000D01*
X78085000Y-86865000D02*
X78085000Y-86615000D01*
X78085000Y-86615000D02*
X78735000Y-86615000D01*
X42035000Y-108325000D02*
X42285000Y-108325000D01*
X42285000Y-108325000D02*
X42285000Y-108975000D01*
X42285000Y-108975000D02*
X42035000Y-108975000D01*
X42035000Y-108975000D02*
X42035000Y-108325000D01*
X48675000Y-121125000D02*
X48675000Y-120875000D01*
X48675000Y-120875000D02*
X49325000Y-120875000D01*
X49325000Y-120875000D02*
X49325000Y-121125000D01*
X49325000Y-121125000D02*
X48675000Y-121125000D01*
X82485000Y-86665000D02*
X82485000Y-86915000D01*
X82485000Y-86915000D02*
X81835000Y-86915000D01*
X81835000Y-86915000D02*
X81835000Y-86665000D01*
X81835000Y-86665000D02*
X82485000Y-86665000D01*
X63875000Y-62025000D02*
X63625000Y-62025000D01*
X63625000Y-62025000D02*
X63625000Y-61375000D01*
X63625000Y-61375000D02*
X63875000Y-61375000D01*
X63875000Y-61375000D02*
X63875000Y-62025000D01*
X101585000Y-97975000D02*
X101585000Y-98225000D01*
X101585000Y-98225000D02*
X100935000Y-98225000D01*
X100935000Y-98225000D02*
X100935000Y-97975000D01*
X100935000Y-97975000D02*
X101585000Y-97975000D01*
X76715000Y-101735000D02*
X76465000Y-101735000D01*
X76465000Y-101735000D02*
X76465000Y-101085000D01*
X76465000Y-101085000D02*
X76715000Y-101085000D01*
X76715000Y-101085000D02*
X76715000Y-101735000D01*
X98765000Y-97985000D02*
X98765000Y-98235000D01*
X98765000Y-98235000D02*
X98115000Y-98235000D01*
X98115000Y-98235000D02*
X98115000Y-97985000D01*
X98115000Y-97985000D02*
X98765000Y-97985000D01*
X100185000Y-97985000D02*
X100185000Y-98235000D01*
X100185000Y-98235000D02*
X99535000Y-98235000D01*
X99535000Y-98235000D02*
X99535000Y-97985000D01*
X99535000Y-97985000D02*
X100185000Y-97985000D01*
X86645000Y-77525000D02*
X86395000Y-77525000D01*
X86395000Y-77525000D02*
X86395000Y-76875000D01*
X86395000Y-76875000D02*
X86645000Y-76875000D01*
X86645000Y-76875000D02*
X86645000Y-77525000D01*
X86645000Y-79625000D02*
X86395000Y-79625000D01*
X86395000Y-79625000D02*
X86395000Y-78975000D01*
X86395000Y-78975000D02*
X86645000Y-78975000D01*
X86645000Y-78975000D02*
X86645000Y-79625000D01*
X88848249Y-78801041D02*
X88918959Y-78871751D01*
X89131091Y-77598959D02*
X88918959Y-77811091D01*
X90121041Y-77528249D02*
X90191751Y-77598959D01*
X90121041Y-78588909D02*
X89908909Y-78801041D01*
X81565000Y-73415000D02*
X81815000Y-73415000D01*
X81815000Y-73415000D02*
X81815000Y-74065000D01*
X81815000Y-74065000D02*
X81565000Y-74065000D01*
X81565000Y-74065000D02*
X81565000Y-73415000D01*
X81555000Y-72015000D02*
X81805000Y-72015000D01*
X81805000Y-72015000D02*
X81805000Y-72665000D01*
X81805000Y-72665000D02*
X81555000Y-72665000D01*
X81555000Y-72665000D02*
X81555000Y-72015000D01*
X83815000Y-66215000D02*
X84065000Y-66215000D01*
X84065000Y-66215000D02*
X84065000Y-66865000D01*
X84065000Y-66865000D02*
X83815000Y-66865000D01*
X83815000Y-66865000D02*
X83815000Y-66215000D01*
X83815000Y-64875000D02*
X84065000Y-64875000D01*
X84065000Y-64875000D02*
X84065000Y-65525000D01*
X84065000Y-65525000D02*
X83815000Y-65525000D01*
X83815000Y-65525000D02*
X83815000Y-64875000D01*
X56020000Y-61857500D02*
X50495500Y-61857500D01*
X56020000Y-78494500D02*
X50495500Y-78494500D01*
X40208500Y-61857500D02*
X40208500Y-78494500D01*
X40208500Y-61857500D02*
X48082500Y-61857500D01*
X40208500Y-78494500D02*
X48082500Y-78494500D01*
X56020000Y-61857500D02*
X56020000Y-78494500D01*
D11*
X53371429Y-138704762D02*
X52228571Y-138704762D01*
X52800000Y-138704762D02*
X52800000Y-136704762D01*
X52609524Y-136990476D01*
X52419048Y-137180952D01*
X52228571Y-137276190D01*
X59228571Y-136895238D02*
X59323809Y-136800000D01*
X59514286Y-136704762D01*
X59990476Y-136704762D01*
X60180952Y-136800000D01*
X60276190Y-136895238D01*
X60371429Y-137085714D01*
X60371429Y-137276190D01*
X60276190Y-137561905D01*
X59133333Y-138704762D01*
X60371429Y-138704762D01*
X66133333Y-136704762D02*
X67371429Y-136704762D01*
X66704762Y-137466667D01*
X66990476Y-137466667D01*
X67180952Y-137561905D01*
X67276190Y-137657143D01*
X67371429Y-137847619D01*
X67371429Y-138323810D01*
X67276190Y-138514286D01*
X67180952Y-138609524D01*
X66990476Y-138704762D01*
X66419048Y-138704762D01*
X66228571Y-138609524D01*
X66133333Y-138514286D01*
X74180952Y-137371429D02*
X74180952Y-138704762D01*
X73704762Y-136609524D02*
X73228571Y-138038095D01*
X74466667Y-138038095D01*
X81276190Y-136704762D02*
X80323809Y-136704762D01*
X80228571Y-137657143D01*
X80323809Y-137561905D01*
X80514286Y-137466667D01*
X80990476Y-137466667D01*
X81180952Y-137561905D01*
X81276190Y-137657143D01*
X81371429Y-137847619D01*
X81371429Y-138323810D01*
X81276190Y-138514286D01*
X81180952Y-138609524D01*
X80990476Y-138704762D01*
X80514286Y-138704762D01*
X80323809Y-138609524D01*
X80228571Y-138514286D01*
X88180952Y-136704762D02*
X87800000Y-136704762D01*
X87609524Y-136800000D01*
X87514286Y-136895238D01*
X87323809Y-137180952D01*
X87228571Y-137561905D01*
X87228571Y-138323810D01*
X87323809Y-138514286D01*
X87419048Y-138609524D01*
X87609524Y-138704762D01*
X87990476Y-138704762D01*
X88180952Y-138609524D01*
X88276190Y-138514286D01*
X88371429Y-138323810D01*
X88371429Y-137847619D01*
X88276190Y-137657143D01*
X88180952Y-137561905D01*
X87990476Y-137466667D01*
X87609524Y-137466667D01*
X87419048Y-137561905D01*
X87323809Y-137657143D01*
X87228571Y-137847619D01*
X94133333Y-136704762D02*
X95466667Y-136704762D01*
X94609524Y-138704762D01*
X101609524Y-137561905D02*
X101419048Y-137466667D01*
X101323809Y-137371429D01*
X101228571Y-137180952D01*
X101228571Y-137085714D01*
X101323809Y-136895238D01*
X101419048Y-136800000D01*
X101609524Y-136704762D01*
X101990476Y-136704762D01*
X102180952Y-136800000D01*
X102276190Y-136895238D01*
X102371429Y-137085714D01*
X102371429Y-137180952D01*
X102276190Y-137371429D01*
X102180952Y-137466667D01*
X101990476Y-137561905D01*
X101609524Y-137561905D01*
X101419048Y-137657143D01*
X101323809Y-137752381D01*
X101228571Y-137942857D01*
X101228571Y-138323810D01*
X101323809Y-138514286D01*
X101419048Y-138609524D01*
X101609524Y-138704762D01*
X101990476Y-138704762D01*
X102180952Y-138609524D01*
X102276190Y-138514286D01*
X102371429Y-138323810D01*
X102371429Y-137942857D01*
X102276190Y-137752381D01*
X102180952Y-137657143D01*
X101990476Y-137561905D01*
X108419048Y-138704762D02*
X108800000Y-138704762D01*
X108990476Y-138609524D01*
X109085714Y-138514286D01*
X109276190Y-138228571D01*
X109371429Y-137847619D01*
X109371429Y-137085714D01*
X109276190Y-136895238D01*
X109180952Y-136800000D01*
X108990476Y-136704762D01*
X108609524Y-136704762D01*
X108419048Y-136800000D01*
X108323809Y-136895238D01*
X108228571Y-137085714D01*
X108228571Y-137561905D01*
X108323809Y-137752381D01*
X108419048Y-137847619D01*
X108609524Y-137942857D01*
X108990476Y-137942857D01*
X109180952Y-137847619D01*
X109276190Y-137752381D01*
X109371429Y-137561905D01*
X115419048Y-138704762D02*
X114276190Y-138704762D01*
X114847619Y-138704762D02*
X114847619Y-136704762D01*
X114657143Y-136990476D01*
X114466667Y-137180952D01*
X114276190Y-137276190D01*
X116657143Y-136704762D02*
X116847619Y-136704762D01*
X117038095Y-136800000D01*
X117133333Y-136895238D01*
X117228571Y-137085714D01*
X117323810Y-137466667D01*
X117323810Y-137942857D01*
X117228571Y-138323810D01*
X117133333Y-138514286D01*
X117038095Y-138609524D01*
X116847619Y-138704762D01*
X116657143Y-138704762D01*
X116466667Y-138609524D01*
X116371429Y-138514286D01*
X116276190Y-138323810D01*
X116180952Y-137942857D01*
X116180952Y-137466667D01*
X116276190Y-137085714D01*
X116371429Y-136895238D01*
X116466667Y-136800000D01*
X116657143Y-136704762D01*
X138704762Y-121580952D02*
X138704762Y-122723810D01*
X138704762Y-122152381D02*
X136704762Y-122152381D01*
X136990476Y-122342857D01*
X137180952Y-122533333D01*
X137276190Y-122723810D01*
X138704762Y-119676190D02*
X138704762Y-120819048D01*
X138704762Y-120247619D02*
X136704762Y-120247619D01*
X136990476Y-120438095D01*
X137180952Y-120628571D01*
X137276190Y-120819048D01*
X138704762Y-114580952D02*
X138704762Y-115723810D01*
X138704762Y-115152381D02*
X136704762Y-115152381D01*
X136990476Y-115342857D01*
X137180952Y-115533333D01*
X137276190Y-115723810D01*
X136895238Y-113819048D02*
X136800000Y-113723810D01*
X136704762Y-113533333D01*
X136704762Y-113057143D01*
X136800000Y-112866667D01*
X136895238Y-112771429D01*
X137085714Y-112676190D01*
X137276190Y-112676190D01*
X137561905Y-112771429D01*
X138704762Y-113914286D01*
X138704762Y-112676190D01*
X138704762Y-107580952D02*
X138704762Y-108723810D01*
X138704762Y-108152381D02*
X136704762Y-108152381D01*
X136990476Y-108342857D01*
X137180952Y-108533333D01*
X137276190Y-108723810D01*
X136704762Y-106914286D02*
X136704762Y-105676190D01*
X137466667Y-106342857D01*
X137466667Y-106057143D01*
X137561905Y-105866667D01*
X137657143Y-105771429D01*
X137847619Y-105676190D01*
X138323810Y-105676190D01*
X138514286Y-105771429D01*
X138609524Y-105866667D01*
X138704762Y-106057143D01*
X138704762Y-106628571D01*
X138609524Y-106819048D01*
X138514286Y-106914286D01*
X138704762Y-100580952D02*
X138704762Y-101723810D01*
X138704762Y-101152381D02*
X136704762Y-101152381D01*
X136990476Y-101342857D01*
X137180952Y-101533333D01*
X137276190Y-101723810D01*
X137371429Y-98866667D02*
X138704762Y-98866667D01*
X136609524Y-99342857D02*
X138038095Y-99819048D01*
X138038095Y-98580952D01*
X138704762Y-93580952D02*
X138704762Y-94723810D01*
X138704762Y-94152381D02*
X136704762Y-94152381D01*
X136990476Y-94342857D01*
X137180952Y-94533333D01*
X137276190Y-94723810D01*
X136704762Y-91771429D02*
X136704762Y-92723810D01*
X137657143Y-92819048D01*
X137561905Y-92723810D01*
X137466667Y-92533333D01*
X137466667Y-92057143D01*
X137561905Y-91866667D01*
X137657143Y-91771429D01*
X137847619Y-91676190D01*
X138323810Y-91676190D01*
X138514286Y-91771429D01*
X138609524Y-91866667D01*
X138704762Y-92057143D01*
X138704762Y-92533333D01*
X138609524Y-92723810D01*
X138514286Y-92819048D01*
X138704762Y-86580952D02*
X138704762Y-87723810D01*
X138704762Y-87152381D02*
X136704762Y-87152381D01*
X136990476Y-87342857D01*
X137180952Y-87533333D01*
X137276190Y-87723810D01*
X136704762Y-84866667D02*
X136704762Y-85247619D01*
X136800000Y-85438095D01*
X136895238Y-85533333D01*
X137180952Y-85723810D01*
X137561905Y-85819048D01*
X138323810Y-85819048D01*
X138514286Y-85723810D01*
X138609524Y-85628571D01*
X138704762Y-85438095D01*
X138704762Y-85057143D01*
X138609524Y-84866667D01*
X138514286Y-84771429D01*
X138323810Y-84676190D01*
X137847619Y-84676190D01*
X137657143Y-84771429D01*
X137561905Y-84866667D01*
X137466667Y-85057143D01*
X137466667Y-85438095D01*
X137561905Y-85628571D01*
X137657143Y-85723810D01*
X137847619Y-85819048D01*
X138704762Y-79580952D02*
X138704762Y-80723810D01*
X138704762Y-80152381D02*
X136704762Y-80152381D01*
X136990476Y-80342857D01*
X137180952Y-80533333D01*
X137276190Y-80723810D01*
X136704762Y-78914286D02*
X136704762Y-77580952D01*
X138704762Y-78438095D01*
X138704762Y-72580952D02*
X138704762Y-73723810D01*
X138704762Y-73152381D02*
X136704762Y-73152381D01*
X136990476Y-73342857D01*
X137180952Y-73533333D01*
X137276190Y-73723810D01*
X137561905Y-71438095D02*
X137466667Y-71628571D01*
X137371429Y-71723810D01*
X137180952Y-71819048D01*
X137085714Y-71819048D01*
X136895238Y-71723810D01*
X136800000Y-71628571D01*
X136704762Y-71438095D01*
X136704762Y-71057143D01*
X136800000Y-70866667D01*
X136895238Y-70771429D01*
X137085714Y-70676190D01*
X137180952Y-70676190D01*
X137371429Y-70771429D01*
X137466667Y-70866667D01*
X137561905Y-71057143D01*
X137561905Y-71438095D01*
X137657143Y-71628571D01*
X137752381Y-71723810D01*
X137942857Y-71819048D01*
X138323810Y-71819048D01*
X138514286Y-71723810D01*
X138609524Y-71628571D01*
X138704762Y-71438095D01*
X138704762Y-71057143D01*
X138609524Y-70866667D01*
X138514286Y-70771429D01*
X138323810Y-70676190D01*
X137942857Y-70676190D01*
X137752381Y-70771429D01*
X137657143Y-70866667D01*
X137561905Y-71057143D01*
X138704762Y-65580952D02*
X138704762Y-66723810D01*
X138704762Y-66152381D02*
X136704762Y-66152381D01*
X136990476Y-66342857D01*
X137180952Y-66533333D01*
X137276190Y-66723810D01*
X138704762Y-64628571D02*
X138704762Y-64247619D01*
X138609524Y-64057143D01*
X138514286Y-63961905D01*
X138228571Y-63771429D01*
X137847619Y-63676190D01*
X137085714Y-63676190D01*
X136895238Y-63771429D01*
X136800000Y-63866667D01*
X136704762Y-64057143D01*
X136704762Y-64438095D01*
X136800000Y-64628571D01*
X136895238Y-64723810D01*
X137085714Y-64819048D01*
X137561905Y-64819048D01*
X137752381Y-64723810D01*
X137847619Y-64628571D01*
X137942857Y-64438095D01*
X137942857Y-64057143D01*
X137847619Y-63866667D01*
X137752381Y-63771429D01*
X137561905Y-63676190D01*
X136895238Y-59723810D02*
X136800000Y-59628572D01*
X136704762Y-59438095D01*
X136704762Y-58961905D01*
X136800000Y-58771429D01*
X136895238Y-58676191D01*
X137085714Y-58580952D01*
X137276190Y-58580952D01*
X137561905Y-58676191D01*
X138704762Y-59819048D01*
X138704762Y-58580952D01*
X136704762Y-57342857D02*
X136704762Y-57152381D01*
X136800000Y-56961905D01*
X136895238Y-56866667D01*
X137085714Y-56771429D01*
X137466667Y-56676190D01*
X137942857Y-56676190D01*
X138323810Y-56771429D01*
X138514286Y-56866667D01*
X138609524Y-56961905D01*
X138704762Y-57152381D01*
X138704762Y-57342857D01*
X138609524Y-57533333D01*
X138514286Y-57628571D01*
X138323810Y-57723810D01*
X137942857Y-57819048D01*
X137466667Y-57819048D01*
X137085714Y-57723810D01*
X136895238Y-57628571D01*
X136800000Y-57533333D01*
X136704762Y-57342857D01*
D14*
X84379524Y-97042381D02*
X84998572Y-97042381D01*
X84665238Y-97423333D01*
X84808096Y-97423333D01*
X84903334Y-97470952D01*
X84950953Y-97518571D01*
X84998572Y-97613810D01*
X84998572Y-97851905D01*
X84950953Y-97947143D01*
X84903334Y-97994762D01*
X84808096Y-98042381D01*
X84522381Y-98042381D01*
X84427143Y-97994762D01*
X84379524Y-97947143D01*
X85331905Y-97375714D02*
X85570000Y-98042381D01*
X85808096Y-97375714D01*
X86093810Y-97042381D02*
X86712858Y-97042381D01*
X86379524Y-97423333D01*
X86522382Y-97423333D01*
X86617620Y-97470952D01*
X86665239Y-97518571D01*
X86712858Y-97613810D01*
X86712858Y-97851905D01*
X86665239Y-97947143D01*
X86617620Y-97994762D01*
X86522382Y-98042381D01*
X86236667Y-98042381D01*
X86141429Y-97994762D01*
X86093810Y-97947143D01*
D15*
G36*
X68213000Y-120223000D02*
X63467000Y-120223000D01*
X63467000Y-117977000D01*
X68213000Y-117977000D01*
X68213000Y-120223000D01*
X68213000Y-120223000D01*
G37*
X68213000Y-120223000D02*
X63467000Y-120223000D01*
X63467000Y-117977000D01*
X68213000Y-117977000D01*
X68213000Y-120223000D01*
G36*
X74213000Y-120223000D02*
X69467000Y-120223000D01*
X69467000Y-117977000D01*
X74213000Y-117977000D01*
X74213000Y-120223000D01*
X74213000Y-120223000D01*
G37*
X74213000Y-120223000D02*
X69467000Y-120223000D01*
X69467000Y-117977000D01*
X74213000Y-117977000D01*
X74213000Y-120223000D01*
G36*
X80213000Y-120223000D02*
X75467000Y-120223000D01*
X75467000Y-117977000D01*
X80213000Y-117977000D01*
X80213000Y-120223000D01*
X80213000Y-120223000D01*
G37*
X80213000Y-120223000D02*
X75467000Y-120223000D01*
X75467000Y-117977000D01*
X80213000Y-117977000D01*
X80213000Y-120223000D01*
G36*
X86213000Y-120223000D02*
X81467000Y-120223000D01*
X81467000Y-117977000D01*
X86213000Y-117977000D01*
X86213000Y-120223000D01*
X86213000Y-120223000D01*
G37*
X86213000Y-120223000D02*
X81467000Y-120223000D01*
X81467000Y-117977000D01*
X86213000Y-117977000D01*
X86213000Y-120223000D01*
G36*
X92213000Y-120223000D02*
X87467000Y-120223000D01*
X87467000Y-117977000D01*
X92213000Y-117977000D01*
X92213000Y-120223000D01*
X92213000Y-120223000D01*
G37*
X92213000Y-120223000D02*
X87467000Y-120223000D01*
X87467000Y-117977000D01*
X92213000Y-117977000D01*
X92213000Y-120223000D01*
G36*
X98213000Y-120223000D02*
X93467000Y-120223000D01*
X93467000Y-117977000D01*
X98213000Y-117977000D01*
X98213000Y-120223000D01*
X98213000Y-120223000D01*
G37*
X98213000Y-120223000D02*
X93467000Y-120223000D01*
X93467000Y-117977000D01*
X98213000Y-117977000D01*
X98213000Y-120223000D01*
G36*
X71213000Y-116723000D02*
X61967000Y-116723000D01*
X61967000Y-112977000D01*
X71213000Y-112977000D01*
X71213000Y-116723000D01*
X71213000Y-116723000D01*
G37*
X71213000Y-116723000D02*
X61967000Y-116723000D01*
X61967000Y-112977000D01*
X71213000Y-112977000D01*
X71213000Y-116723000D01*
M02*
